<svg width="76" height="76" fill="none" xmlns="http://www.w3.org/2000/svg"><g clip-path="url(#clip0)"><path d="M69.6 75.86H6.26C2.8 75.86 0 73.06 0 69.6V6.26C0 2.8 2.8 0 6.26 0H69.6c3.46 0 6.26 2.8 6.26 6.26V69.6c0 3.46-2.8 6.26-6.26 6.26z" fill="#0019A5"/><path d="M7.9 11.99a4.09 4.09 0 100-8.18 4.09 4.09 0 000 8.18zm0 60.06a4.09 4.09 0 100-8.18 4.09 4.09 0 000 8.18zm60.06 0a4.09 4.09 0 100-8.18 4.09 4.09 0 000 8.18zm0-60.06a4.09 4.09 0 100-8.18 4.09 4.09 0 000 8.18zM37.93 61.88c13.228 0 23.95-10.723 23.95-23.95 0-13.227-10.722-23.95-23.95-23.95-13.227 0-23.95 10.723-23.95 23.95 0 13.227 10.723 23.95 23.95 23.95z" stroke="#fff" stroke-miterlimit="10" stroke-linecap="round" stroke-linejoin="round"/><path d="M37.93 54.87c9.356 0 16.94-7.584 16.94-16.94 0-9.356-7.584-16.94-16.94-16.94-9.355 0-16.94 7.584-16.94 16.94 0 9.356 7.585 16.94 16.94 16.94z" stroke="#003CFF" stroke-miterlimit="10" stroke-linecap="round" stroke-linejoin="round"/></g><defs><clipPath id="clip0"><path fill="#fff" d="M0 0h75.86v75.86H0z"/></clipPath></defs></svg>