<svg width="67" height="75" fill="none" xmlns="http://www.w3.org/2000/svg"><g clip-path="url(#clip0)"><path d="M66.61 33.3v41.55H54.16v-7.63H12.47v7.63H0V33.3C0 14.94 14.94 0 33.31 0c18.36 0 33.3 14.94 33.3 33.3z" fill="#0019A5"/><path d="M33.31 57.25c13.227 0 23.95-10.723 23.95-23.95 0-13.227-10.723-23.95-23.95-23.95-13.228 0-23.95 10.723-23.95 23.95 0 13.227 10.722 23.95 23.95 23.95z" stroke="#fff" stroke-miterlimit="10" stroke-linecap="round" stroke-linejoin="round"/><path d="M6.727 1.923l-4.79 4.799 3.816 3.807 4.789-4.799-3.815-3.807z" fill="#0019A5"/><path d="M33.31 50.24c9.355 0 16.94-7.584 16.94-16.94 0-9.356-7.585-16.94-16.94-16.94-9.357 0-16.94 7.584-16.94 16.94 0 9.356 7.583 16.94 16.94 16.94z" stroke="#003CFF" stroke-miterlimit="10" stroke-linecap="round" stroke-linejoin="round"/></g><defs><clipPath id="clip0"><path fill="#fff" d="M0 0h66.61v74.85H0z"/></clipPath></defs></svg>