<svg data-name="Слой 1" xmlns="http://www.w3.org/2000/svg" viewBox="0 0 20.004 20.004"><path d="M1.897 19.142a1.035 1.035 0 01-.732-1.766l16.21-16.21a1.035 1.035 0 011.464 1.463l-16.21 16.21a1.03 1.03 0 01-.732.303zm18.107-3.966a4.829 4.829 0 10-4.828 4.828 4.834 4.834 0 004.828-4.828zm-2.07 0a2.76 2.76 0 11-2.758-2.76 2.762 2.762 0 012.759 2.76zM9.658 4.829A4.829 4.829 0 104.83 9.657 4.834 4.834 0 009.657 4.83zm-2.07 0a2.76 2.76 0 11-2.758-2.76 2.762 2.762 0 012.759 2.76z" fill="#e5a359"/></svg>