<svg width="21" height="21" fill="none" xmlns="http://www.w3.org/2000/svg"><path d="M14.62 11.33l-2.44 2.44a13.08 13.08 0 01-5.76-5.76l2.44-2.44L5.95 0 3.09.9a4.45 4.45 0 00-3 5.13A18.54 18.54 0 0014.16 20.1a4.45 4.45 0 005.13-3l.9-2.82-5.57-2.95zm3.24 5.27a3 3 0 01-3.38 2A17 17 0 011.55 5.71a3 3 0 012-3.38l1.62-.52 1.85 3.47-1.66 1.67-.77.77.49 1a14.65 14.65 0 006.42 6.38l1 .49.77-.77 1.67-1.66 3.47 1.81-.55 1.63zm-3.52-8.5h1.5a3.75 3.75 0 00-3.75-3.75v1.5a2.25 2.25 0 012.25 2.25zm4 0h1.5A7.76 7.76 0 0012.09.35v1.5a6.25 6.25 0 016.25 6.25z" fill="#0029FF"/></svg>