<svg width="66" height="16" fill="none" xmlns="http://www.w3.org/2000/svg"><path d="M17.711 5.347l-2.798-4.26L11.11 4.26 11.404 0H6.308l.25 4.261-3.76-3.175L0 5.347 5.054 7.98 0 10.611l2.799 4.303 3.76-3.217L6.307 16h5.096l-.25-4.303 3.717 3.217 2.84-4.303-5.096-2.632 5.096-2.632zm23.987 0l-2.799-4.26-3.801 3.174L35.39 0h-5.096l.25 4.261-3.759-3.175-2.799 4.261 5.055 2.632-5.055 2.632 2.8 4.303 3.759-3.217L30.294 16h5.096l-.25-4.303 3.717 3.217 2.84-4.303-5.095-2.632 5.096-2.632zm23.986 0l-2.798-4.26-3.802 3.174L59.377 0H54.28l.251 4.261-3.76-3.175-2.798 4.261 5.054 2.632-5.054 2.632 2.799 4.303 3.759-3.217-.25 4.303h5.096l-.251-4.303 3.718 3.217 2.84-4.303-5.096-2.632 5.096-2.632z" fill="#0029FF"/></svg>