<svg xmlns="http://www.w3.org/2000/svg" width="35" height="35"><defs><clipPath id="a"><path fill="#fff" d="M35 17.5C35 27.165 27.165 35 17.5 35S0 27.165 0 17.5 7.835 0 17.5 0 35 7.835 35 17.5z"/></clipPath></defs><path fill="#fff" d="M15 22a2 2 0 11-4 0 2 2 0 014 0zm9 0a2 2 0 11-4 0 2 2 0 014 0zm-9-9a2 2 0 11-4 0 2 2 0 014 0zm9 0a2 2 0 11-4 0 2 2 0 014 0z"/><path fill="none" stroke="#fff" stroke-miterlimit="50" stroke-opacity=".2" stroke-width="2" d="M35 17.5C35 27.165 27.165 35 17.5 35S0 27.165 0 17.5 7.835 0 17.5 0 35 7.835 35 17.5z" clip-path="url(&quot;#a&quot;)"/></svg>