<svg width="1201" height="88" fill="none" xmlns="http://www.w3.org/2000/svg"><circle cx="41.133" cy="43.387" r="41.133" fill="#001AA5"/><path d="M22.27 23.45l-2.033 1.997 2.199 2.132-.623.616-4.91-4.84 3.002-2.94.525.52-2.378 2.352 1.618 1.627 2.074-1.983.526.52zm3.07-2.419l-.139 1.121 1.19 1.955-.747.465-3.665-5.756.747-.478 1.798 2.816.124-1.039.36-3.185.899-.56-.443 3.786 4.245 1.887-.898.56-3.471-1.572zm5.67-.232l3.167-1.108.249.684-3.997 1.367-2.31-6.37.83-.288 2.06 5.715zm37.462 20.779l-.456-2.734-3.001.479-.152-.875 6.803-1.08.664 4.101-.733.123-.525-3.267-2.323.369.442 2.802-.72.082zm.208 3.897l-.817-.807-2.323-.136v-.875l6.915.383v.888l-3.36-.191.787.697 2.337 2.133-.069 1.052-2.862-2.542-3.983 2.324v-1.053l3.374-1.873zm-3.098 4.689l-.913 3.199-.746-.205 1.161-4.102 6.61 1.86-.235.834-5.877-1.586zM32.323 70.698l2.766.67.733-2.966.857.205-1.631 6.63-4.15-.998.18-.71 3.25.779.554-2.256-2.766-.67.207-.684zm-3.72-1.326l1.079-.438 1.05-2.064.803.396-3.042 6.098-.802-.397 1.48-2.98-.955.451-3.015 1.354-.954-.465 3.54-1.559-.58-4.552.954.465.442 3.69zm-3.139-4.648l-2.628-2.092.47-.574 3.278 2.625-4.273 5.304-.692-.533 3.845-4.73z" fill="#0029FF"/><circle cx="41.511" cy="43.765" r="16.859" stroke="#fff"/><circle cx="41.511" cy="43.764" r="12.331" stroke="#0029FF"/><circle r="4.028" transform="matrix(-1 0 0 1 56.605 19.613)" stroke="#fff"/><circle r="4.028" transform="matrix(-1 0 0 1 56.605 67.161)" stroke="#fff"/><circle r="4.028" transform="matrix(-1 0 0 1 12.83 46.784)" stroke="#fff"/><rect x="145.218" width="62.156" height="62.156" rx="5" transform="rotate(45 145.218 0)" fill="#001AA5"/><circle cx="145.672" cy="44.406" r="16.859" stroke="#fff"/><circle cx="145.672" cy="44.406" r="12.331" stroke="#0029FF"/><circle r="4.028" transform="matrix(-1 0 0 1 145.238 13.544)" stroke="#fff"/><circle r="4.028" transform="matrix(-1 0 0 1 145.238 73.272)" stroke="#fff"/><circle r="4.028" transform="matrix(-1 0 0 1 175.666 43.971)" stroke="#fff"/><circle r="4.028" transform="matrix(-1 0 0 1 113.684 43.971)" stroke="#fff"/><path d="M126 30.2l-2.122 2.123 2.252 2.252-.655.654-5.099-5.098 3.131-3.13.553.552-2.475 2.476 1.743 1.744 2.123-2.122.549.55zm2.578-2.808l.077 1.212 1.723 1.723-.662.662-5.099-5.099.662-.662 2.49 2.49-.123-1.11-.378-3.369.788-.788.448 4.013 4.77.967-.788.788-3.908-.827zm5.634-2l2.494-2.493.549.55-3.141 3.141-5.098-5.098.647-.648 4.549 4.549z" fill="#0029FF"/><rect x="208.168" y="4.508" width="77.759" height="77.759" rx="5" fill="#001AA5"/><path d="M242.747 13.974h-3.001v3.184h-.926v-7.21h4.428v.782h-3.502v2.466h3.001v.778zm3.809-.163l-.802.91v2.437h-.936v-7.21h.936v3.52l.698-.87 2.114-2.65h1.115l-2.521 3.154 2.689 4.056h-1.114l-2.179-3.347zm5.398 2.57h3.526v.777h-4.442v-7.21h.916v6.433zm-9.207 57.321h-3.001v3.184h-.926v-7.21h4.428v.782h-3.502v2.466h3.001v.778zm3.809-.163l-.802.91v2.437h-.936v-7.21h.936v3.52l.698-.87 2.114-2.65h1.115l-2.521 3.154 2.689 4.056h-1.114l-2.179-3.347zm5.398 2.57h3.526v.777h-4.442v-7.21h.916v6.433z" fill="#0029FF"/><circle cx="246.939" cy="43.279" r="16.859" stroke="#fff"/><circle cx="246.939" cy="43.279" r="12.331" stroke="#0029FF"/><circle r="4.028" transform="matrix(-1 0 0 1 217.204 13.544)" stroke="#fff"/><circle r="4.028" transform="matrix(-1 0 0 1 276.932 13.544)" stroke="#fff"/><circle r="4.028" transform="matrix(-1 0 0 1 217.204 73.272)" stroke="#fff"/><circle r="4.028" transform="matrix(-1 0 0 1 276.932 73.272)" stroke="#fff"/><circle cx="650.988" cy="43.387" r="41.133" fill="#001AA5"/><path d="M632.124 23.45l-2.032 1.997 2.198 2.132-.622.616-4.909-4.84 3.001-2.94.525.52-2.378 2.352 1.618 1.627 2.074-1.983.525.52zm3.07-2.419l-.138 1.121 1.189 1.955-.746.465-3.665-5.756.747-.478 1.797 2.816.125-1.039.359-3.185.899-.56-.442 3.786 4.245 1.887-.899.56-3.471-1.572zm5.671-.232l3.167-1.108.248.684-3.996 1.367-2.31-6.37.83-.288 2.061 5.715zm37.462 20.779l-.457-2.734-3 .479-.153-.875 6.804-1.08.664 4.101-.733.123-.525-3.267-2.324.369.443 2.802-.719.082zm.207 3.897l-.816-.807-2.323-.136v-.875l6.914.383v.888l-3.36-.191.788.697 2.337 2.133-.069 1.052-2.862-2.542-3.983 2.324v-1.053l3.374-1.873zm-3.097 4.689l-.913 3.199-.747-.205 1.162-4.102 6.61 1.86-.235.834-5.877-1.586zm-33.259 20.534l2.766.67.733-2.966.857.205-1.632 6.63-4.148-.998.18-.71 3.249.779.554-2.256-2.766-.67.207-.684zm-3.72-1.326l1.079-.438 1.051-2.064.802.396-3.043 6.098-.802-.397 1.48-2.98-.954.451-3.015 1.354-.954-.465 3.54-1.559-.581-4.552.955.465.442 3.69zm-3.139-4.648l-2.628-2.092.47-.574 3.278 2.625-4.273 5.304-.692-.533 3.845-4.73z" fill="#0029FF"/><circle cx="651.366" cy="43.765" r="16.859" stroke="#fff"/><circle cx="651.365" cy="43.764" r="12.331" stroke="#0029FF"/><circle r="4.028" transform="matrix(-1 0 0 1 666.46 19.613)" stroke="#fff"/><circle r="4.028" transform="matrix(-1 0 0 1 666.46 67.161)" stroke="#fff"/><circle r="4.028" transform="matrix(-1 0 0 1 622.685 46.784)" stroke="#fff"/><rect x="755.072" width="62.156" height="62.156" rx="5" transform="rotate(45 755.072 0)" fill="#001AA5"/><circle cx="755.527" cy="44.406" r="16.859" stroke="#fff"/><circle cx="755.527" cy="44.406" r="12.331" stroke="#0029FF"/><circle r="4.028" transform="matrix(-1 0 0 1 755.093 13.544)" stroke="#fff"/><circle r="4.028" transform="matrix(-1 0 0 1 755.093 73.272)" stroke="#fff"/><circle r="4.028" transform="matrix(-1 0 0 1 785.521 43.971)" stroke="#fff"/><circle r="4.028" transform="matrix(-1 0 0 1 723.539 43.971)" stroke="#fff"/><path d="M735.855 30.2l-2.122 2.123 2.252 2.252-.655.654-5.099-5.098 3.131-3.13.553.552-2.476 2.476 1.744 1.744 2.122-2.122.55.55zm2.578-2.808l.077 1.212 1.723 1.723-.662.662-5.099-5.099.662-.662 2.49 2.49-.123-1.11-.378-3.369.788-.788.448 4.013 4.77.967-.788.788-3.908-.827zm5.634-2l2.493-2.493.55.55-3.141 3.141-5.099-5.098.648-.648 4.549 4.549z" fill="#0029FF"/><rect x="818.023" y="4.508" width="77.759" height="77.759" rx="5" fill="#001AA5"/><path d="M852.602 13.974h-3.001v3.184h-.926v-7.21h4.427v.782h-3.501v2.466h3.001v.778zm3.809-.163l-.803.91v2.437h-.936v-7.21h.936v3.52l.699-.87 2.114-2.65h1.115l-2.521 3.154 2.689 4.056h-1.114l-2.179-3.347zm5.398 2.57h3.526v.777h-4.442v-7.21h.916v6.433zm-9.207 57.321h-3.001v3.184h-.926v-7.21h4.427v.782h-3.501v2.466h3.001v.778zm3.809-.163l-.803.91v2.437h-.936v-7.21h.936v3.52l.699-.87 2.114-2.65h1.115l-2.521 3.154 2.689 4.056h-1.114l-2.179-3.347zm5.398 2.57h3.526v.777h-4.442v-7.21h.916v6.433z" fill="#0029FF"/><circle cx="856.794" cy="43.279" r="16.859" stroke="#fff"/><circle cx="856.794" cy="43.279" r="12.331" stroke="#0029FF"/><circle r="4.028" transform="matrix(-1 0 0 1 827.059 13.544)" stroke="#fff"/><circle r="4.028" transform="matrix(-1 0 0 1 886.787 13.544)" stroke="#fff"/><circle r="4.028" transform="matrix(-1 0 0 1 827.059 73.272)" stroke="#fff"/><circle r="4.028" transform="matrix(-1 0 0 1 886.787 73.272)" stroke="#fff"/><circle cx="346.061" cy="43.387" r="41.133" fill="#001AA5"/><path d="M327.197 23.45l-2.033 1.997 2.199 2.132-.622.616-4.91-4.84 3.001-2.94.526.52-2.379 2.352 1.618 1.627 2.074-1.983.526.52zm3.07-2.419l-.138 1.121 1.189 1.955-.747.465-3.665-5.756.747-.478 1.798 2.816.124-1.039.36-3.185.899-.56-.443 3.786 4.246 1.887-.899.56-3.471-1.572zm5.67-.232l3.167-1.108.249.684-3.996 1.367-2.31-6.37.83-.288 2.06 5.715zm37.462 20.779l-.456-2.734-3.001.479-.152-.875 6.804-1.08.664 4.101-.733.123-.526-3.267-2.323.369.443 2.802-.72.082zm.208 3.897l-.816-.807-2.323-.136v-.875l6.914.383v.888l-3.36-.191.788.697 2.337 2.133-.069 1.052-2.863-2.542-3.983 2.324v-1.053l3.375-1.873zm-3.098 4.689l-.912 3.199-.747-.205 1.162-4.102 6.61 1.86-.235.834-5.878-1.586zm-33.258 20.534l2.766.67.732-2.966.858.205-1.632 6.63-4.149-.998.18-.71 3.25.779.553-2.256-2.766-.67.208-.684zm-3.72-1.326l1.078-.438 1.051-2.064.802.396-3.042 6.098-.802-.397 1.48-2.98-.955.451-3.014 1.354-.954-.465 3.54-1.559-.581-4.552.954.465.443 3.69zm-3.14-4.648l-2.627-2.092.47-.574 3.277 2.625-4.273 5.304-.691-.533 3.844-4.73z" fill="#0029FF"/><circle cx="346.438" cy="43.765" r="16.859" stroke="#fff"/><circle cx="346.438" cy="43.764" r="12.331" stroke="#0029FF"/><circle r="4.028" transform="matrix(-1 0 0 1 361.533 19.613)" stroke="#fff"/><circle r="4.028" transform="matrix(-1 0 0 1 361.533 67.161)" stroke="#fff"/><circle r="4.028" transform="matrix(-1 0 0 1 317.758 46.784)" stroke="#fff"/><rect x="450.145" width="62.156" height="62.156" rx="5" transform="rotate(45 450.145 0)" fill="#001AA5"/><circle cx="450.6" cy="44.406" r="16.859" stroke="#fff"/><circle cx="450.6" cy="44.406" r="12.331" stroke="#0029FF"/><circle r="4.028" transform="matrix(-1 0 0 1 450.166 13.544)" stroke="#fff"/><circle r="4.028" transform="matrix(-1 0 0 1 450.166 73.272)" stroke="#fff"/><circle r="4.028" transform="matrix(-1 0 0 1 480.593 43.971)" stroke="#fff"/><circle r="4.028" transform="matrix(-1 0 0 1 418.611 43.971)" stroke="#fff"/><path d="M430.928 30.2l-2.122 2.123 2.251 2.252-.654.654-5.099-5.098 3.131-3.13.553.552-2.476 2.476 1.744 1.744 2.122-2.122.55.55zm2.577-2.808l.077 1.212 1.723 1.723-.662.662-5.098-5.099.661-.662 2.49 2.49-.122-1.11-.378-3.369.787-.788.449 4.013 4.769.967-.788.788-3.908-.827zm5.635-2l2.493-2.493.55.55-3.141 3.141-5.099-5.098.648-.648 4.549 4.549z" fill="#0029FF"/><rect x="513.096" y="4.508" width="77.759" height="77.759" rx="5" fill="#001AA5"/><path d="M547.675 13.974h-3.001v3.184h-.926v-7.21h4.427v.782h-3.501v2.466h3.001v.778zm3.808-.163l-.802.91v2.437h-.936v-7.21h.936v3.52l.698-.87 2.115-2.65h1.114l-2.521 3.154 2.69 4.056h-1.115l-2.179-3.347zm5.398 2.57h3.526v.777h-4.442v-7.21h.916v6.433zm-9.206 57.321h-3.001v3.184h-.926v-7.21h4.427v.782h-3.501v2.466h3.001v.778zm3.808-.163l-.802.91v2.437h-.936v-7.21h.936v3.52l.698-.87 2.115-2.65h1.114l-2.521 3.154 2.69 4.056h-1.115l-2.179-3.347zm5.398 2.57h3.526v.777h-4.442v-7.21h.916v6.433z" fill="#0029FF"/><circle cx="551.867" cy="43.279" r="16.859" stroke="#fff"/><circle cx="551.866" cy="43.279" r="12.331" stroke="#0029FF"/><circle r="4.028" transform="matrix(-1 0 0 1 522.132 13.544)" stroke="#fff"/><circle r="4.028" transform="matrix(-1 0 0 1 581.86 13.544)" stroke="#fff"/><circle r="4.028" transform="matrix(-1 0 0 1 522.132 73.272)" stroke="#fff"/><circle r="4.028" transform="matrix(-1 0 0 1 581.86 73.272)" stroke="#fff"/><circle cx="955.916" cy="43.387" r="41.133" fill="#001AA5"/><path d="M937.052 23.45l-2.033 1.997 2.199 2.132-.623.616-4.909-4.84 3.001-2.94.526.52-2.379 2.352 1.618 1.627 2.074-1.983.526.52zm3.07-2.419l-.139 1.121 1.19 1.955-.747.465-3.665-5.756.747-.478 1.798 2.816.124-1.039.36-3.185.899-.56-.443 3.786 4.246 1.887-.899.56-3.471-1.572zm5.67-.232l3.167-1.108.249.684-3.997 1.367-2.309-6.37.83-.288 2.06 5.715zm37.462 20.779l-.456-2.734-3.001.479-.152-.875 6.804-1.08.663 4.101-.733.123-.525-3.267-2.323.369.442 2.802-.719.082zm.207 3.897l-.815-.807-2.324-.136v-.875l6.915.383v.888l-3.361-.191.789.697 2.337 2.133-.07 1.052-2.862-2.542-3.983 2.324v-1.053l3.374-1.873zm-3.097 4.689l-.912 3.199-.747-.205 1.161-4.102 6.611 1.86-.235.834-5.878-1.586zm-33.258 20.534l2.765.67.733-2.966.858.205-1.632 6.63-4.149-.998.18-.71 3.25.779.553-2.256-2.766-.67.208-.684zm-3.721-1.326l1.079-.438 1.051-2.064.802.396-3.042 6.098-.802-.397 1.479-2.98-.954.451-3.015 1.354-.954-.465 3.541-1.559-.581-4.552.954.465.442 3.69zm-3.139-4.648l-2.627-2.092.47-.574 3.277 2.625-4.273 5.304-.691-.533 3.844-4.73z" fill="#0029FF"/><circle cx="956.293" cy="43.765" r="16.859" stroke="#fff"/><circle cx="956.293" cy="43.764" r="12.331" stroke="#0029FF"/><circle r="4.028" transform="matrix(-1 0 0 1 971.388 19.613)" stroke="#fff"/><circle r="4.028" transform="matrix(-1 0 0 1 971.388 67.161)" stroke="#fff"/><circle r="4.028" transform="matrix(-1 0 0 1 927.613 46.784)" stroke="#fff"/><rect x="1060" width="62.156" height="62.156" rx="5" transform="rotate(45 1060 0)" fill="#001AA5"/><circle cx="1060.45" cy="44.406" r="16.859" stroke="#fff"/><circle cx="1060.45" cy="44.406" r="12.331" stroke="#0029FF"/><circle r="4.028" transform="matrix(-1 0 0 1 1060.02 13.544)" stroke="#fff"/><circle r="4.028" transform="matrix(-1 0 0 1 1060.02 73.272)" stroke="#fff"/><circle r="4.028" transform="matrix(-1 0 0 1 1090.45 43.971)" stroke="#fff"/><circle r="4.028" transform="matrix(-1 0 0 1 1028.47 43.971)" stroke="#fff"/><path d="M1040.78 30.2l-2.12 2.123 2.25 2.252-.65.654-5.1-5.098 3.13-3.13.55.552-2.47 2.476 1.74 1.744 2.12-2.122.55.55zm2.58-2.808l.08 1.212 1.72 1.723-.66.662-5.1-5.099.66-.662 2.49 2.49-.12-1.11-.38-3.369.79-.788.45 4.013 4.77.967-.79.788-3.91-.827zm5.63-2l2.5-2.493.55.55-3.14 3.141-5.1-5.098.65-.648 4.54 4.549z" fill="#0029FF"/><rect x="1122.95" y="4.508" width="77.759" height="77.759" rx="5" fill="#001AA5"/><path d="M1157.53 13.974h-3v3.184h-.93v-7.21h4.43v.782h-3.5v2.466h3v.778zm3.81-.163l-.8.91v2.437h-.94v-7.21h.94v3.52l.69-.87 2.12-2.65h1.11l-2.52 3.154 2.69 4.056h-1.11l-2.18-3.347zm5.4 2.57h3.52v.777h-4.44v-7.21h.92v6.433zm-9.21 57.321h-3v3.184h-.93v-7.21h4.43v.782h-3.5v2.466h3v.778zm3.81-.163l-.8.91v2.437h-.94v-7.21h.94v3.52l.69-.87 2.12-2.65h1.11l-2.52 3.154 2.69 4.056h-1.11l-2.18-3.347zm5.4 2.57h3.52v.777h-4.44v-7.21h.92v6.433z" fill="#0029FF"/><circle cx="1161.72" cy="43.279" r="16.859" stroke="#fff"/><circle cx="1161.72" cy="43.279" r="12.331" stroke="#0029FF"/><circle r="4.028" transform="matrix(-1 0 0 1 1131.99 13.544)" stroke="#fff"/><circle r="4.028" transform="matrix(-1 0 0 1 1191.71 13.544)" stroke="#fff"/><circle r="4.028" transform="matrix(-1 0 0 1 1131.99 73.272)" stroke="#fff"/><circle r="4.028" transform="matrix(-1 0 0 1 1191.71 73.272)" stroke="#fff"/></svg>