<svg width="239" height="239" fill="none" xmlns="http://www.w3.org/2000/svg"><path d="M119.511 222.022c56.615 0 102.511-45.896 102.511-102.511C222.022 62.896 176.126 17 119.511 17 62.896 17 17 62.896 17 119.511c0 56.615 45.896 102.511 102.511 102.511z" fill="#0029FF"/><path d="M238.5 119.5c0 65.722-53.278 119-119 119-65.722 0-119-53.278-119-119C.5 53.778 53.778.5 119.5.5c65.722 0 119 53.278 119 119z" stroke="#0029FF"/><path d="M102.99 51.214l-1.216.354-2.5-8.603-3.516 1.017 2.477 8.604-1.216.354-2.765-9.6 5.949-1.724 2.787 9.598zM113.915 45a8.87 8.87 0 010 1.106 4.417 4.417 0 01-.132 1.061 3.803 3.803 0 01-.332.996 3.837 3.837 0 01-.553.862 3.86 3.86 0 01-.818.62c-.341.165-.708.27-1.084.31a2.7 2.7 0 01-1.128 0 3.315 3.315 0 01-.951-.399 3.7 3.7 0 01-.752-.686 4.868 4.868 0 01-.487-.906 4.95 4.95 0 01-.398-.996 6.1 6.1 0 01-.221-1.061l-.155-1.128v-1.084c.018-.365.07-.728.155-1.084.064-.345.175-.68.332-.995.145-.316.339-.607.575-.862a2.97 2.97 0 011.88-.951 3.916 3.916 0 011.15 0c.333.08.648.222.929.42.286.186.54.418.752.685.229.269.422.566.575.885.165.326.298.666.398 1.017.105.347.179.702.221 1.062l.044 1.128zm-1.393-.973c0-.244 0-.487-.155-.752a4.54 4.54 0 00-.221-.73 7.164 7.164 0 00-.354-.708 2.896 2.896 0 00-.486-.553 1.683 1.683 0 00-.62-.331 1.592 1.592 0 00-.796 0 1.77 1.77 0 00-.752.243 1.693 1.693 0 00-.531.509 1.611 1.611 0 00-.331.64 3.04 3.04 0 00-.177.753 3.214 3.214 0 000 .796v.73l.154 1.15c.023.247.068.49.133.73.068.255.149.506.243.752.105.235.223.464.354.685.132.216.296.41.487.575a1.613 1.613 0 001.437.332 1.67 1.67 0 00.752-.243c.203-.132.382-.296.531-.487.137-.207.248-.43.332-.663.073-.246.125-.497.155-.752a4.81 4.81 0 000-.796v-.752l-.155-1.128zm13.204 2.433a4.422 4.422 0 01-.42 1.26 2.7 2.7 0 01-.73.973 2.897 2.897 0 01-1.039.62 3.612 3.612 0 01-1.305.176 3.514 3.514 0 01-1.128-.221 3.182 3.182 0 01-.885-.509 3.5 3.5 0 01-.641-.752 4.44 4.44 0 01-.443-.929 5.293 5.293 0 01-.243-1.061 8.87 8.87 0 010-1.106v-1.393c0-.366.045-.73.133-1.084a5.62 5.62 0 01.309-1.04c.142-.314.32-.611.531-.884.182-.278.414-.518.686-.708.279-.204.594-.354.929-.442a3.05 3.05 0 011.128-.133c.455.002.905.092 1.327.265.375.158.714.392.995.686.272.307.489.659.641 1.04.168.423.265.871.288 1.326h-1.261a4.882 4.882 0 00-.177-.862 2.76 2.76 0 00-.398-.708 1.858 1.858 0 00-.597-.486 2.473 2.473 0 00-.863-.2 2.211 2.211 0 00-.796.133 1.944 1.944 0 00-.619.376 2.333 2.333 0 00-.442.575 3.355 3.355 0 00-.288.708c-.08.245-.139.497-.177.752v2.942a5.04 5.04 0 000 .796c.058.243.139.48.243.708.116.252.273.484.465.685.156.183.353.327.575.42.248.12.521.181.796.177a1.838 1.838 0 001.526-.53c.179-.195.321-.42.42-.664.118-.268.2-.551.244-.84l1.216-.067zm7.873-5.928l.619 5.22 2.698-4.556 1.548.31-2.034 9.797-1.217-.243.796-3.915.929-4.07-2.72 4.889h-.818l-.62-5.485-.774 3.87-.708 3.826-1.216-.243 1.924-9.71 1.593.31zm15.172 10.241c-.137.34-.292.672-.465.995-.18.312-.388.608-.619.885a3.883 3.883 0 01-.752.73 3.007 3.007 0 01-.907.486 2.475 2.475 0 01-.995.177 3.562 3.562 0 01-1.128-.2 3.224 3.224 0 01-.973-.574 3.052 3.052 0 01-.641-.796 3.483 3.483 0 01-.354-.951 5.735 5.735 0 01-.111-1.062c.013-.364.057-.727.133-1.084.062-.355.158-.703.287-1.04l.398-1.06a5.01 5.01 0 01.465-.996c.173-.317.381-.614.619-.885.229-.265.48-.51.752-.73a3.01 3.01 0 01.907-.486 2.5 2.5 0 01.995-.2c.387.003.769.078 1.128.222.356.133.685.328.973.575.267.218.486.489.642.796.176.292.296.615.354.951.071.35.108.705.11 1.062a6.273 6.273 0 01-.133 1.084c-.072.352-.168.7-.287 1.039l-.398 1.062zm-.774-1.504c0-.244.155-.465.221-.73a4.511 4.511 0 00.133-1.548 1.993 1.993 0 00-.177-.708 1.778 1.778 0 00-.398-.597 2.016 2.016 0 00-.664-.42 2.211 2.211 0 00-.796-.133c-.239.022-.472.09-.686.199a1.902 1.902 0 00-.597.442c-.192.17-.363.364-.509.575a4.304 4.304 0 00-.398.686 4.393 4.393 0 00-.309.663l-.421 1.084-.199.708a4.7 4.7 0 00-.132.685 4.35 4.35 0 000 .775c.015.25.067.495.155.73.106.22.248.422.42.596.181.195.41.34.663.42.252.106.524.151.796.133.247-.021.487-.089.708-.199.201-.057.394-.139.575-.243a3.28 3.28 0 00.509-.597c.149-.211.282-.433.398-.664.111-.243.221-.464.31-.685l.398-1.172zm13.779 3.273l-2.699-1.526-4.423 7.763-1.084-.62 4.424-7.763-2.699-1.526.531-.95 6.458 3.67-.508.952zm2.854 8.006l-2.521 3.14-.996-.796 6.281-7.807 2.522 2.035c.338.267.63.588.862.951.232.331.391.708.465 1.106a3.12 3.12 0 01-1.637 3.185 2.63 2.63 0 01-1.128.265 3.228 3.228 0 01-1.194-.199 4.113 4.113 0 01-1.128-.641l-1.526-1.239zm.641-.796l1.548 1.216c.213.17.452.305.708.398.24.09.496.127.752.11.246-.02.486-.088.708-.198a2.35 2.35 0 00.619-.53c.188-.218.324-.475.398-.753.055-.24.055-.49 0-.73a1.686 1.686 0 00-.243-.708 3.033 3.033 0 00-.553-.64L167.66 56.7l-2.389 3.052zm14.862 7.21l.862.95-7.409 6.636-.862-.951 5.463-4.932-7.918 2.211-.863-.796 7.409-6.635.863.951-5.463 4.8 7.918-2.234zm7.697 12.474l-1.703-2.588-7.475 4.865-.664-1.039 7.476-4.866-1.681-2.587.907-.597 4.047 6.303-.907.508zm1.04 11.964l-1.571-3.826-3.251 1.438 1.991 4.423-.996.443-2.609-5.574 9.156-4.07 2.455 5.574-.995.443-1.947-4.424-2.941 1.305 1.703 3.804-.995.465zm.177 18.203l9.975-.996.287 2.964c.044.404.044.812 0 1.216-.065.38-.192.746-.376 1.084a2.216 2.216 0 01-.752.819 2.219 2.219 0 01-1.172.376 1.915 1.915 0 01-.708 0 3.107 3.107 0 01-.619-.266 3.189 3.189 0 01-.487-.442 3.348 3.348 0 01-.398-.575 2.475 2.475 0 01-.265.774 2.416 2.416 0 01-.443.619 3.418 3.418 0 01-.663.442 2.322 2.322 0 01-.818.199 2.601 2.601 0 01-1.261-.132 2.786 2.786 0 01-.951-.642 3.896 3.896 0 01-.664-.995 4.694 4.694 0 01-.309-1.216l-.376-3.229zm4.799.796l-3.583.354.177 1.946c.04.259.114.512.221.752.106.221.248.423.421.597.169.168.372.296.597.376.247.058.504.058.752 0 .256-.02.505-.095.73-.221.21-.112.392-.271.53-.464.135-.195.233-.412.288-.642a2.95 2.95 0 000-.774l-.133-1.924zm1.04 0l.177 1.769a2.4 2.4 0 00.177.686c.094.21.221.404.376.575.151.163.331.298.53.398.233.057.476.057.708 0a1.485 1.485 0 001.128-.708c.108-.208.183-.432.221-.663a2.625 2.625 0 000-.73l-.155-1.836-3.162.509zm4.554 15.791v1.261l-9.997-.597v-1.283l7.343.464-7.121-4.113v-1.283l9.996.619v1.261l-7.342-.443 7.121 4.114zm-14.596 11.523l.243-1.128 2.411.553 1.061-4.733-2.41-.553.221-1.039 3.472.575-.11.442c.101.26.26.495.464.686.268.242.566.449.885.619a9.81 9.81 0 001.327.575c.53.177 1.15.376 1.857.553l3.871 1.084-.973 4.423-8.847-1.946-.177.84-3.295-.951zm9.134-2.212a22.762 22.762 0 01-2.787-.928 6.627 6.627 0 01-1.835-1.084l-.664 2.941 7.741 1.748.42-1.925-2.875-.752zm-5.926 14.044l1.57-3.892-3.296-1.305-1.813 4.423-.995-.398 2.211-5.706 9.289 3.716-2.211 5.661-1.084-.331 1.791-4.424-2.985-1.194-1.549 3.893-.928-.443zm-6.283 11.213a8.066 8.066 0 01-.885-.641 6.288 6.288 0 01-.774-.774 4.411 4.411 0 01-.575-.863 3.117 3.117 0 01-.31-.973 2.637 2.637 0 010-1.017c.074-.373.209-.732.399-1.062.196-.33.451-.622.751-.862.265-.213.564-.378.885-.487a3.177 3.177 0 011.018-.177 4.2 4.2 0 011.039 0c.358.06.707.164 1.039.31.344.128.677.283.996.464l.973.575c.309.194.604.408.885.642.284.229.544.489.774.774.229.268.422.566.575.884.156.3.268.62.331.951.045.346.045.695 0 1.04a3.105 3.105 0 01-.42 1.039 3.554 3.554 0 01-.73.863 2.645 2.645 0 01-.906.509 3.968 3.968 0 01-.996.177 5.698 5.698 0 01-1.061 0 4.471 4.471 0 01-1.04-.332 6.817 6.817 0 01-.995-.465l-.973-.575zm1.636-.508c.212.135.434.254.664.354.236.107.48.196.73.265.251.083.511.135.774.155.242.033.488.033.73 0a1.764 1.764 0 001.194-.885c.146-.226.237-.484.265-.752a1.873 1.873 0 000-.708 2.205 2.205 0 00-.309-.663 3.262 3.262 0 00-.509-.597 4.382 4.382 0 00-.575-.531l-.686-.553-.973-.597-.663-.332a4.36 4.36 0 00-.752-.265l-.774-.155a2.704 2.704 0 00-.73 0 2.24 2.24 0 00-.664.287 1.77 1.77 0 00-.53.598 1.73 1.73 0 00-.266.752 2.076 2.076 0 000 .729c.072.228.176.444.31.642.144.213.307.412.486.597.188.189.388.366.598.531l.619.42 1.061.708zm-50.579 28.221l1.239-.287 2.079 8.714 3.583-.752-2.212-8.714 1.238-.288 2.212 9.732-6.038 1.437-2.101-9.842zm-11.147 5.706a8.894 8.894 0 010-1.083 5.85 5.85 0 01.177-1.084 3.72 3.72 0 01.398-.973c.153-.304.355-.58.597-.819a2.91 2.91 0 01.84-.597 3.28 3.28 0 011.106-.265 3.144 3.144 0 011.128 0c.328.088.636.238.907.442a4.083 4.083 0 011.261 1.637c.15.327.269.667.353 1.017.093.355.153.718.177 1.084v1.128c.023.361.023.723 0 1.084a8.455 8.455 0 01-.199 1.083 5.1 5.1 0 01-.376.973 3.77 3.77 0 01-.619.819 2.65 2.65 0 01-.84.597c-.34.161-.709.251-1.084.265-.373.07-.755.07-1.128 0a3.033 3.033 0 01-.929-.464 3.682 3.682 0 01-.73-.708 7.466 7.466 0 01-.531-.907 5.736 5.736 0 01-.331-1.039 6.415 6.415 0 01-.177-1.084v-1.106zm1.327 1.04v.752c.045.255.112.507.199.752.088.246.199.483.332.707.109.219.259.414.442.576.184.158.393.285.619.376.262.059.534.059.796 0a1.66 1.66 0 00.752-.222 1.58 1.58 0 00.553-.464 2.6 2.6 0 00.376-.641c.09-.237.156-.481.199-.73v-3.406a5.031 5.031 0 00-.221-.774 3.948 3.948 0 00-.31-.708 2.387 2.387 0 00-.464-.575 1.937 1.937 0 00-.619-.376 2.218 2.218 0 00-.796 0 1.87 1.87 0 00-.752.221 1.93 1.93 0 00-.553.464c-.15.172-.283.357-.398.553a4.17 4.17 0 00-.2.752 5 5 0 000 .774V194l.045 1.217zm-13.115-3.052c.095-.433.251-.85.465-1.239a3.19 3.19 0 01.774-.929 2.727 2.727 0 011.061-.553c.429-.133.88-.178 1.327-.132a4.05 4.05 0 011.106.265c.314.14.605.326.863.553.237.24.445.507.619.796.163.304.296.622.398.951.092.349.158.704.199 1.062a8.91 8.91 0 010 1.084v1.393a9.672 9.672 0 01-.199 1.106 4.919 4.919 0 01-.376.995c-.142.315-.32.611-.531.885a3.034 3.034 0 01-.752.663 2.966 2.966 0 01-.929.42 3.144 3.144 0 01-1.128 0 3.89 3.89 0 01-1.327-.331 3.523 3.523 0 01-.951-.73 3.049 3.049 0 01-.597-1.084 4.879 4.879 0 01-.243-1.327h1.283a2.72 2.72 0 00.132.863c.078.254.197.493.354.707.147.221.344.403.575.531.271.133.563.215.863.243.263.049.533.049.796 0a1.992 1.992 0 001.106-.906 3.98 3.98 0 00.332-.686c.089-.251.156-.511.199-.774v-.752l.11-1.393a4.35 4.35 0 000-.774 3.22 3.22 0 000-.797 4.43 4.43 0 00-.199-.73 2.208 2.208 0 00-.376-.619c-.141-.2-.331-.36-.553-.464a2.191 2.191 0 00-.796-.199 2.194 2.194 0 00-.862 0c-.25.078-.477.215-.664.398a2.81 2.81 0 00-.464.641 3.918 3.918 0 00-.288.818l-1.327.045zm-8.14 5.573l-.354-5.242-2.92 4.424-1.547-.376 2.432-9.71 1.195.288-.973 3.87-1.106 4.026 3.096-4.778.708.177.376 5.507.885-3.936.951-3.871 1.216.288-2.455 9.709-1.504-.376zM87.11 186.79c.143-.33.313-.648.508-.951.196-.3.41-.588.642-.862.238-.265.505-.502.796-.708.291-.183.603-.332.929-.442a3.6 3.6 0 01.995-.133c.38.027.754.117 1.106.265.35.151.671.361.95.62.257.231.466.509.62.818.136.313.24.639.31.973.033.353.033.709 0 1.062-.02.358-.071.713-.155 1.061a7.16 7.16 0 01-.332 1.04l-.464 1.039c-.139.34-.31.666-.509.973a4.832 4.832 0 01-1.438 1.549 3.666 3.666 0 01-.928.464 2.585 2.585 0 01-1.018.133c-.38-.03-.753-.12-1.106-.266a3.207 3.207 0 01-.95-.619 2.7 2.7 0 01-.598-.818 2.943 2.943 0 01-.31-.973 4.222 4.222 0 010-1.062 5.9 5.9 0 01.177-1.062c.084-.354.195-.702.332-1.039l.442-1.062zm.685 1.571c0 .221-.155.442-.243.707a7.525 7.525 0 00-.177.752 4.426 4.426 0 000 .774c-.003.497.178.978.509 1.349.181.2.41.352.663.443a1.87 1.87 0 001.482 0c.212-.112.412-.246.597-.398a4.37 4.37 0 00.53-.575c.168-.2.316-.414.443-.642a7.01 7.01 0 00.332-.663l.464-1.062c0-.221.155-.464.244-.708a4.42 4.42 0 00.154-.774 2.984 2.984 0 000-.774 2.015 2.015 0 00-.509-1.349 1.657 1.657 0 00-.663-.442 2.049 2.049 0 00-.774-.177 1.868 1.868 0 00-.707.177 2.217 2.217 0 00-.62.398 4.258 4.258 0 00-.508.575 4.122 4.122 0 00-.443.641 6.407 6.407 0 00-.332.686l-.442 1.062zm-13.622-3.915l2.632 1.659 4.733-7.653 1.061.664-4.755 7.541 2.61 1.659-.575.907-6.281-3.937.575-.84zm-2.433-8.206l2.631-3.03.974.841-6.635 7.52-2.433-2.212a4.421 4.421 0 01-.819-.995 3.367 3.367 0 01-.42-1.128 3.01 3.01 0 010-1.172c.13-.425.35-.816.642-1.151a2.858 2.858 0 011.039-.774c.362-.16.755-.235 1.15-.221.406.001.806.092 1.172.266.407.16.781.393 1.106.685l1.593 1.371zm-.686.775l-1.504-1.305a2.502 2.502 0 00-.686-.421 1.77 1.77 0 00-.752-.154 1.827 1.827 0 00-1.349.685 2.215 2.215 0 00-.442.708 2.37 2.37 0 00.243 1.482c.136.238.308.454.509.641l1.482 1.305 2.499-2.941zm-14.576-7.874l-.796-.973 7.763-6.369.796.995-5.728 4.6 8.028-1.858.796.973-7.719 6.37-.796-.995 5.684-4.49-8.028 1.747zm-7.1-12.806l1.57 2.676 7.697-4.423.62 1.062-7.697 4.423 1.57 2.676-.929.553-3.76-6.414.93-.553zm-.486-11.987l1.526 3.892 3.296-1.282-1.77-4.556 1.017-.376 2.212 5.706-9.31 3.649-2.213-5.684 1.018-.398 1.747 4.423 2.986-1.172-1.438-3.826.93-.376zm.664-18.091l-9.974.53-.177-2.963a5.54 5.54 0 010-1.217 3.55 3.55 0 01.42-1.083c.2-.311.464-.575.774-.774a2.507 2.507 0 011.194-.332c.241-.046.489-.046.73 0 .202.073.395.17.575.287.188.126.353.283.487.465.139.186.257.386.354.597.062-.266.167-.519.31-.752.118-.231.284-.434.486-.597.198-.173.422-.315.663-.42.26-.106.538-.166.819-.177a2.9 2.9 0 011.26.199c.354.161.67.395.93.685.269.305.479.658.618 1.04.136.394.225.802.266 1.216l.265 3.296zm-5.794-.885v-1.769a2.39 2.39 0 00-.155-.686 1.92 1.92 0 00-.332-.597 1.947 1.947 0 00-.53-.42 1.372 1.372 0 00-.686 0c-.252-.012-.5.058-.708.199a1.28 1.28 0 00-.465.442 2.042 2.042 0 00-.243.641 4.064 4.064 0 000 .73l.11 1.747 3.009-.287zm1.061 0l3.605-.177-.11-2.035a2.886 2.886 0 00-.177-.752 1.774 1.774 0 00-.398-.597 1.837 1.837 0 00-.575-.42 2.035 2.035 0 00-1.504 0 1.69 1.69 0 00-.84 1.062 2.21 2.21 0 00-.111.774l.11 2.145zm-4.888-16.211l.133-1.261 9.952 1.062-.132 1.26-7.343-.774 6.944 4.423-.132 1.261-9.953-1.062.133-1.26 7.343.796-6.945-4.445zm15.15-10.904l-.31 1.106-2.388-.531-1.283 4.667 2.389.663-.288 1.04-3.428-.752.11-.421c-.094-.26-.236-.5-.42-.707a4.19 4.19 0 00-.862-.664c-.422-.24-.858-.454-1.305-.641l-1.814-.642-3.826-1.26 1.172-4.424 8.648 2.367.243-.84 3.362 1.039zm-9.245 1.769c.94.286 1.856.641 2.743 1.062.651.288 1.25.684 1.769 1.172l.818-2.964-7.63-2.211-.53 1.902 2.83 1.039zm6.546-13.69L50.64 90.14l3.23 1.46 2.034-4.424.973.465-2.543 5.573-9.112-4.136 2.521-5.529.995.442-1.99 4.424 2.92 1.327 1.724-3.804.995.398zM59.2 75.432c.294.202.575.424.84.664.266.244.51.51.73.796.213.284.398.588.553.907.129.312.218.639.265.973.055.344.055.695 0 1.04a3.87 3.87 0 01-.464 1.039 3.054 3.054 0 01-.775.818 3.142 3.142 0 01-.906.443c-.327.11-.673.155-1.018.132a4.424 4.424 0 01-1.061-.132 6.195 6.195 0 01-1.018-.354 6.479 6.479 0 01-.95-.509l-.952-.641a6.234 6.234 0 01-1.592-1.46 4.225 4.225 0 01-.53-.907 3.383 3.383 0 01-.288-.995 2.654 2.654 0 010-1.017c.088-.373.246-.725.464-1.04.21-.32.472-.604.774-.84.277-.196.583-.345.907-.443a3.892 3.892 0 011.017-.132c.358.019.714.07 1.062.154a4.68 4.68 0 011.017.354c.327.152.644.322.951.51l.973.64zm-1.66.398l-.663-.353a4.048 4.048 0 00-.708-.31 3.344 3.344 0 00-.752-.177 2.212 2.212 0 00-.752 0 1.902 1.902 0 00-.663.266c-.233.136-.43.325-.575.552a1.969 1.969 0 00-.288.752 2.542 2.542 0 000 .708c.064.241.16.472.288.686.135.22.29.428.464.619.181.195.373.38.575.553l.575.442.974.642.641.354c.235.121.479.225.73.31.245.079.497.138.752.176.286.09.587.12.885.089a1.91 1.91 0 00.663-.266 1.92 1.92 0 00.575-.553 1.88 1.88 0 00.287-.752 1.525 1.525 0 000-.707 2.655 2.655 0 00-.287-.686 4.115 4.115 0 00-.464-.62 4.428 4.428 0 00-.774-.619 5.473 5.473 0 00-.598-.464l-.884-.641zm14.796-13.292l-2.809-2.808 3.605-.775 3.583-.796-.796 3.583-.774 3.605-2.809-2.809zm93.356 115.671l2.808 2.787-3.605.796-3.583.796.797-3.605.796-3.583 2.787 2.809zm-59.848-58.72V99.23l15.857 10.13 15.88 10.129-15.88 10.152-15.857 10.129v-20.281z" fill="#fff"/></svg>