<svg width="37" height="32" fill="none" xmlns="http://www.w3.org/2000/svg"><path d="M35.824 11.086a.401.401 0 00-.355-.004L23.143 17.1v-5.743a.308.308 0 00-.17-.267.396.396 0 00-.347-.014l-13.769 6.05V1.314C8.857 1.14 8.697 1 8.5 1H1.357C1.16 1 1 1.14 1 1.314v30.129c0 .173.16.314.357.314h34.286c.197 0 .357-.14.357-.314V11.357a.31.31 0 00-.176-.27zm-.538 20.043H1.714V1.628h6.429v16.006c0 .108.064.21.17.267a.4.4 0 00.346.013l13.77-6.05v5.77a.31.31 0 00.175.27.4.4 0 00.355.005l12.327-6.019v19.24z" fill="#0029FF" stroke="#0029FF" stroke-width=".4"/><path d="M17.072 22.34c-.197 0-.357.141-.357.315v3.766c0 .173.16.314.357.314.197 0 .357-.14.357-.314v-3.766c0-.174-.16-.314-.357-.314zm11.43 4.395c.197 0 .357-.14.357-.314v-3.766c0-.174-.16-.314-.357-.314-.197 0-.357.14-.357.314v3.766c0 .173.16.314.357.314zM11.357 22.34c-.197 0-.357.141-.357.315v3.766c0 .173.16.314.357.314.197 0 .357-.14.357-.314v-3.766c0-.174-.16-.314-.357-.314zm11.073.315v3.766c0 .173.16.314.357.314.197 0 .357-.14.357-.314v-3.766c0-.174-.16-.314-.357-.314-.197 0-.357.14-.357.314z" fill="#0029FF" stroke="#0029FF" stroke-width=".4"/></svg>