<svg width="154" height="42" fill="none" xmlns="http://www.w3.org/2000/svg"><path d="M22.959 10.153h4.417l6.162.004.334.002c1.748.02 4.474.05 5.853-3.802L42 0 27.446.002C19.568.003 13.424 2.727 8.989 7.235 1.344 15.007-1.29 27.14.576 32.956c1.724 5.375 6.512 8.916 13.931 8.987l5.8.057 7.13-.001 1.757-5.09c1.274-3.695-1.604-5.065-5.482-5.065H16.99c-10.463.004-2.88-21.686 5.97-21.69zm31.418-.037l5.873.002c5.004.002 3.862 6.05 1.33 11.946-2.232 5.196-6.187 9.781-10.906 9.78h-9.791c-3.905 0-5.706 1.042-6.466 3.22L32 41.999l7.18.001 7.018-.057c6.224-.05 11.32-.485 17.279-5.668C69.773 30.8 77.115 16.576 75.858 8.35 74.873 1.903 71.293.003 62.626.002L46.832 0l-9.196 26.05 5.93.006c3.42.005 5.151.007 6.986-4.771l3.825-11.169zM113.076.003l-9.549-.001L89.077 0c-3.971 0-5.773 1.042-6.483 3.222l-2.259 6.934 23.998.002c3.972 0 5.774-1.042 6.484-3.22l2.259-6.935zm-5.57 15.921c-6.897-.002-17.102-.003-23.998-.003-3.972 0-5.774 1.042-6.484 3.222l-2.259 6.933c6.897.002 17.101.003 23.998.003 3.972 0 5.774-1.042 6.484-3.22l2.259-6.935zM77.665 31.842c6.896 0 17.1 0 23.997.002l-2.259 6.934C98.693 40.958 96.891 42 92.92 42c-4.217 0-9.671 0-14.85-.002h-9.148l2.259-6.936c.71-2.178 2.511-3.22 6.484-3.22zM114.944 42H104l14.737-42h10.945l-6.301 18.072h.127c1.303-1.58 2.602-2.935 3.89-4.278l.558-.582L140.575 0H154l-20.788 18.555L141.856 42h-8.379c-2.674 0-3.9-1.62-5.091-5.313l-3.851-11.948-4.889 4.05L114.944 42z" fill="#0029FF"/></svg>