<svg width="81" height="46" fill="none" xmlns="http://www.w3.org/2000/svg"><path fill-rule="evenodd" clip-rule="evenodd" d="M12.566 35.556h.083A4.45 4.45 0 0117.092 40a4.45 4.45 0 01-4.444 4.444A4.45 4.45 0 018.205 40a4.45 4.45 0 014.328-4.443h.034zM.684 40.684h6.192a5.82 5.82 0 005.772 5.128 5.82 5.82 0 005.772-5.128h44.866a5.82 5.82 0 005.772 5.128 5.82 5.82 0 005.772-5.128h4.488A.684.684 0 0080 40V27.977c0-6.943-5.649-12.592-12.592-12.592h-8.604a.684.684 0 00-.684.683v23.248h-8.89V.684A.684.684 0 0048.547 0H.684A.684.684 0 000 .684V40c0 .378.306.684.684.684zm47.18-1.368V1.368H1.367v37.948h5.508a5.82 5.82 0 015.718-5.128h.056a5.82 5.82 0 015.772 5.128h29.441zm17.75-8.889h8.546a.684.684 0 00.684-.683c0-5.09-4.14-9.231-9.23-9.231a.684.684 0 00-.684.684v8.547c0 .377.306.683.683.683zm7.833-1.367h-7.15v-7.15a7.876 7.876 0 017.15 7.15zM64.617 40c0 .02-.001.042-.003.062a4.45 4.45 0 004.444 4.383A4.45 4.45 0 0073.502 40a4.45 4.45 0 00-4.42-4.444h-.02A4.45 4.45 0 0064.616 40zm-5.128-.684h3.8a5.82 5.82 0 015.772-5.128 5.82 5.82 0 015.772 5.128h3.8V27.977c0-6.19-5.035-11.225-11.224-11.225h-7.92v22.564zM34.87 13.333H16.067a.684.684 0 110-1.367H34.87a.684.684 0 010 1.367zM12.65 23.59h18.803a.684.684 0 100-1.368H12.65a.684.684 0 000 1.368z" fill="#0029FF"/></svg>