<svg width="64" height="43" fill="none" xmlns="http://www.w3.org/2000/svg"><path fill-rule="evenodd" clip-rule="evenodd" d="M13.805 0v17.922h20.737V0H13.805zm8.24 1.373h4.257v3.502h-4.257V1.373zM33.169 16.55H15.18V1.373h5.493V6.25h7.004V1.373h5.493V16.55zm24.279 24.27a6.111 6.111 0 01-4.16 1.617 6.111 6.111 0 01-6.112-5.63H25.477a6.111 6.111 0 11-12.223 0H9.34V21.63h29.596V8.858H52.19l11.674 13.185L64 36.806h-4.6a6.112 6.112 0 01-1.952 4.014zm-7.51-1.144a4.738 4.738 0 106.7-6.701 4.738 4.738 0 00-6.7 6.701zm-9.629-16.672H10.713v12.429h2.61a6.112 6.112 0 0112.085 0h21.837a6.112 6.112 0 0112.086 0h3.296l-.138-12.841-10.918-12.36H40.309v12.772zM16.733 40.265a4.738 4.738 0 105.265-7.88 4.738 4.738 0 00-5.265 7.88zm27.56-26.05h5.15l7.485 8.789H44.293v-8.79zm4.532 1.373h-3.159v6.043h8.31l-5.15-6.043zM2.54 2.06h6.798v1.373H2.54V2.06zm6.869 6.386H0V9.82h9.408V8.446zM2.54 14.901h6.798v1.373H2.54v-1.373z" fill="#0029FF"/></svg>