<svg width="41" height="49" fill="none" xmlns="http://www.w3.org/2000/svg"><path d="M40.087 47.96L34.03 33.576h5.172a.628.628 0 00.627-.628v-4.32a.628.628 0 00-.627-.627h-6.574c.018-.03.04-.057.056-.087a2.59 2.59 0 00-.055-2.653l-6.351-10.325a6.68 6.68 0 01-.991-3.502V1.793c0-.713-.58-1.292-1.292-1.292h-7.716c-.713 0-1.293.58-1.293 1.292v9.642a6.68 6.68 0 01-.99 3.5L7.645 25.26a2.59 2.59 0 00-.056 2.653c.017.03.038.057.056.087H1.072a.628.628 0 00-.628.627v4.32c0 .347.28.628.628.628h5.172L.186 47.96a.627.627 0 101.157.487l6.263-14.873h25.061l6.263 14.873a.628.628 0 101.157-.487zM16.242 11.435l.037-9.679 7.753.037v9.642c0 1.107.231 2.196.675 3.202h-9.14a7.932 7.932 0 00.675-3.202zM8.714 25.918l6.167-10.027h10.511l6.168 10.027c.263.428.273.944.029 1.382-.245.438-.69.7-1.193.7H9.877a1.35 1.35 0 01-1.192-.7 1.35 1.35 0 01.029-1.382zm24.368 6.401H1.7v-3.064h36.875v3.064h-5.492z" fill="#0029FF"/></svg>