<svg width="48" height="48" fill="none" xmlns="http://www.w3.org/2000/svg"><circle r="23.5" transform="matrix(-1 0 0 1 24 24)" stroke="#0029FF"/><path d="M28.843 42.805l-1.99.403-.092-.457.723-.146-.493-2.433-.723.147-.092-.455 1.989-.403.092.454-.708.144.494 2.432.707-.143.093.457zm-5.396-2.086a.426.426 0 00.042.215c.03.064.074.121.135.17.058.05.13.095.214.133.082.04.173.077.271.111.133.046.263.1.391.165.127.063.24.14.34.227.097.089.175.19.234.304a.789.789 0 01.075.393.816.816 0 01-.113.39.936.936 0 01-.269.284c-.11.077-.236.133-.379.17a1.471 1.471 0 01-.898-.054 1.134 1.134 0 01-.365-.231.99.99 0 01-.315-.766l.562.027a.781.781 0 00.045.236.517.517 0 00.297.32c.073.031.16.05.258.054a.804.804 0 00.235-.022.561.561 0 00.192-.087.445.445 0 00.183-.346.361.361 0 00-.05-.21.595.595 0 00-.153-.16 1.166 1.166 0 00-.22-.126 4.125 4.125 0 00-.262-.099 2.721 2.721 0 01-.4-.176 1.418 1.418 0 01-.331-.239.987.987 0 01-.22-.31.854.854 0 01-.068-.396.813.813 0 01.115-.396.885.885 0 01.272-.278 1.19 1.19 0 01.383-.16 1.674 1.674 0 01.757.008 1.359 1.359 0 01.548.268c.078.065.146.138.203.218a.999.999 0 01.167.597l-.565-.027a.735.735 0 00-.055-.272.572.572 0 00-.353-.324.978.978 0 00-.514-.032.606.606 0 00-.197.08.448.448 0 00-.135.142.427.427 0 00-.057.199zM8.029 34.542l-1.032-1.748.402-.237.375.636 2.138-1.261-.376-.636.4-.236 1.032 1.748-.4.236-.367-.622-2.137 1.262.367.621-.402.237zm-.167-6.56a.427.427 0 00-.19.11.49.49 0 00-.118.183.92.92 0 00-.055.245c-.01.091-.016.19-.016.294 0 .14-.009.28-.027.423-.02.14-.054.272-.104.394a1.083 1.083 0 01-.211.321.788.788 0 01-.347.2.814.814 0 01-.404.02.936.936 0 01-.358-.16 1.18 1.18 0 01-.284-.303 1.475 1.475 0 01-.243-.867c.008-.152.04-.292.1-.42a.992.992 0 01.242-.337.961.961 0 01.378-.211l.158.54a.78.78 0 00-.209.12.517.517 0 00-.204.384.739.739 0 00.033.262.802.802 0 00.097.215.56.56 0 00.145.153.443.443 0 00.386.06.36.36 0 00.184-.117.596.596 0 00.1-.196c.024-.075.04-.158.048-.248.005-.091.008-.185.008-.28 0-.15.012-.294.035-.436a1.42 1.42 0 01.118-.392.988.988 0 01.221-.309.854.854 0 01.352-.193.813.813 0 01.411-.021.883.883 0 01.352.165c.105.082.197.185.276.31a1.673 1.673 0 01.24.718 1.36 1.36 0 01-.074.605 1.125 1.125 0 01-.14.264.999.999 0 01-.509.353l-.16-.542a.735.735 0 00.24-.141.572.572 0 00.191-.44.98.98 0 00-.138-.497.606.606 0 00-.14-.159.448.448 0 00-.178-.082.427.427 0 00-.206.012zm-1.135-4.578c.201-.007.396.011.584.055.186.045.352.116.498.214.144.096.262.22.352.37.088.15.137.329.144.535a1.08 1.08 0 01-.428.93 1.586 1.586 0 01-.481.247c-.183.057-.374.09-.576.097l-.436.016a1.98 1.98 0 01-.76-.105 1.58 1.58 0 01-.319-.154 1.111 1.111 0 01-.257-.224 1.095 1.095 0 01-.246-.671 1.1 1.1 0 01.43-.943c.137-.108.297-.192.481-.25.184-.06.377-.092.578-.1l.436-.017zm-.419.581a2.417 2.417 0 00-.38.05 1.142 1.142 0 00-.333.123.662.662 0 00-.234.215.52.52 0 00-.081.322c.004.127.04.231.105.313.064.08.147.144.25.19.101.045.215.075.343.09.125.014.252.02.38.016l.44-.017c.129-.006.255-.022.381-.047.124-.025.236-.064.336-.116a.682.682 0 00.236-.208.517.517 0 00.081-.32.521.521 0 00-.105-.315.682.682 0 00-.252-.197 1.127 1.127 0 00-.344-.095 2.419 2.419 0 00-.383-.02l-.44.016zM8.68 12.367l1.314-1.547.356.302-.478.563 1.89 1.607.48-.562.353.3-1.315 1.547-.353-.3.467-.55-1.891-1.608-.468.55-.355-.302zm6.145-2.304a.426.426 0 00-.165-.144.49.49 0 00-.212-.05.92.92 0 00-.25.028 2.58 2.58 0 00-.283.08 3.202 3.202 0 01-.408.113c-.14.028-.275.039-.407.03a1.082 1.082 0 01-.373-.094.788.788 0 01-.302-.262.814.814 0 01-.152-.375.936.936 0 01.036-.39c.04-.129.103-.251.193-.368a1.474 1.474 0 01.74-.513c.146-.043.289-.057.429-.044.14.012.273.051.398.12a.962.962 0 01.323.287l-.458.327a.78.78 0 00-.182-.159.517.517 0 00-.43-.067.739.739 0 00-.237.116.803.803 0 00-.172.163.561.561 0 00-.097.187.445.445 0 00.07.385.36.36 0 00.17.135.6.6 0 00.219.031c.079-.002.162-.015.25-.037.088-.024.177-.052.268-.084.14-.048.281-.084.423-.109a1.42 1.42 0 01.408-.017c.13.013.252.05.365.109a.844.844 0 01.297.268.81.81 0 01.155.382.884.884 0 01-.042.386 1.19 1.19 0 01-.202.363 1.677 1.677 0 01-.6.462 1.36 1.36 0 01-.596.128 1.124 1.124 0 01-.295-.046 1 1 0 01-.268-.134 1.014 1.014 0 01-.232-.232l.46-.328c.066.08.137.14.212.18a.57.57 0 00.478.037.977.977 0 00.424-.293.604.604 0 00.105-.184.448.448 0 00.019-.195.427.427 0 00-.079-.192zm3.955-2.569c.073.188.12.378.139.57.018.19.005.37-.039.54-.044.168-.122.32-.236.454a1.116 1.116 0 01-.457.311 1.081 1.081 0 01-1.02-.1 1.587 1.587 0 01-.39-.374 2.204 2.204 0 01-.28-.513l-.158-.406a1.973 1.973 0 01-.15-.752c.002-.122.015-.24.042-.353.027-.114.07-.22.128-.316a1.093 1.093 0 01.554-.452 1.1 1.1 0 011.032.099c.147.093.278.217.393.372.116.155.21.326.284.514l.158.406zm-.687-.206a2.408 2.408 0 00-.17-.343 1.144 1.144 0 00-.226-.275.662.662 0 00-.28-.15.521.521 0 00-.33.029.517.517 0 00-.262.202.66.66 0 00-.098.297c-.009.11 0 .229.027.354.028.123.065.245.11.365l.16.41c.048.12.104.234.169.345.064.109.137.202.22.279a.68.68 0 00.273.155.517.517 0 00.33-.028.52.52 0 00.262-.203.683.683 0 00.104-.302c.012-.112.004-.23-.023-.356a2.412 2.412 0 00-.106-.368l-.16-.41zM29.849 5.73l1.891.736-.169.435-.688-.268-.9 2.313.688.268-.169.432-1.891-.736.168-.432.673.261.9-2.312-.672-.262.169-.435zm4.187 5.054a.427.427 0 00.081-.204.49.49 0 00-.02-.216.916.916 0 00-.11-.228 2.573 2.573 0 00-.168-.24 3.215 3.215 0 01-.24-.35 1.587 1.587 0 01-.162-.374 1.082 1.082 0 01-.032-.383.787.787 0 01.149-.371.815.815 0 01.305-.266.935.935 0 01.38-.095c.134-.004.27.016.41.062a1.475 1.475 0 01.727.532c.088.124.149.255.182.391a.99.99 0 01-.149.815l-.458-.326a.78.78 0 00.09-.224.518.518 0 00-.077-.429.739.739 0 00-.188-.185.801.801 0 00-.21-.11.56.56 0 00-.208-.03.444.444 0 00-.34.192.36.36 0 00-.072.205c0 .07.013.143.041.217.028.074.067.148.117.224.052.075.108.15.167.226.092.116.172.238.241.364.07.125.12.252.15.38.03.127.036.254.017.38a.853.853 0 01-.157.37.813.813 0 01-.31.27.883.883 0 01-.379.087 1.19 1.19 0 01-.409-.072 1.675 1.675 0 01-.633-.416 1.358 1.358 0 01-.316-.522 1.126 1.126 0 01-.053-.294.98.98 0 01.183-.592l.46.328a.736.736 0 00-.1.259.572.572 0 00.12.463.979.979 0 00.417.305c.071.026.14.04.208.04a.45.45 0 00.19-.046.427.427 0 00.156-.137zm3.721 2.896a2.158 2.158 0 01-.493.318c-.174.08-.348.127-.523.14a1.143 1.143 0 01-.507-.074 1.115 1.115 0 01-.443-.33 1.081 1.081 0 01-.239-.997c.044-.168.12-.332.226-.49.108-.158.24-.302.393-.433l.332-.282a2.063 2.063 0 01.661-.387 1.58 1.58 0 01.348-.076 1.1 1.1 0 01.34.017 1.094 1.094 0 01.609.375 1.1 1.1 0 01.244 1.008c-.04.17-.115.334-.223.494-.108.16-.24.305-.393.435l-.332.283zm-.03-.715c.097-.084.186-.176.268-.274.083-.099.145-.2.186-.303a.662.662 0 00.05-.313.522.522 0 00-.134-.304.517.517 0 00-.277-.18.66.66 0 00-.313.004 1.22 1.22 0 00-.325.142c-.108.066-.21.14-.31.222l-.335.286a2.599 2.599 0 00-.27.272 1.254 1.254 0 00-.192.299.681.681 0 00-.057.31.517.517 0 00.133.301.521.521 0 00.278.183c.104.024.21.024.32-.001.11-.026.219-.072.328-.138a2.41 2.41 0 00.314-.22l.336-.286zm5.317 10.599l-.077 2.029-.466-.018.028-.738-2.48-.095-.028.738-.464-.017.077-2.029.464.018-.028.721 2.48.095.028-.721.466.017zm-3.406 5.61a.427.427 0 00.219.01.49.49 0 00.197-.09.921.921 0 00.18-.178c.058-.07.115-.15.172-.237.075-.118.159-.232.251-.342.092-.108.193-.2.301-.275a1.08 1.08 0 01.351-.156.787.787 0 01.4.02.814.814 0 01.351.2.935.935 0 01.214.33c.048.124.073.26.076.407a1.478 1.478 0 01-.265.86 1.133 1.133 0 01-.31.3.991.991 0 01-.387.153.962.962 0 01-.432-.027l.158-.54a.78.78 0 00.241.013.515.515 0 00.38-.213.74.74 0 00.114-.238.802.802 0 00.035-.234.56.56 0 00-.04-.207.446.446 0 00-.293-.26.361.361 0 00-.217 0 .596.596 0 00-.19.11c-.061.05-.12.112-.175.184-.054.073-.107.15-.158.232-.08.124-.17.24-.266.347a1.419 1.419 0 01-.31.265.99.99 0 01-.353.14.854.854 0 01-.4-.027.813.813 0 01-.358-.205.885.885 0 01-.206-.329 1.19 1.19 0 01-.065-.41 1.678 1.678 0 01.186-.734 1.357 1.357 0 01.39-.47c.08-.06.167-.11.26-.146.093-.034.19-.054.293-.06.105-.005.213.008.326.04l-.16.541a.734.734 0 00-.277-.01.573.573 0 00-.398.266.978.978 0 00-.152.493.606.606 0 00.03.21c.025.064.06.119.106.165a.43.43 0 00.18.102zm-1.521 4.464a2.169 2.169 0 01-.461-.362 1.524 1.524 0 01-.304-.45 1.141 1.141 0 01-.095-.502c.006-.174.062-.35.166-.527a1.081 1.081 0 01.865-.551c.173-.014.352.004.537.053.184.05.363.127.537.23l.375.221a1.996 1.996 0 01.583.499c.074.097.136.198.185.303.05.107.081.216.095.328a1.096 1.096 0 01-.156.697 1.1 1.1 0 01-.872.56 1.495 1.495 0 01-.54-.049 2.163 2.163 0 01-.54-.229l-.375-.221zm.666-.263c.112.064.227.119.347.164.12.046.236.071.347.077a.66.66 0 00.313-.055.521.521 0 00.242-.227.518.518 0 00.08-.32.66.66 0 00-.106-.294 1.219 1.219 0 00-.24-.262 2.799 2.799 0 00-.312-.22l-.38-.223a2.625 2.625 0 00-.345-.166 1.253 1.253 0 00-.345-.084.68.68 0 00-.311.048.517.517 0 00-.242.225.522.522 0 00-.081.322c.01.106.045.206.105.301.06.096.14.184.238.266.098.083.201.158.311.224l.38.224zM19.312 40.7c.04-.198.104-.383.19-.555a1.54 1.54 0 01.326-.434c.127-.117.275-.202.443-.254.167-.05.351-.056.553-.015a1.08 1.08 0 01.804.637c.07.159.112.334.126.525.012.19-.002.385-.042.582l-.087.428a2.335 2.335 0 01-.11.379c-.048.12-.105.232-.17.334a1.58 1.58 0 01-.226.274 1.112 1.112 0 01-.279.197 1.096 1.096 0 01-.71.081 1.1 1.1 0 01-.814-.64 1.496 1.496 0 01-.13-.527 2.11 2.11 0 01.04-.585l.086-.427zm.466.544a2.413 2.413 0 00-.042.381c-.003.129.01.246.041.353.03.108.082.2.154.277.07.078.169.13.294.156a.517.517 0 00.329-.03.662.662 0 00.243-.196c.067-.089.124-.193.169-.313.043-.119.078-.24.105-.366l.087-.432c.024-.126.039-.253.044-.38a1.252 1.252 0 00-.033-.354.681.681 0 00-.147-.279.516.516 0 00-.292-.155.52.52 0 00-.33.029.684.684 0 00-.251.198c-.07.088-.128.191-.173.311-.047.12-.084.243-.11.368l-.088.432z" fill="#0029FF"/></svg>