<svg width="111" height="23" fill="none" xmlns="http://www.w3.org/2000/svg"><g clip-path="url(#clip0)" fill="#0029FF"><path d="M15.2 22.846l.748-1.373v1.373H15.2zm.748-9.219V15l-.748-1.373h.748zm-6.043 6.908c.24-.24.464-.481.671-.721a9.34 9.34 0 001.041-1.578 8.277 8.277 0 01-.721-1.644 7.347 7.347 0 01-.2-.849 6.037 6.037 0 01-.096-.841 6.41 6.41 0 01.082-1.404c.078.03.158.052.24.067a.243.243 0 00.082.02 6.605 6.605 0 00.4 2.346c.398.771.831 1.536 1.245 2.305-.423.767-.827 1.54-1.267 2.304-.299.385-.621.752-.964 1.098a11.77 11.77 0 01-1.155.996c-.146-.022-.29-.06-.437-.096a10.27 10.27 0 01-1.202-.352 10.211 10.211 0 001.512-.978c.27-.208.528-.432.77-.673z"/><path d="M11.348 22.412a.859.859 0 00.063-.072l.038-.07.315-.576.628-1.152 1.257-2.306-1.257-2.305-.628-1.152-.315-.577-.038-.07c0-.026-.012-.05-.02-.074l-.028-.15a6.116 6.116 0 01-.046-.29h.834l2.515 4.618-2.515 4.604h-1.197l.267-.276.127-.152z"/><path d="M13.168 22.845l2.513-4.609-2.513-4.609h1.015l1.764 3.237v2.745l-1.764 3.236h-1.015zM7.756 17.17a7.119 7.119 0 011.88-4.444c.068.09.142.176.221.257a7.1 7.1 0 00-1.202 4.672 9.425 9.425 0 01-5.328 1.844 12.02 12.02 0 01-1.103-1.294 9.409 9.409 0 005.532-1.036z"/><path d="M10.098 13.192a.66.66 0 00.134.094c.051.024.092.062.14.084a6.793 6.793 0 00-.308 2.486c.02.289.056.576.108.86.044.25.102.495.176.736.072.24.156.481.252.721-.151.207-.312.414-.48.618-.175.208-.36.404-.558.59-.24.218-.481.432-.748.641a10.323 10.323 0 01-2.758 1.479c-.252-.132-.48-.284-.735-.43a6.956 6.956 0 01-.7-.481 9.376 9.376 0 004.996-2.602 7.068 7.068 0 01.48-4.796zM2.354 15.77c1.27.31 2.592.335 3.873.074a7.278 7.278 0 011.96-2.885 6.76 6.76 0 01.547-.44 7.66 7.66 0 01.597-.375.89.89 0 01.045.117c.012.039.039.07.053.106.015.036.024.053.036.08a7.083 7.083 0 00-2.522 4.116 9.376 9.376 0 01-5.63.204l-.198-.402c-.089-.19-.185-.377-.262-.572l-.22-.589c.288.12.571.24.855.327.284.087.58.17.866.238zm2.363-5.622a7.265 7.265 0 013.47-.27c.24.042.459.092.685.155.226.062.452.144.668.24a.982.982 0 01-.067.101c-.02.036-.031.075-.05.11-.02.037-.025.051-.039.075a7.025 7.025 0 00-4.777.597 9.329 9.329 0 01-3.684-4.27l.193-.395c.091-.187.18-.377.281-.56l.325-.54c.084.3.175.59.276.87.101.278.24.562.356.827a8.896 8.896 0 002.363 3.06z"/><path d="M4.635 12.17a7.088 7.088 0 014.648-1.312 2.62 2.62 0 00-.065.317 7.163 7.163 0 00-4.393 1.993 9.48 9.48 0 01-4.772-2.993c.066-.568.172-1.13.317-1.683a9.396 9.396 0 004.265 3.679z"/><path d="M9.21 11.512v.166c.012.053.02.108.025.163a6.758 6.758 0 00-2.739 1.924 7.252 7.252 0 00-.875 1.25 6.29 6.29 0 01-.798 0c-.272-.02-.529-.039-.8-.072a9.768 9.768 0 01-3.847-1.407 25.536 25.536 0 01-.128-.844c-.038-.281-.031-.54-.048-.825a9.377 9.377 0 005.152 2.26 7.107 7.107 0 014.059-2.615zM6.588 6.607a7.085 7.085 0 013.93 2.8.843.843 0 01-.148.07c-.046.027-.09.063-.14.087a7.1 7.1 0 00-4.3-2.183 9.43 9.43 0 01-.64-5.595c.24-.146.481-.298.734-.432.252-.135.51-.24.767-.373a9.362 9.362 0 00-.202 5.626z"/><path d="M9.966 9.762c-.039.04-.082.074-.123.11-.04.036-.072.087-.11.125a6.867 6.867 0 00-3.227-.925h-.76c-.25 0-.505.048-.764.088a9.262 9.262 0 01-.505-.613 8.147 8.147 0 01-.445-.673 9.78 9.78 0 01-1.308-3.873c.188-.212.377-.42.572-.628.195-.206.414-.387.623-.577A9.43 9.43 0 005.386 8.23a7.112 7.112 0 014.58 1.532zm5.982-6.526v2.746L15.2 4.609l.748-1.373zM9.136 1.637c-.151.315-.284.63-.399.94a9.55 9.55 0 00-.281.962 8.458 8.458 0 00-.24 1.873 7.568 7.568 0 011.923 1.82c.166.231.318.472.457.721.115.207.218.42.307.64.092.214.172.433.24.656l-.12.02a.31.31 0 00-.115.023l-.089.012a7.016 7.016 0 00-3.462-3.366A9.345 9.345 0 018.388.408l.436-.11a5.43 5.43 0 01.617-.123l.623-.091c-.18.255-.348.512-.505.77a8.175 8.175 0 00-.423.783z"/><path d="M13.168 4.609L15.681 0h.266v1.373l-1.764 3.236 1.764 3.236v1.373h-.266l-2.513-4.609z"/><path d="M14.666 9.218h-1.017l-2.515-4.595c.84-1.565 1.676-3.08 2.515-4.623h1.017L12.15 4.609l2.515 4.609z"/><path d="M10.639 3.496c-.201.4-.373.813-.512 1.238.266.333.508.686.72 1.055.205.362.382.738.53 1.126.404.779.841 1.536 1.255 2.303h-1.015c-.072-.135-.154-.27-.216-.404-.063-.135-.06-.262-.101-.4a6.767 6.767 0 00-.652-1.557 6.486 6.486 0 00-.48-.733A7.545 7.545 0 009.14 4.996a8.05 8.05 0 01.409-1.548c.109-.308.24-.609.39-.9.15-.304.316-.6.497-.887.187-.277.395-.557.623-.839.11-.14.223-.279.34-.418.119-.14.14-.27.217-.404h1.015c-.423.77-.827 1.534-1.267 2.306-.267.38-.51.778-.726 1.19zM62.21 12.95a1.216 1.216 0 01-1.214 1.202h-2.06a1.216 1.216 0 01-1.217-1.202V7.615h-1.236v5.335a2.279 2.279 0 002.277 2.277h2.404a2.281 2.281 0 002.28-2.277V7.615h-1.239l.005 5.335zm-23.886 0V7.615h-1.238v5.335a2.282 2.282 0 002.279 2.277h3.43v-1.063h-3.257a1.217 1.217 0 01-1.214-1.214zm59.933 0V7.615H97.02v5.335a2.282 2.282 0 002.277 2.277h3.429v-1.063h-3.253a1.217 1.217 0 01-1.215-1.214zm9.488 1.214a1.217 1.217 0 01-1.215-1.202V7.615h-1.238v5.335a2.286 2.286 0 002.279 2.277H111v-1.063h-3.255zM86.505 7.41a1.31 1.31 0 00-1.267.825v.014l-.836 2.522-.767 2.328a.065.065 0 01-.068.043.063.063 0 01-.064-.043l-.77-2.328-.832-2.522v-.014a1.308 1.308 0 00-1.264-.825c-.686 0-1.421.409-1.421 1.313v6.503h1.236V8.735c0-.166.055-.24.158-.24h.063l.014.011a.242.242 0 01.038.058.29.29 0 01.02.039l.014.028.053.164 1.714 5.07a1.126 1.126 0 001.046.614 1.13 1.13 0 001.048-.613l1.715-5.071.053-.164v-.028l.019-.039a.241.241 0 01.021-.036l.017-.022.015-.012h.062c.106 0 .159.085.159.24v6.492h1.238V8.735c.007-.916-.73-1.325-1.414-1.325zm6.583.205H91.85v7.614h1.238V7.615zM52.62 10.168v-.115a2.806 2.806 0 00-.094-.813 2.272 2.272 0 00-2.183-1.625h-2.645a2.3 2.3 0 00-1.659.721c-.62.659-.62 1.443-.62 2.212v2.291a2.315 2.315 0 001.77 2.33c.26.05.526.07.79.058h1.979c.586.04 1.17-.102 1.671-.407a2.307 2.307 0 00.974-1.618 4.36 4.36 0 00.017-.553v-2.48zm-5.963.87V9.904a1.24 1.24 0 011.224-1.224h1.991a2.09 2.09 0 01.67.062c.108.037.211.088.306.152l-4.176 4.176a3.362 3.362 0 01-.012-.353V11.61c.002-.19 0-.383-.003-.573zm4.737 1.155c.019.565.04 1.202-.323 1.567-.377.411-.87.409-1.442.404h-1.515a2.058 2.058 0 01-.56-.043 1.267 1.267 0 01-.298-.133l4.128-4.13v1.962c0 .12.005.245.01.373zM31.275 7.617h-2.448a2.28 2.28 0 00-2.277 2.277v3.055a2.281 2.281 0 002.277 2.282h4.725v-1.067h-4.55a1.217 1.217 0 01-1.216-1.203V9.894a1.217 1.217 0 011.217-1.203h2.096a1.217 1.217 0 011.217 1.203v.769h1.236v-.77a2.28 2.28 0 00-2.277-2.276zm43.361 2.271c0-.084 0-.165-.012-.24a.117.117 0 010-.031 2.143 2.143 0 00-.039-.217.045.045 0 000-.019 1.63 1.63 0 00-.062-.219v-.03l-.048-.128-.012-.03-.022-.04v-.017a2.603 2.603 0 00-.108-.2l-.056-.081a2.168 2.168 0 00-.144-.197l-.038-.044a1.364 1.364 0 00-.113-.122l-.07-.063-.05-.043a2.256 2.256 0 00-.493-.322l-.049-.022a2.368 2.368 0 00-.574-.173h-.055a2.567 2.567 0 00-.306-.022h-5.76v1.063h.935v6.535h4.808c.103 0 .205-.009.306-.024h.055c.199-.03.392-.09.575-.173l.048-.022a2.34 2.34 0 00.493-.32l.05-.045c.024-.022.048-.039.07-.06.021-.022.077-.082.113-.123.036-.04.026-.031.038-.046.052-.062.1-.127.144-.194l.056-.085c.038-.065.074-.13.108-.197v-.019l.022-.04.012-.03c.017-.04.03-.084.048-.125.017-.04 0-.021 0-.031.025-.072.046-.145.062-.219a.062.062 0 000-.02c.017-.071.03-.144.039-.218a.164.164 0 010-.031c0-.082.012-.164.012-.24V9.89l.017-.003zm-1.231 1.609v1.452a1.22 1.22 0 01-.962 1.188h-.022a1.386 1.386 0 01-.223.024h-3.405V8.677h3.397c.076 0 .15.007.224.021h.022a1.214 1.214 0 01.961 1.188v1.452l.008.159z"/></g><defs><clipPath id="clip0"><path fill="#fff" d="M0 0h111v22.845H0z"/></clipPath></defs></svg>