<svg width="185" height="23" fill="none" xmlns="http://www.w3.org/2000/svg"><path d="M6.545 13.434c-.05.394-.152.757-.305 1.09a2.823 2.823 0 01-.597.849 2.61 2.61 0 01-.868.55 3.054 3.054 0 01-1.113.194c-.351 0-.672-.049-.96-.146a2.745 2.745 0 01-.768-.416 2.832 2.832 0 01-.58-.621 3.974 3.974 0 01-.405-.78 5 5 0 01-.24-.884 6.24 6.24 0 01-.082-.938v-1.19a6.24 6.24 0 01.082-.937c.055-.309.135-.603.24-.885.11-.28.244-.54.405-.779.164-.242.357-.451.58-.627.226-.176.482-.312.767-.41a2.85 2.85 0 01.961-.152c.426 0 .807.066 1.143.199.336.129.625.314.867.556.242.239.435.526.58.862.148.336.246.707.293 1.113H5.46a3.194 3.194 0 00-.182-.72 1.986 1.986 0 00-.345-.587 1.492 1.492 0 00-.534-.392 1.717 1.717 0 00-.738-.147c-.258 0-.486.043-.685.13a1.576 1.576 0 00-.51.34c-.14.144-.26.312-.358.503a3.44 3.44 0 00-.228.61 4.615 4.615 0 00-.13.661c-.022.223-.034.44-.034.65v1.202a4.69 4.69 0 00.164 1.318c.058.215.135.418.228.61.094.191.213.361.358.51.144.144.314.26.51.345.195.082.423.123.685.123.285 0 .531-.045.738-.134a1.5 1.5 0 00.534-.375c.144-.164.26-.356.345-.575.086-.222.147-.463.182-.72h1.084zm1.576 1.681a.622.622 0 00.422-.263 1.91 1.91 0 00.287-.633 6.29 6.29 0 00.176-.95c.047-.367.084-.777.111-1.23l.094-2.379h4.084v5.455h.814l-.105 2.748h-.979V16H8.602v1.863h-.973l-.106-2.748h.598zm2.08-3.076c-.02.328-.045.64-.076.938a11.91 11.91 0 01-.105.838 5.673 5.673 0 01-.165.714 2.82 2.82 0 01-.234.586h2.59v-4.453h-1.957L10.2 12.04zm8.033 4.078a3.24 3.24 0 01-1.23-.228 2.794 2.794 0 01-1.576-1.612 3.299 3.299 0 01-.223-1.224v-.246c0-.512.082-.97.246-1.372.164-.406.381-.748.65-1.025a2.87 2.87 0 01.926-.644 2.692 2.692 0 011.067-.223c.457 0 .855.08 1.195.24.344.156.629.375.855.657.227.277.395.605.504.984.114.379.17.789.17 1.23v.487H16.29c.012.289.066.56.164.814.102.254.238.477.41.668a1.93 1.93 0 001.43.61c.387 0 .73-.079 1.031-.235.301-.156.551-.363.75-.621l.662.516a2.51 2.51 0 01-.398.462 2.725 2.725 0 01-.545.387 2.992 2.992 0 01-.703.27 3.29 3.29 0 01-.856.105zm-.14-5.683c-.219 0-.426.04-.621.123a1.563 1.563 0 00-.528.351 1.985 1.985 0 00-.398.569c-.106.222-.18.48-.223.773h3.41v-.082a2.346 2.346 0 00-.123-.627 1.702 1.702 0 00-.299-.557 1.502 1.502 0 00-1.218-.55zm9.75-.774V16h-1.09v-5.443h-2.332l-.006 1.816c0 .578-.035 1.092-.105 1.541a3.6 3.6 0 01-.352 1.137 1.763 1.763 0 01-.662.709c-.277.16-.623.24-1.037.24h-.317l.018-.967.24-.006a.887.887 0 00.551-.164c.148-.113.264-.279.346-.498.086-.222.144-.5.175-.832.036-.332.053-.718.053-1.16l.012-2.713h4.506zm6.17 6.34a1.253 1.253 0 01-.106-.305 4.017 4.017 0 01-.053-.386 2.92 2.92 0 01-.814.568 2.564 2.564 0 01-1.101.24c-.336 0-.641-.049-.915-.146a2.2 2.2 0 01-.691-.393 1.815 1.815 0 01-.44-.592 1.825 1.825 0 01-.152-.744c0-.348.069-.652.205-.914.14-.262.338-.478.592-.65a2.71 2.71 0 01.914-.393c.36-.086.76-.129 1.201-.129h1.184v-.498c0-.191-.035-.363-.106-.515a1.074 1.074 0 00-.298-.387 1.342 1.342 0 00-.475-.252 2.039 2.039 0 00-.621-.088c-.215 0-.408.027-.58.082a1.42 1.42 0 00-.428.217.987.987 0 00-.275.322.82.82 0 00-.094.381h-1.09c.004-.23.063-.457.176-.68a1.94 1.94 0 01.498-.597c.219-.18.482-.325.79-.434a3.2 3.2 0 011.062-.164c.359 0 .693.045 1.001.135.309.086.575.218.797.398.227.176.405.397.533.662a2.1 2.1 0 01.194.932v2.947c0 .211.02.436.059.674.038.234.093.44.163.615V16h-1.13zm-1.916-.826a2.064 2.064 0 001.09-.299 1.82 1.82 0 00.392-.305c.11-.117.195-.238.258-.363v-1.283H32.83c-.633 0-1.125.094-1.476.281-.352.188-.528.482-.528.885 0 .156.026.3.076.433a.968.968 0 00.24.346c.106.094.239.168.399.223.16.054.346.082.557.082zM42.264 16H41.18v-2.707h-3.094V16h-1.084V9.66h1.084v2.748h3.094V9.66h1.084V16zm1.693-3.229c0-.457.066-.88.2-1.271.132-.395.322-.736.568-1.025.25-.29.552-.516.908-.68a2.778 2.778 0 011.201-.252c.45 0 .851.084 1.207.252.36.164.662.39.908.68a3 3 0 01.574 1.025c.133.39.2.815.2 1.271v.13c0 .456-.067.88-.2 1.27a3.005 3.005 0 01-.574 1.02 2.6 2.6 0 01-.902.68 2.834 2.834 0 01-1.201.246c-.45 0-.854-.082-1.213-.246a2.657 2.657 0 01-.908-.68 3.089 3.089 0 01-.569-1.02 3.914 3.914 0 01-.199-1.27v-.13zm1.084.13c0 .312.037.61.111.896.075.281.186.53.334.744.153.215.342.385.569.51.226.125.49.187.79.187a1.566 1.566 0 001.343-.697c.152-.215.265-.463.34-.744.074-.285.11-.584.11-.897v-.129c0-.308-.038-.603-.116-.884a2.272 2.272 0 00-.34-.75 1.636 1.636 0 00-.563-.51 1.538 1.538 0 00-.785-.193c-.3 0-.563.064-.785.193a1.71 1.71 0 00-.563.51 2.35 2.35 0 00-.334.75 3.455 3.455 0 00-.111.884v.13zM58.617 16V9.66h2.49c.391 0 .746.035 1.067.106.32.07.594.175.82.316.23.14.406.32.528.54.125.218.187.478.187.778 0 .301-.088.567-.264.797-.175.23-.431.409-.767.534.203.046.383.119.539.216a1.494 1.494 0 01.639.762c.054.156.081.32.081.492 0 .301-.056.565-.17.791a1.56 1.56 0 01-.486.563c-.21.148-.466.26-.767.334a4.14 4.14 0 01-1.002.111h-2.895zm1.09-2.783v1.91h1.805c.437 0 .77-.082.996-.246.226-.164.34-.402.34-.715 0-.305-.116-.539-.346-.703-.227-.164-.557-.246-.99-.246h-1.805zm0-.867h1.412c.484 0 .856-.073 1.113-.217a.718.718 0 00.393-.674c0-.316-.133-.549-.398-.697-.262-.149-.635-.223-1.12-.223h-1.4v1.81z" fill="#898989"/><g clip-path="url(#clip0)" fill="#0029FF"><path d="M89.2 22.846l.748-1.373v1.373H89.2zm.748-9.219V15l-.748-1.373h.748zm-6.041 6.908c.24-.24.464-.48.67-.721.4-.49.749-1.018 1.041-1.577a8.276 8.276 0 01-.72-1.645 7.347 7.347 0 01-.2-.848 6.052 6.052 0 01-.096-.842c-.025-.47.002-.94.081-1.404.078.03.159.052.24.067a.243.243 0 00.082.02 6.596 6.596 0 00.4 2.346c.399.772.831 1.537 1.245 2.306-.423.767-.827 1.539-1.267 2.303-.299.386-.62.753-.964 1.099-.363.356-.749.689-1.154.995-.147-.021-.291-.06-.438-.096a10.49 10.49 0 01-1.202-.351 10.213 10.213 0 001.512-.979 7.81 7.81 0 00.77-.673z"/><path d="M85.348 22.412a.84.84 0 00.063-.072l.038-.07.315-.577.628-1.152 1.257-2.305-1.257-2.306-.628-1.152-.315-.577-.038-.07c0-.026-.012-.05-.02-.074l-.028-.149a6.226 6.226 0 01-.046-.29h.834l2.515 4.618-2.515 4.604h-1.197l.267-.277.127-.151z"/><path d="M87.168 22.845l2.512-4.61-2.512-4.608h1.015l1.764 3.236v2.746l-1.764 3.236h-1.015zm-5.413-5.675a7.119 7.119 0 011.88-4.443c.068.09.142.176.221.257a7.1 7.1 0 00-1.202 4.671 9.426 9.426 0 01-5.328 1.844 12.025 12.025 0 01-1.103-1.293 9.408 9.408 0 005.532-1.036z"/><path d="M84.098 13.192c.04.037.086.069.135.094.05.024.091.063.14.084a6.793 6.793 0 00-.309 2.486 7.791 7.791 0 00.284 1.597c.072.24.156.48.252.721-.151.207-.312.414-.48.618a6.9 6.9 0 01-.558.589c-.24.219-.481.433-.748.642a10.32 10.32 0 01-2.758 1.479c-.252-.133-.48-.284-.735-.43a6.963 6.963 0 01-.7-.482 9.376 9.376 0 004.996-2.601 7.069 7.069 0 01.481-4.797zm-7.745 2.578a8.87 8.87 0 003.874.074 7.277 7.277 0 011.959-2.885c.175-.156.358-.303.548-.44.197-.137.397-.262.597-.375a.899.899 0 01.045.117c.012.039.039.07.053.106.014.036.024.053.036.08a7.083 7.083 0 00-2.522 4.116 9.376 9.376 0 01-5.63.204l-.198-.402c-.089-.19-.185-.377-.262-.572l-.221-.589c.288.12.572.24.856.327.284.087.58.17.865.238zm2.363-5.621a7.265 7.265 0 013.47-.27c.24.041.458.092.684.154.226.063.452.145.669.24a.786.786 0 01-.068.102c-.019.036-.03.074-.05.11-.02.036-.024.05-.039.075a7.025 7.025 0 00-4.777.596 9.328 9.328 0 01-3.683-4.27l.192-.394c.092-.188.18-.378.281-.56l.325-.541c.084.3.176.591.277.87.1.279.24.563.355.827a8.897 8.897 0 002.364 3.06z"/><path d="M78.637 12.17a7.088 7.088 0 014.648-1.312 2.62 2.62 0 00-.065.317 7.163 7.163 0 00-4.393 1.993 9.48 9.48 0 01-4.772-2.993 12.1 12.1 0 01.317-1.683 9.396 9.396 0 004.265 3.679z"/><path d="M83.21 11.512v.166c.012.053.02.108.025.163a6.758 6.758 0 00-2.739 1.924 7.26 7.26 0 00-.875 1.25c-.26.014-.526.019-.798 0a14.92 14.92 0 01-.8-.072 9.769 9.769 0 01-3.847-1.407 25.58 25.58 0 01-.128-.844c-.038-.281-.031-.54-.048-.825a9.377 9.377 0 005.152 2.26 7.107 7.107 0 014.059-2.615zm-2.622-4.905a7.085 7.085 0 013.931 2.801.841.841 0 01-.15.07c-.045.027-.088.063-.138.087a7.1 7.1 0 00-4.302-2.183 9.43 9.43 0 01-.64-5.595c.241-.147.482-.298.734-.433s.51-.24.767-.373a9.363 9.363 0 00-.202 5.626z"/><path d="M83.964 9.762c-.038.04-.082.075-.122.11-.041.037-.073.087-.11.126a6.867 6.867 0 00-3.227-.926h-.76c-.25 0-.505.048-.765.089a9.266 9.266 0 01-.505-.613 8.13 8.13 0 01-.444-.673A9.779 9.779 0 0176.723 4c.187-.211.377-.42.572-.627.195-.207.413-.387.623-.577a9.43 9.43 0 001.466 5.434 7.112 7.112 0 014.58 1.531zm5.984-6.527v2.746L89.2 4.608l.748-1.373zm-6.812-1.598c-.152.315-.284.63-.4.94-.11.316-.204.637-.28.962a8.459 8.459 0 00-.24 1.873 7.57 7.57 0 011.922 1.82c.166.231.319.472.457.721.116.207.219.42.308.64.092.214.172.433.24.656l-.12.02a.31.31 0 00-.115.023l-.09.012a7.016 7.016 0 00-3.461-3.366 9.345 9.345 0 011.031-5.53l.435-.11a5.47 5.47 0 01.618-.123l.623-.091a13.1 13.1 0 00-.505.77 8.173 8.173 0 00-.423.783z"/><path d="M87.168 4.609L89.68 0h.267v1.373l-1.764 3.236 1.764 3.236v1.373h-.267l-2.512-4.609z"/><path d="M88.665 9.218h-1.017l-2.515-4.595c.839-1.565 1.676-3.08 2.515-4.623h1.017L86.15 4.609l2.515 4.609z"/><path d="M84.638 3.496c-.2.4-.372.813-.512 1.238a8.4 8.4 0 01.722 1.055c.204.362.38.738.529 1.126.404.779.841 1.536 1.255 2.303h-1.015c-.072-.135-.154-.27-.216-.404-.063-.135-.06-.262-.101-.4a6.767 6.767 0 00-.652-1.557 6.487 6.487 0 00-.48-.733 7.543 7.543 0 00-1.027-1.128 8.052 8.052 0 01.408-1.548c.11-.308.24-.609.39-.9.15-.304.317-.6.498-.887.187-.277.395-.557.622-.839.11-.14.224-.279.342-.418.117-.14.14-.27.216-.404h1.015c-.424.77-.827 1.534-1.267 2.306-.268.38-.51.778-.727 1.19zm51.573 9.454a1.214 1.214 0 01-1.214 1.202h-2.06a1.215 1.215 0 01-1.217-1.202V7.615h-1.236v5.335a2.28 2.28 0 002.277 2.277h2.404a2.285 2.285 0 002.28-2.277V7.615h-1.238l.004 5.335zm-23.887 0V7.613h-1.238v5.335a2.281 2.281 0 002.279 2.277h3.431v-1.063h-3.258a1.218 1.218 0 01-1.214-1.214zm59.934 0V7.613h-1.238v5.335a2.279 2.279 0 002.276 2.277h3.429v-1.063h-3.253a1.218 1.218 0 01-1.214-1.214zm9.486 1.214a1.216 1.216 0 01-1.214-1.203V7.614h-1.238v5.335a2.281 2.281 0 002.279 2.277H185v-1.063h-3.256zM160.505 7.41a1.31 1.31 0 00-1.267.825v.014l-.836 2.522-.767 2.328a.067.067 0 01-.026.033.066.066 0 01-.041.01.064.064 0 01-.041-.01.064.064 0 01-.024-.033l-.77-2.328-.832-2.522v-.014a1.306 1.306 0 00-1.264-.825c-.685 0-1.421.409-1.421 1.313v6.503h1.236V8.735c0-.166.055-.24.158-.24h.063l.014.011a.252.252 0 01.039.058.464.464 0 01.019.039l.014.028.053.164 1.714 5.07a1.125 1.125 0 001.046.614 1.132 1.132 0 001.049-.613l1.714-5.071.053-.164a.14.14 0 000-.028l.019-.039a.186.186 0 01.022-.036l.016-.022.015-.012h.062c.106 0 .159.085.159.24v6.492h1.238V8.735c.007-.916-.731-1.325-1.414-1.325zm6.585.205h-1.238v7.614h1.238V7.615zm-40.47 2.553v-.116a2.786 2.786 0 00-.094-.812 2.27 2.27 0 00-2.183-1.625h-2.644a2.303 2.303 0 00-1.659.72c-.621.66-.621 1.443-.621 2.212v2.292a2.314 2.314 0 001.77 2.33c.26.05.526.07.791.057h1.979a2.845 2.845 0 001.671-.406 2.313 2.313 0 00.973-1.618c.018-.184.023-.369.017-.553v-2.481zm-5.962.87V9.903a1.237 1.237 0 011.223-1.224h1.991a2.09 2.09 0 01.671.063c.108.037.211.088.305.151l-4.176 4.176a3.474 3.474 0 01-.012-.353V11.61c.002-.19 0-.382-.002-.572zm4.736 1.154c.019.565.041 1.202-.322 1.567-.378.412-.871.41-1.443.405h-1.514a2.065 2.065 0 01-.561-.044 1.277 1.277 0 01-.298-.132l4.128-4.13v1.961c0 .12.005.245.01.373zm-20.119-4.575h-2.447a2.28 2.28 0 00-2.277 2.277v3.056a2.285 2.285 0 002.277 2.282h4.724v-1.068h-4.549a1.217 1.217 0 01-1.216-1.202V9.894a1.212 1.212 0 011.216-1.202h2.097a1.217 1.217 0 011.216 1.202v.77h1.236v-.77a2.28 2.28 0 00-2.277-2.277zm43.36 2.272c0-.084 0-.166-.012-.24a.163.163 0 010-.032 2.26 2.26 0 00-.038-.216.062.062 0 000-.02 1.662 1.662 0 00-.063-.218v-.031l-.048-.128-.012-.029-.022-.04v-.017a2.27 2.27 0 00-.108-.2l-.055-.082a2.245 2.245 0 00-.144-.197l-.039-.043a1.364 1.364 0 00-.113-.123l-.07-.062-.05-.044a2.261 2.261 0 00-.493-.322l-.048-.021a2.367 2.367 0 00-.575-.173h-.055a2.563 2.563 0 00-.305-.022h-5.761v1.063h.935v6.534h4.809c.102 0 .204-.008.305-.024h.055c.199-.03.393-.089.575-.173l.048-.021c.177-.086.343-.193.493-.32l.051-.046c.024-.021.048-.038.069-.06.022-.022.077-.082.113-.123.036-.04.027-.03.039-.045.052-.062.1-.127.144-.195l.055-.084c.039-.065.075-.13.109-.197v-.02l.021-.04.012-.03c.017-.04.031-.083.048-.124.017-.041 0-.022 0-.031a1.67 1.67 0 00.063-.22.062.062 0 000-.019 2.31 2.31 0 00.038-.218.163.163 0 010-.032c0-.081.012-.163.012-.24V9.891l.017-.002zm-1.231 1.608v1.452a1.22 1.22 0 01-.962 1.188h-.021a1.385 1.385 0 01-.224.024h-3.404V8.677h3.397c.075 0 .15.007.224.022h.021a1.214 1.214 0 01.962 1.188v1.452l.007.158z"/></g><defs><clipPath id="clip0"><path fill="#fff" d="M74 0h111v22.845H74z"/></clipPath></defs></svg>