<svg width="240" height="240" fill="none" xmlns="http://www.w3.org/2000/svg"><circle r="119.5" transform="matrix(-1 0 0 1 120 120)" stroke="#0029FF"/><path d="M144.204 214.024l-9.946 2.016-.463-2.285 3.617-.734-2.465-12.162-3.618.733-.461-2.274 9.946-2.016.461 2.274-3.537.717 2.465 12.163 3.538-.717.463 2.285zm-26.978-10.432c-.019.405.05.765.207 1.077.149.32.374.604.675.853.293.249.65.469 1.072.661.412.2.865.386 1.357.558.662.227 1.314.5 1.956.82.634.32 1.198.699 1.694 1.137a5.42 5.42 0 011.171 1.522c.285.577.411 1.232.376 1.965-.035.734-.222 1.382-.562 1.945a4.674 4.674 0 01-1.347 1.425 5.891 5.891 0 01-1.894.849 7.384 7.384 0 01-2.216.223 6.698 6.698 0 01-2.276-.495 5.668 5.668 0 01-1.822-1.155 4.954 4.954 0 01-1.198-1.699 4.812 4.812 0 01-.38-2.13l2.81.134c.018.431.093.825.225 1.183.123.366.312.684.565.954.245.27.552.484.919.642.368.159.798.249 1.29.273.421.02.814-.016 1.178-.108.364-.093.684-.238.959-.436a2.2 2.2 0 00.915-1.728 1.798 1.798 0 00-.254-1.056 2.985 2.985 0 00-.76-.799 5.823 5.823 0 00-1.097-.627 20.37 20.37 0 00-1.313-.496c-.7-.245-1.367-.539-2-.882a7.085 7.085 0 01-1.656-1.193 4.922 4.922 0 01-1.099-1.554c-.262-.583-.375-1.242-.34-1.975.036-.757.227-1.417.575-1.979a4.41 4.41 0 011.356-1.39 5.95 5.95 0 011.916-.801 8.408 8.408 0 012.238-.187 8.043 8.043 0 011.549.227c.51.125.999.301 1.465.527a6.78 6.78 0 011.276.811 5.64 5.64 0 011.015 1.093c.278.412.491.864.64 1.356.148.5.212 1.042.192 1.628l-2.821-.134c-.015-.517-.106-.971-.275-1.362a2.86 2.86 0 00-.704-.996 3.378 3.378 0 00-1.061-.625 4.892 4.892 0 00-1.384-.254 4.43 4.43 0 00-1.19.096 3.037 3.037 0 00-.981.399c-.283.19-.509.426-.679.707-.17.289-.264.621-.282.996zM40.135 172.71l-5.158-8.74 2.008-1.185 1.876 3.179 10.688-6.308-1.877-3.179 1.999-1.179 5.158 8.74-1.998 1.179-1.835-3.108-10.688 6.307 1.835 3.109-2.008 1.185zm-.837-32.803c-.39.115-.707.297-.95.548a2.45 2.45 0 00-.586.917 4.61 4.61 0 00-.275 1.229c-.053.455-.08.944-.082 1.465.002.7-.044 1.405-.136 2.117a7.923 7.923 0 01-.52 1.972 5.422 5.422 0 01-1.056 1.605c-.451.458-1.03.791-1.734.998-.705.207-1.378.241-2.021.105a4.682 4.682 0 01-1.788-.807 5.898 5.898 0 01-1.421-1.512 7.378 7.378 0 01-.936-2.021 6.692 6.692 0 01-.276-2.313c.038-.76.203-1.46.495-2.1a4.963 4.963 0 011.214-1.688 4.806 4.806 0 011.889-1.055l.792 2.699c-.401.158-.75.358-1.045.6a2.623 2.623 0 00-1.023 1.924c-.029.4.026.836.165 1.308.119.405.281.764.487 1.078.207.314.448.569.726.764a2.215 2.215 0 001.932.3c.382-.112.687-.308.915-.586a2.98 2.98 0 00.506-.98 5.88 5.88 0 00.234-1.241c.029-.456.042-.924.04-1.404.002-.741.061-1.467.178-2.177.11-.708.305-1.36.586-1.956a4.945 4.945 0 011.11-1.547c.465-.438 1.05-.76 1.755-.967.727-.214 1.413-.248 2.058-.104a4.43 4.43 0 011.758.827c.526.408.987.924 1.382 1.549a8.361 8.361 0 011.202 3.592 7.453 7.453 0 01-.02 1.556 6.712 6.712 0 01-.35 1.471 5.611 5.611 0 01-.7 1.317 4.997 4.997 0 01-1.072 1.048 5.058 5.058 0 01-1.476.714l-.795-2.71a3.671 3.671 0 001.197-.705c.315-.288.551-.618.71-.991.153-.37.234-.773.245-1.207 0-.44-.07-.904-.214-1.391a4.426 4.426 0 00-.48-1.093 3.028 3.028 0 00-.697-.796 2.248 2.248 0 00-.89-.411 2.142 2.142 0 00-1.033.059zm-5.674-22.887a10.85 10.85 0 012.92.276 7.622 7.622 0 012.49 1.066 5.712 5.712 0 011.76 1.856c.443.749.684 1.639.724 2.67.039 1.022-.138 1.92-.531 2.694a5.785 5.785 0 01-1.614 1.961 7.908 7.908 0 01-2.404 1.229c-.912.285-1.871.447-2.878.485l-2.178.083a11.73 11.73 0 01-1.974-.088 9.903 9.903 0 01-1.822-.435 7.906 7.906 0 01-1.601-.772 5.565 5.565 0 01-1.286-1.123 5.45 5.45 0 01-.866-1.492 5.75 5.75 0 01-.364-1.862c-.04-1.031.137-1.937.53-2.718a5.77 5.77 0 011.623-1.997c.683-.542 1.485-.959 2.404-1.253a10.848 10.848 0 012.89-.497l2.177-.083zm-2.094 2.906c-.64.033-1.274.115-1.902.249a5.71 5.71 0 00-1.665.614c-.49.277-.879.636-1.167 1.077-.296.433-.432.97-.408 1.61.024.633.2 1.154.53 1.563.32.403.734.719 1.243.95a6.082 6.082 0 001.718.45c.628.07 1.262.097 1.903.08l2.201-.084a13.09 13.09 0 001.903-.236 6.297 6.297 0 001.678-.58 3.42 3.42 0 001.18-1.042c.296-.434.432-.967.408-1.599-.024-.64-.2-1.165-.529-1.575a3.423 3.423 0 00-1.257-.984 5.666 5.666 0 00-1.719-.474 12.155 12.155 0 00-1.915-.103l-2.202.084zm11.86-58.093l6.573-7.733 1.776 1.51-2.39 2.813 9.456 8.037 2.39-2.812 1.769 1.502-6.573 7.733-1.768-1.503 2.338-2.75-9.456-8.037-2.338 2.75-1.777-1.51zm30.726-11.518a2.134 2.134 0 00-.828-.72 2.448 2.448 0 00-1.058-.253 4.603 4.603 0 00-1.251.143 13.03 13.03 0 00-1.412.4c-.66.232-1.342.42-2.044.565a7.93 7.93 0 01-2.034.153 5.415 5.415 0 01-1.862-.472c-.58-.277-1.084-.715-1.51-1.313-.426-.598-.68-1.223-.76-1.875a4.68 4.68 0 01.177-1.954 5.895 5.895 0 01.964-1.837 7.374 7.374 0 011.605-1.546 6.688 6.688 0 012.095-1.017 5.668 5.668 0 012.146-.219 4.956 4.956 0 011.992.596c.621.334 1.16.813 1.615 1.439l-2.291 1.631a3.905 3.905 0 00-.909-.791 2.623 2.623 0 00-2.153-.337 3.694 3.694 0 00-1.182.583 4.04 4.04 0 00-.86.813c-.229.298-.39.61-.485.935a2.305 2.305 0 00-.054.974c.051.328.186.645.403.95.231.325.516.55.853.673.333.118.697.17 1.091.159a5.84 5.84 0 001.25-.185c.44-.122.887-.263 1.34-.422.7-.24 1.406-.422 2.116-.543a7.098 7.098 0 012.04-.086c.65.065 1.258.245 1.824.542.566.297 1.062.745 1.488 1.343.44.617.697 1.254.771 1.91a4.42 4.42 0 01-.207 1.932 5.948 5.948 0 01-1.01 1.813 8.366 8.366 0 01-3.002 2.31c-.479.217-.972.38-1.478.492-.5.106-1 .156-1.504.15a5.625 5.625 0 01-1.473-.23 5 5 0 01-1.341-.672 5.086 5.086 0 01-1.158-1.16l2.3-1.639c.332.397.684.698 1.06.9.374.204.763.32 1.168.348.4.023.806-.032 1.22-.164a4.896 4.896 0 001.245-.656c.344-.245.636-.515.876-.81.24-.297.415-.603.524-.921.105-.324.137-.65.097-.975a2.13 2.13 0 00-.394-.957zm19.772-12.847c.366.939.597 1.888.694 2.848.095.953.03 1.854-.192 2.703a5.711 5.711 0 01-1.179 2.27c-.563.664-1.325 1.183-2.286 1.557-.954.371-1.86.498-2.72.38a5.785 5.785 0 01-2.38-.884 7.93 7.93 0 01-1.949-1.87 11.014 11.014 0 01-1.4-2.561l-.79-2.031a11.673 11.673 0 01-.561-1.895 9.866 9.866 0 01-.186-1.864 7.898 7.898 0 01.206-1.765 5.546 5.546 0 01.641-1.583 5.46 5.46 0 011.127-1.306 5.756 5.756 0 011.64-.953c.962-.375 1.875-.504 2.742-.389.874.113 1.68.407 2.418.882.736.468 1.392 1.089 1.97 1.862a10.826 10.826 0 011.415 2.568l.79 2.03zm-3.43-1.029a12.048 12.048 0 00-.858-1.716 5.71 5.71 0 00-1.125-1.373 3.31 3.31 0 00-1.399-.75c-.506-.138-1.058-.091-1.655.141-.59.23-1.025.567-1.304 1.011a3.3 3.3 0 00-.49 1.486 6.097 6.097 0 00.136 1.77c.139.617.321 1.225.546 1.825l.8 2.053c.24.594.521 1.168.846 1.72a6.262 6.262 0 001.097 1.397 3.4 3.4 0 001.37.774c.506.138 1.055.093 1.644-.137.597-.232 1.035-.57 1.315-1.015.287-.447.46-.95.52-1.51a5.63 5.63 0 00-.115-1.779 12.058 12.058 0 00-.53-1.844l-.799-2.053zm58.777-7.79l9.457 3.682-.846 2.173-3.44-1.34-4.502 11.565 3.44 1.34-.842 2.161-9.457-3.681.842-2.163 3.363 1.31 4.503-11.565-3.364-1.31.846-2.172zm20.934 25.268c.236-.33.372-.67.409-1.018a2.45 2.45 0 00-.107-1.083 4.566 4.566 0 00-.544-1.135 12.835 12.835 0 00-.84-1.203 16.091 16.091 0 01-1.202-1.747 7.953 7.953 0 01-.81-1.872 5.409 5.409 0 01-.162-1.914c.071-.64.32-1.258.746-1.857.426-.598.934-1.042 1.524-1.331a4.68 4.68 0 011.904-.472 5.908 5.908 0 012.052.31 7.39 7.39 0 011.985 1.011 6.678 6.678 0 011.646 1.648c.441.62.744 1.272.909 1.956.176.682.206 1.374.089 2.077a4.82 4.82 0 01-.832 1.997l-2.291-1.631c.217-.373.367-.745.45-1.118a2.63 2.63 0 00-.385-2.145 3.698 3.698 0 00-.938-.926 3.999 3.999 0 00-1.049-.547 2.808 2.808 0 00-1.043-.152 2.307 2.307 0 00-.938.267 2.228 2.228 0 00-.766.692c-.231.324-.35.667-.357 1.026-.002.353.067.714.207 1.083.141.368.335.742.584 1.12.259.377.538.753.837 1.128.456.585.858 1.192 1.205 1.823a7.11 7.11 0 01.748 1.899c.152.636.18 1.27.084 1.902-.095.632-.356 1.247-.782 1.845-.439.618-.957 1.069-1.553 1.354a4.425 4.425 0 01-1.893.436 5.95 5.95 0 01-2.044-.362 8.356 8.356 0 01-3.165-2.081 7.45 7.45 0 01-.947-1.236 6.76 6.76 0 01-.634-1.372 5.607 5.607 0 01-.264-1.468 4.99 4.99 0 01.195-1.487c.146-.5.385-.992.719-1.474l2.3 1.639a3.688 3.688 0 00-.505 1.294 2.86 2.86 0 00.054 1.218c.11.385.294.752.555 1.1.271.347.613.667 1.027.962.343.245.694.432 1.052.562.358.13.705.196 1.041.195a2.24 2.24 0 00.954-.227c.299-.152.558-.38.775-.686zm18.607 14.485a10.837 10.837 0 01-2.465 1.587c-.87.4-1.742.635-2.618.702a5.71 5.71 0 01-2.53-.371c-.811-.315-1.551-.866-2.219-1.652-.663-.78-1.079-1.595-1.248-2.445a5.789 5.789 0 01.056-2.54 7.945 7.945 0 011.13-2.452 11.027 11.027 0 011.963-2.16l1.661-1.412a11.675 11.675 0 011.606-1.15 9.844 9.844 0 011.702-.785 7.89 7.89 0 011.735-.383 5.55 5.55 0 011.705.089c.556.122 1.09.335 1.603.637.518.308.997.72 1.438 1.239.667.786 1.089 1.607 1.263 2.463a5.78 5.78 0 01-.043 2.574c-.201.848-.573 1.672-1.114 2.47a10.84 10.84 0 01-1.964 2.177l-1.661 1.412zm-.151-3.58c.484-.42.931-.877 1.342-1.37.411-.493.721-.997.929-1.513.214-.52.298-1.042.252-1.567-.035-.524-.26-1.03-.675-1.518-.41-.482-.87-.783-1.382-.902a3.296 3.296 0 00-1.564.023 6.095 6.095 0 00-1.629.707 13.89 13.89 0 00-1.545 1.114l-1.679 1.427c-.483.42-.933.874-1.349 1.362-.411.482-.731.98-.961 1.493a3.408 3.408 0 00-.284 1.548c.035.524.258 1.027.668 1.51.415.487.878.791 1.389.91a3.416 3.416 0 001.597-.004 5.623 5.623 0 001.643-.69 12.042 12.042 0 001.57-1.102l1.678-1.427zm26.586 52.999l-.386 10.141-2.331-.089.141-3.689-12.401-.473-.141 3.689-2.319-.088.387-10.142 2.319.089-.138 3.607 12.401.472.138-3.606 2.33.089zm-17.033 28.046c.389.114.755.132 1.095.053a2.45 2.45 0 00.989-.455c.311-.226.609-.521.895-.885.291-.354.579-.75.862-1.188.377-.59.796-1.159 1.258-1.707.46-.541.962-1 1.504-1.378a5.398 5.398 0 011.756-.779c.628-.142 1.294-.109 1.998.098.705.207 1.291.542 1.757 1.005.472.472.828 1.02 1.068 1.645.24.624.366 1.304.378 2.04a7.36 7.36 0 01-.306 2.207 6.668 6.668 0 01-1.018 2.094 5.655 5.655 0 01-1.552 1.499 4.954 4.954 0 01-1.934.763c-.695.122-1.415.077-2.159-.133l.793-2.699a3.9 3.9 0 001.203.061 2.622 2.622 0 001.901-1.066c.241-.321.43-.717.569-1.189a4.03 4.03 0 00.173-1.171 2.805 2.805 0 00-.197-1.035 2.315 2.315 0 00-.559-.799 2.232 2.232 0 00-.904-.498 1.807 1.807 0 00-1.087-.001 2.962 2.962 0 00-.955.55 5.8 5.8 0 00-.868.917 21.2 21.2 0 00-.793 1.16 13.46 13.46 0 01-1.328 1.735 7.068 7.068 0 01-1.55 1.328 4.956 4.956 0 01-1.769.702c-.629.117-1.296.071-2-.135-.727-.214-1.323-.556-1.788-1.026a4.426 4.426 0 01-1.031-1.646 5.962 5.962 0 01-.326-2.05 8.403 8.403 0 01.932-3.672c.243-.466.528-.899.858-1.299.327-.392.69-.742 1.089-1.048a5.626 5.626 0 011.301-.729 5.009 5.009 0 011.469-.302 5.11 5.11 0 011.628.197l-.796 2.71c-.506-.108-.969-.126-1.389-.054-.42.072-.798.222-1.133.449-.328.23-.614.524-.858.884-.239.37-.43.798-.573 1.285a4.424 4.424 0 00-.188 1.179c-.006.381.047.73.157 1.047.118.32.293.595.527.827.241.233.541.403.901.509zm-7.603 22.321a10.82 10.82 0 01-2.306-1.811 7.61 7.61 0 01-1.52-2.244 5.711 5.711 0 01-.476-2.512c.032-.87.31-1.749.835-2.637.52-.882 1.154-1.541 1.903-1.98a5.784 5.784 0 012.418-.777 7.927 7.927 0 012.687.266c.921.253 1.815.636 2.683 1.148l1.877 1.108c.579.342 1.116.722 1.612 1.142.493.427.925.877 1.298 1.351.376.485.686.99.93 1.515.246.535.404 1.082.474 1.64.066.565.04 1.14-.078 1.723a5.743 5.743 0 01-.701 1.764c-.524.888-1.162 1.555-1.914 2a5.777 5.777 0 01-2.447.801c-.867.087-1.767.005-2.699-.245a10.828 10.828 0 01-2.699-1.145l-1.877-1.107zm3.333-1.313a12.05 12.05 0 001.734.82 5.721 5.721 0 001.733.383 3.302 3.302 0 001.564-.275c.483-.204.888-.582 1.214-1.134.321-.545.455-1.079.4-1.601a3.305 3.305 0 00-.533-1.471 6.108 6.108 0 00-1.201-1.308 14.087 14.087 0 00-1.558-1.096l-1.897-1.12a13.13 13.13 0 00-1.729-.829 6.287 6.287 0 00-1.725-.42 3.402 3.402 0 00-1.556.239c-.484.204-.886.579-1.208 1.124-.325.552-.461 1.089-.406 1.611a3.42 3.42 0 00.525 1.507c.3.476.696.919 1.19 1.328.489.416 1.008.79 1.555 1.122l1.898 1.12zm-97.359 36.622c.2-.987.519-1.911.956-2.771a7.63 7.63 0 011.624-2.17 5.722 5.722 0 012.218-1.272c.833-.254 1.755-.278 2.765-.073 1.003.203 1.834.587 2.493 1.151a5.786 5.786 0 011.526 2.031c.348.796.558 1.671.627 2.626.062.953-.007 1.923-.207 2.911l-.433 2.136a11.76 11.76 0 01-.552 1.897 9.864 9.864 0 01-.853 1.669 7.9 7.9 0 01-1.127 1.374 5.56 5.56 0 01-1.395.984 5.484 5.484 0 01-1.654.49c-.598.078-1.23.05-1.896-.085-1.01-.205-1.85-.59-2.516-1.156a5.774 5.774 0 01-1.557-2.049c-.366-.792-.583-1.669-.65-2.631a10.82 10.82 0 01.198-2.925l.433-2.137zm2.33 2.721a11.95 11.95 0 00-.207 1.907c-.019.641.05 1.229.204 1.763.153.541.41 1.004.771 1.388.352.39.841.648 1.469.776.62.125 1.168.077 1.644-.145a3.31 3.31 0 001.216-.986c.336-.441.617-.962.843-1.562.216-.594.391-1.204.526-1.831l.438-2.159c.119-.629.192-1.264.218-1.905a6.259 6.259 0 00-.167-1.767 3.412 3.412 0 00-.735-1.393c-.351-.39-.837-.648-1.457-.773-.628-.128-1.179-.08-1.655.142a3.416 3.416 0 00-1.253.99c-.352.439-.64.958-.866 1.558a12.087 12.087 0 00-.551 1.837l-.438 2.16z" fill="#0029FF"/></svg>