<svg xmlns="http://www.w3.org/2000/svg" width="159" height="36"><path fill="#fff" d="M71.83 9.801a1.529 1.529 0 01-1.521-1.522V1.522A1.529 1.529 0 0171.83 0H83.6a1.529 1.529 0 011.5 1.522v6.757a1.522 1.522 0 01-1.507 1.522h-1.486v16.977h5.661v-2.611a1.529 1.529 0 011.522-1.522h4.385a1.53 1.53 0 011.522 1.522v9.642a1.529 1.529 0 01-1.515 1.53H71.83a1.529 1.529 0 01-1.522-1.53V28.3a1.529 1.529 0 011.522-1.521h1.443V9.8zm69.523 25.537a17.581 17.581 0 01-10.854-3.728 17.668 17.668 0 110-27.874A17.664 17.664 0 01146.397.732a17.67 17.67 0 013.047 32.65 17.67 17.67 0 01-8.091 1.956zm-8.46-29.323c2.726 3.122 4.392 8.762 4.392 11.654 0 2.892-.144 2.604-.418 3.837a8.1 8.1 0 00-3.238-15.52h-.722zm-5.568 7.154a8.272 8.272 0 00-1.759.195c-.036.223-.036.468-.036.72a8.098 8.098 0 009.858 7.905 8.093 8.093 0 01-7.341 7.32 17.708 17.708 0 01-3.96-15.484 8.107 8.107 0 103.238-.678zM34.927 26.785V9.476h-1.24a1.529 1.529 0 01-1.522-1.543V1.522A1.529 1.529 0 0133.687 0h8.654a1.529 1.529 0 011.507 1.522v13.082l4.327-4.276c.29-.242.482-.58.541-.953a1.097 1.097 0 00-1.118-1.125h-.202V1.522A1.527 1.527 0 0148.94 0h10.464a1.522 1.522 0 011.522 1.522v5.92a2.02 2.02 0 01-.555 1.4h.057l-6.267 6.202 7.638 11.74h2.04a1.53 1.53 0 011.522 1.523v5.502a1.53 1.53 0 01-1.522 1.53H54.19a2.034 2.034 0 01-1.68-.888l-8.662-13.248v5.582h.8a1.522 1.522 0 011.508 1.522v5.502a1.521 1.521 0 01-1.507 1.53H33.687a1.529 1.529 0 01-1.522-1.522v-5.51a1.529 1.529 0 011.522-1.522zm-33.405 0h1.442V9.815H1.522A1.529 1.529 0 010 8.294V1.522A1.529 1.529 0 011.522 0h24.52a1.53 1.53 0 011.522 1.522v6.772a1.53 1.53 0 01-1.522 1.521h-2.813a1.529 1.529 0 01-1.521-1.521v-.36h-9.91v5.156h11.713a1.529 1.529 0 011.521 1.521v4.147a1.529 1.529 0 01-1.521 1.522H11.799v6.49h1.493a1.522 1.522 0 011.521 1.522v5.51a1.53 1.53 0 01-1.521 1.536H1.522A1.529 1.529 0 010 33.81V28.3a1.522 1.522 0 011.522-1.521zM95.64 0a5.15 5.15 0 012.438.65 4.637 4.637 0 011.875 1.853c.448.774.689 1.65.7 2.545a5.084 5.084 0 01-.664 2.488 4.652 4.652 0 01-1.854 1.84 5.048 5.048 0 01-4.99 0 4.666 4.666 0 01-1.861-1.861 5.048 5.048 0 010-5.005 4.702 4.702 0 011.89-1.86A5.128 5.128 0 0195.64 0zm0 .83a4.327 4.327 0 00-2.063.54 3.945 3.945 0 00-1.565 1.55 4.176 4.176 0 000 4.176 3.938 3.938 0 001.544 1.558 4.176 4.176 0 004.16 0 3.938 3.938 0 001.551-1.543c.359-.629.55-1.339.556-2.063a4.327 4.327 0 00-.563-2.098 3.902 3.902 0 00-1.565-1.55A4.327 4.327 0 0095.64.857zm-2.2 6.952V2.394h1.854c.464-.02.929.03 1.377.152a1.399 1.399 0 01.82 1.867 1.45 1.45 0 01-.315.47 1.663 1.663 0 01-1.118.49c.168.067.323.164.455.288.304.327.572.684.8 1.068l.656 1.053h-1.06l-.476-.844a4.399 4.399 0 00-.916-1.262 1.125 1.125 0 00-.72-.18h-.513v2.286zm.866-3.037h1.06c.359.038.72-.04 1.031-.223a.721.721 0 00.281-.592.764.764 0 00-.504-.72 2.647 2.647 0 00-.873-.094h-.995z"/></svg>