<svg width="160" height="36" fill="none" xmlns="http://www.w3.org/2000/svg"><path fill-rule="evenodd" clip-rule="evenodd" d="M71.83 9.978h1.443v16.944H71.83a1.53 1.53 0 00-1.522 1.52v5.498a1.525 1.525 0 001.522 1.527h21.852a1.53 1.53 0 001.515-1.526v-9.624a1.524 1.524 0 00-1.522-1.519H89.29a1.53 1.53 0 00-1.522 1.519v2.605h-5.66V9.979h1.485A1.523 1.523 0 0085.1 8.46V1.715A1.524 1.524 0 0083.6.196H71.83a1.53 1.53 0 00-1.522 1.52V8.46a1.524 1.524 0 001.522 1.518zm69.523 25.489a17.603 17.603 0 01-10.854-3.722 17.7 17.7 0 01-18.617 1.935 17.654 17.654 0 01-7.231-6.505 17.607 17.607 0 010-18.68 17.653 17.653 0 017.231-6.505 17.7 17.7 0 0118.617 1.935 17.702 17.702 0 0123.094 1.178 17.604 17.604 0 012.148 22.98 17.656 17.656 0 01-6.297 5.432 17.7 17.7 0 01-8.091 1.952zm-8.46-29.268c2.726 3.117 4.392 8.746 4.392 11.632 0 2.887-.144 2.599-.418 3.83a8.093 8.093 0 003.953-3.7 8.07 8.07 0 00-2.086-9.978 8.11 8.11 0 00-5.105-1.812h-.722l-.014.028zm-5.567 7.12a8.113 8.113 0 015.431 2.078 8.08 8.08 0 011.124 10.78 8.12 8.12 0 01-10.63 2.221 8.093 8.093 0 01-3.64-4.528 8.072 8.072 0 01.336-5.796 8.1 8.1 0 014.14-4.08 17.663 17.663 0 003.96 15.454 8.1 8.1 0 004.997-2.324 8.07 8.07 0 002.344-4.981 8.108 8.108 0 01-7.486-2.173 8.075 8.075 0 01-2.372-5.716c0-.252 0-.497.036-.72a8.287 8.287 0 011.76-.194v-.022zm-93.64 13.61h1.241V9.656h-1.24a1.531 1.531 0 01-1.522-1.54v-6.4a1.525 1.525 0 011.522-1.52h8.654a1.53 1.53 0 011.507 1.52v13.056l4.327-4.268c.29-.241.482-.579.541-.95a1.093 1.093 0 00-1.118-1.123h-.202V1.715a1.522 1.522 0 01.956-1.407c.187-.076.386-.114.588-.112h10.464a1.523 1.523 0 011.522 1.52v5.909a2.01 2.01 0 01-.556 1.396h.058l-6.267 6.19 7.637 11.719h2.041a1.53 1.53 0 011.522 1.518v5.492a1.524 1.524 0 01-1.522 1.527H54.19a2.037 2.037 0 01-1.68-.886l-8.662-13.223v5.572h.8a1.523 1.523 0 011.508 1.518v5.492a1.517 1.517 0 01-1.507 1.527H33.687a1.53 1.53 0 01-1.522-1.52v-5.499a1.525 1.525 0 011.522-1.518zm-32.164 0h1.442V9.994H1.522A1.53 1.53 0 010 8.474V1.715A1.524 1.524 0 011.522.196h24.52a1.53 1.53 0 011.522 1.52v6.758a1.525 1.525 0 01-1.522 1.519H23.23a1.53 1.53 0 01-1.521-1.519v-.36h-9.91v5.147h11.713a1.53 1.53 0 011.521 1.519v4.138a1.525 1.525 0 01-1.521 1.52H11.799v6.477h1.492a1.523 1.523 0 011.522 1.52v5.498a1.525 1.525 0 01-1.522 1.534H1.521A1.53 1.53 0 010 33.94v-5.5a1.517 1.517 0 011.522-1.518v.007z" fill="#474747"/></svg>