<svg width="159" height="36" fill="none" xmlns="http://www.w3.org/2000/svg"><path fill-rule="evenodd" clip-rule="evenodd" d="M71.83 9.801h1.443v16.977H71.83a1.53 1.53 0 00-1.522 1.521v5.51a1.53 1.53 0 001.522 1.53h21.852a1.529 1.529 0 001.515-1.53v-9.642a1.529 1.529 0 00-1.522-1.522H89.29a1.53 1.53 0 00-1.522 1.522v2.61h-5.66V9.802h1.485A1.522 1.522 0 0085.1 8.279V1.522A1.529 1.529 0 0083.6 0H71.83a1.529 1.529 0 00-1.522 1.522v6.757a1.529 1.529 0 001.522 1.522zm69.523 25.537a17.581 17.581 0 01-10.854-3.728 17.668 17.668 0 110-27.874A17.664 17.664 0 01146.397.732a17.67 17.67 0 013.047 32.65 17.67 17.67 0 01-8.091 1.956zm-8.46-29.323c2.726 3.122 4.392 8.762 4.392 11.654 0 2.892-.144 2.604-.418 3.837a8.1 8.1 0 00-3.238-15.52h-.722l-.014.029zm-5.568 7.132a8.106 8.106 0 11-3.238.678 17.708 17.708 0 003.96 15.484 8.093 8.093 0 007.341-7.32 8.1 8.1 0 01-9.858-7.904c0-.253 0-.498.036-.721a8.272 8.272 0 011.759-.195v-.022zM33.687 26.785h1.24V9.476h-1.24a1.529 1.529 0 01-1.522-1.543V1.522A1.529 1.529 0 0133.687 0h8.654a1.529 1.529 0 011.507 1.522v13.082l4.327-4.276c.29-.242.482-.58.541-.953a1.097 1.097 0 00-1.118-1.125h-.202V1.522A1.527 1.527 0 0148.94 0h10.464a1.522 1.522 0 011.522 1.522v5.92a2.02 2.02 0 01-.556 1.4h.058l-6.267 6.202 7.637 11.74h2.041a1.53 1.53 0 011.522 1.523v5.502a1.53 1.53 0 01-1.522 1.53H54.19a2.034 2.034 0 01-1.68-.888l-8.662-13.248v5.582h.8a1.522 1.522 0 011.508 1.522v5.502a1.521 1.521 0 01-1.507 1.53H33.687a1.529 1.529 0 01-1.522-1.523v-5.51a1.529 1.529 0 011.522-1.521zm-32.165 0h1.442V9.815H1.522A1.529 1.529 0 010 8.294V1.522A1.529 1.529 0 011.522 0h24.52a1.53 1.53 0 011.522 1.522v6.772a1.53 1.53 0 01-1.522 1.521h-2.813a1.529 1.529 0 01-1.521-1.521v-.36h-9.91v5.156h11.713a1.529 1.529 0 011.521 1.521v4.147a1.529 1.529 0 01-1.521 1.522H11.799v6.49h1.492a1.522 1.522 0 011.522 1.522v5.51a1.53 1.53 0 01-1.522 1.536H1.521A1.529 1.529 0 010 33.81V28.3a1.522 1.522 0 011.522-1.521v.007z" fill="#0029FF"/><path d="M95.644 0a5.15 5.15 0 012.437.65 4.638 4.638 0 011.876 1.853c.448.774.689 1.65.699 2.545a5.079 5.079 0 01-.663 2.488 4.652 4.652 0 01-1.854 1.84 5.048 5.048 0 01-4.99 0 4.666 4.666 0 01-1.861-1.861 5.048 5.048 0 010-5.005 4.702 4.702 0 011.89-1.86A5.128 5.128 0 0195.643 0zm0 .83a4.327 4.327 0 00-2.063.54 3.944 3.944 0 00-1.565 1.55 4.176 4.176 0 000 4.176 3.938 3.938 0 001.543 1.558 4.176 4.176 0 004.162 0 3.938 3.938 0 001.55-1.543c.359-.629.55-1.339.556-2.063a4.326 4.326 0 00-.563-2.098A3.902 3.902 0 0097.7 1.4a4.327 4.327 0 00-2.055-.542V.83zm-2.2 6.952V2.394h1.854c.464-.02.928.03 1.377.152a1.399 1.399 0 01.82 1.867 1.45 1.45 0 01-.315.47 1.66 1.66 0 01-1.118.49c.168.067.322.164.454.288.304.327.573.684.8 1.068l.657 1.053h-1.06l-.476-.844a4.4 4.4 0 00-.916-1.262 1.125 1.125 0 00-.721-.18h-.512v2.286h-.844zm.866-3.037h1.06c.358.038.72-.04 1.031-.223a.72.72 0 00.281-.592.765.765 0 00-.505-.72 2.646 2.646 0 00-.872-.094h-.995v1.63z" fill="#0029FF"/></svg>