<svg width="719" height="391" fill="none" xmlns="http://www.w3.org/2000/svg"><path fill-rule="evenodd" clip-rule="evenodd" d="M470.201 496.99a247.507 247.507 0 01-152.734-52.438 248.747 248.747 0 01-261.965 27.271A248.583 248.583 0 01-46.26 380.162 248.389 248.389 0 01-84 248.546a248.392 248.392 0 0137.74-131.617A248.586 248.586 0 0155.502 25.268a248.759 248.759 0 01134.893-23.88 248.711 248.711 0 01127.072 51.15A248.707 248.707 0 01424.203 4.32a248.772 248.772 0 01116.98 5.973 248.674 248.674 0 01101.263 58.838 248.484 248.484 0 0163.072 98.646 248.37 248.37 0 0110.882 116.56 248.423 248.423 0 01-43.721 108.605 248.58 248.58 0 01-88.623 76.547 248.752 248.752 0 01-113.855 27.501zM351.16 84.59c38.361 43.917 61.804 123.233 61.804 163.905s-2.03 36.615-5.886 53.959a113.943 113.943 0 0055.626-52.123 113.84 113.84 0 0010.294-75.509 113.892 113.892 0 00-39.647-65.096 114.007 114.007 0 00-71.839-25.542h-10.149l-.203.406zM272.815 184.9a114.105 114.105 0 0176.435 29.292 113.956 113.956 0 0115.807 151.913 114.075 114.075 0 01-68.77 44.383 114.123 114.123 0 01-80.807-13.086 114.02 114.02 0 01-51.228-63.815 113.945 113.945 0 014.736-81.678 114.033 114.033 0 0158.26-57.474 248.966 248.966 0 001.886 115.518 249.056 249.056 0 0053.829 102.244 113.896 113.896 0 0070.319-32.766 113.78 113.78 0 0032.992-70.182 110.97 110.97 0 01-24.762 2.739 114.003 114.003 0 01-80.587-33.361 113.869 113.869 0 01-33.38-80.541c0-3.55 0-6.999.508-10.143a116.5 116.5 0 0124.762-2.738v-.305z" fill="#001240"/></svg>