<svg width="24" height="14" fill="none" xmlns="http://www.w3.org/2000/svg"><path d="M11.74 13.695h1.43s.455-.065.65-.26.195-.65.195-.65 0-1.885.845-2.145 2.015 1.82 3.185 2.665c.91.585 1.56.455 1.56.455l3.185-.065s1.625-.13.845-1.43c-.065-.13-.455-.975-2.34-2.73-1.95-1.82-1.69-1.56.65-4.745 1.43-1.95 2.015-3.12 1.82-3.64C23.57.695 22.53.825 22.53.825h-3.575S18.695.76 18.5.89s-.325.39-.325.39-.585 1.495-1.3 2.795c-1.56 2.665-2.21 2.86-2.47 2.665-.585-.325-.455-1.495-.455-2.34 0-2.6.39-3.705-.78-3.965-.39-.065-.65-.13-1.69-.195-1.3 0-2.34 0-2.925.325-.39.195-.715.65-.52.65.26 0 .78.13 1.04.52.39.52.325 1.625.325 1.625s.195 3.055-.52 3.445c-.455.26-1.105-.26-2.535-2.73-.715-1.235-1.3-2.6-1.3-2.6s0-.26-.195-.39C4.59.89 4.33.89 4.33.89H.95s-.52 0-.715.26c-.195.195 0 .585 0 .585S2.9 7.91 5.89 11.03c2.73 2.86 5.85 2.665 5.85 2.665z" fill="#0029FF"/></svg>