<svg width="72" height="79" fill="none" xmlns="http://www.w3.org/2000/svg"><path d="M40.87 71.674C58.449 69.296 72 54.23 72 36 72 16.118 55.882 0 36 0S0 16.118 0 36c0 18.277 13.62 33.373 31.265 35.691l3.931 6.809a1 1 0 001.732 0l3.942-6.826z" fill="#0029FF"/><path fill-rule="evenodd" clip-rule="evenodd" d="M42.3 46.998a9.96 9.96 0 01-6.146-2.11 10.008 10.008 0 01-14.635-2.591 9.995 9.995 0 014.094-14.28 10.01 10.01 0 0110.541 1.097 10.008 10.008 0 0115.615 4.637 9.992 9.992 0 01-1.322 9.06 10.002 10.002 0 01-8.147 4.187zm-4.79-16.594c1.544 1.767 2.487 4.958 2.487 6.595 0 1.636-.082 1.473-.237 2.171a4.585 4.585 0 002.653-5.136 4.583 4.583 0 00-4.486-3.647h-.409l-.008.017zm-3.152 4.036a4.591 4.591 0 014.569 4.113 4.585 4.585 0 01-3.625 4.964 4.592 4.592 0 01-5.313-3.094 4.585 4.585 0 012.535-5.6 10.017 10.017 0 002.242 8.763 4.583 4.583 0 004.157-4.142 4.587 4.587 0 01-5.582-4.473c0-.143 0-.282.02-.409.327-.072.662-.109.997-.11v-.012z" fill="#fff"/></svg>