<svg width="17" height="16" fill="none" xmlns="http://www.w3.org/2000/svg"><path d="M16.341 7.99c-.26 0-.47.211-.488.472a7.012 7.012 0 01-1.602 4.008 7.16 7.16 0 01-4.127 2.448 7.222 7.222 0 01-4.763-.694 7.09 7.09 0 01-3.236-3.522 6.98 6.98 0 01-.24-4.75A7.066 7.066 0 014.752 2.13a7.212 7.212 0 019.022.872l1.41 1.383h-2.778a.47.47 0 100 .941h4.407V.993a.476.476 0 10-.953 0v2.724l-1.42-1.374A8.174 8.174 0 004.213 1.35 8.009 8.009 0 00.965 5.682a7.91 7.91 0 00.27 5.384 8.036 8.036 0 003.668 3.992 8.185 8.185 0 005.4.787 8.115 8.115 0 004.677-2.777 7.945 7.945 0 001.819-4.607.45.45 0 00-.458-.471z" fill="#0029FF"/></svg>