<svg width="111" height="144" fill="none" xmlns="http://www.w3.org/2000/svg"><path d="M.5 18.407V143.5h110V.5H17.951L.5 18.407z" stroke="#0029FF"/><path d="M7.629 19.428h12.587V6.858" stroke="#0029FF"/><path d="M45.958 73.008V77h-1.265v-9.953h3.227c.447.009.868.08 1.265.212.4.132.752.323 1.052.574.301.25.538.56.711.93.178.369.267.793.267 1.271 0 .479-.089.902-.267 1.272-.173.364-.41.672-.71.922a3.176 3.176 0 01-1.053.575c-.397.132-.819.2-1.265.205h-1.962zm0-1.04h1.962c.292-.004.56-.05.807-.136.246-.091.46-.219.642-.383a1.69 1.69 0 00.424-.594c.105-.237.157-.506.157-.807 0-.3-.052-.572-.157-.814a1.73 1.73 0 00-.424-.615 1.827 1.827 0 00-.642-.39 2.416 2.416 0 00-.807-.143h-1.962v3.883zM52.856 77v-9.953h2.303c.693.009 1.31.127 1.853.355a3.802 3.802 0 011.38.944c.379.4.666.884.862 1.449.2.56.303 1.183.308 1.866v.732a5.682 5.682 0 01-.308 1.873 4.06 4.06 0 01-.861 1.449 3.917 3.917 0 01-1.381.943c-.543.224-1.16.337-1.853.342h-2.303zm1.285-8.914v7.882h1.018c.538-.005 1.003-.098 1.395-.28a2.71 2.71 0 00.97-.76c.26-.318.452-.694.575-1.127a5.13 5.13 0 00.198-1.408v-.746a5.054 5.054 0 00-.198-1.4 3.185 3.185 0 00-.575-1.122 2.656 2.656 0 00-.97-.752c-.392-.182-.857-.278-1.395-.287h-1.018zm12.79 4.519h-4.143V77H61.51v-9.953h6.111v1.08h-4.833v3.404h4.143v1.073z" fill="#0029FF"/></svg>