<svg width="111" height="144" fill="none" xmlns="http://www.w3.org/2000/svg"><path d="M.5 18.407V143.5h110V.5H17.951L.5 18.407z" stroke="#0029FF"/><path d="M7.629 19.428h12.587V6.858" stroke="#0029FF"/><path d="M47.66 70.95l2.147-3.903h1.49l-2.892 4.935L51.365 77H49.89l-2.202-3.978L45.48 77h-1.498l2.967-5.018-2.891-4.935h1.483l2.12 3.903zm6.754 4.977h4.867V77H53.15v-9.953h1.265v8.88zm12.189-1.443c0-.305-.071-.563-.212-.772a1.78 1.78 0 00-.534-.526 3.366 3.366 0 00-.724-.363c-.26-.095-.51-.182-.752-.26-.351-.114-.709-.25-1.073-.41-.36-.16-.69-.355-.992-.588a3.055 3.055 0 01-.731-.82c-.187-.319-.28-.693-.28-1.121 0-.428.093-.811.28-1.148.191-.338.44-.623.745-.855a3.287 3.287 0 011.04-.526 3.843 3.843 0 011.168-.185c.433 0 .85.073 1.251.219a3.4 3.4 0 011.067.602c.31.26.558.574.745.943.186.369.284.781.293 1.237h-1.298a2.722 2.722 0 00-.212-.78 1.927 1.927 0 00-.417-.608 1.78 1.78 0 00-.622-.39 2.139 2.139 0 00-.807-.143c-.242 0-.478.034-.71.103a1.95 1.95 0 00-.616.307 1.593 1.593 0 00-.43.506c-.106.2-.158.433-.158.697.005.288.078.531.219.732.141.196.319.362.533.499.219.137.453.25.704.342.255.09.495.17.718.239.246.078.494.166.745.267.25.095.492.207.725.335.232.127.448.27.649.43.2.16.376.342.526.547.15.2.267.424.349.67.087.242.13.51.13.807 0 .446-.1.836-.3 1.169a2.68 2.68 0 01-.766.834 3.61 3.61 0 01-1.067.499 4.469 4.469 0 01-1.19.164c-.441 0-.874-.069-1.298-.205a3.817 3.817 0 01-1.142-.588 3.173 3.173 0 01-.813-.944 2.72 2.72 0 01-.335-1.271h1.292c.04.31.125.585.253.827.127.237.291.44.492.608.2.165.43.29.69.376.265.082.552.124.862.124.246 0 .487-.03.724-.09.242-.063.456-.159.643-.287a1.63 1.63 0 00.458-.492c.118-.2.178-.437.178-.71z" fill="#0029FF"/></svg>