<svg width="16" height="20" fill="none" xmlns="http://www.w3.org/2000/svg"><path d="M1.02 19.956l1.644-.883 1.643.883a.373.373 0 00.352 0l1.644-.883 1.644.883a.373.373 0 00.352 0l1.643-.883 1.644.883a.373.373 0 00.352 0l1.644-.883 1.643.883a.373.373 0 00.491-.135.347.347 0 00.048-.175V1.331a.36.36 0 00-.182-.305L13.762.05a.372.372 0 00-.353 0l-1.643.883L10.12.044a.372.372 0 00-.352 0L8.124.927 6.48.044a.372.372 0 00-.352 0L4.484.927 2.838.044a.372.372 0 00-.352 0l-1.818.982a.347.347 0 00-.19.31v18.31a.347.347 0 00.18.304.372.372 0 00.36.006h.002zm.19-18.42l1.455-.78 1.644.883a.372.372 0 00.352 0L6.305.755l1.644.883a.372.372 0 00.352 0L9.945.755l1.643.883a.372.372 0 00.353 0l1.643-.883 1.457.782v17.51l-1.28-.688a.373.373 0 00-.352 0l-1.643.884-1.646-.883a.373.373 0 00-.352 0l-1.644.883-1.644-.883a.373.373 0 00-.352 0l-1.644.883-1.646-.883a.373.373 0 00-.352 0l-1.28.687.003-17.51z" fill="#242424"/><path d="M3.137 4.252h9.972a.246.246 0 00.171-.069.233.233 0 000-.334.246.246 0 00-.171-.07H3.137a.246.246 0 00-.171.07.233.233 0 000 .334c.045.044.107.07.171.07zm0 2.364h7.451a.246.246 0 00.172-.07.233.233 0 000-.333.246.246 0 00-.172-.07h-7.45a.246.246 0 00-.172.07.233.233 0 000 .334.246.246 0 00.171.069zm0 2.364h9.226a.246.246 0 00.172-.07.233.233 0 000-.333.246.246 0 00-.172-.07H3.137a.246.246 0 00-.171.07.233.233 0 000 .334.246.246 0 00.171.069zm0 2.364h8.214a.246.246 0 00.171-.07.233.233 0 000-.333.247.247 0 00-.171-.07H3.137a.247.247 0 00-.171.07.233.233 0 000 .333c.045.045.107.07.171.07zm0 2.363h5.2a.246.246 0 00.172-.069.233.233 0 000-.334.246.246 0 00-.171-.069h-5.2a.246.246 0 00-.172.07.233.233 0 000 .333c.045.045.107.07.171.07zm0 2.362h6.966a.246.246 0 00.171-.07.233.233 0 000-.333.246.246 0 00-.171-.07H3.137a.246.246 0 00-.171.07.233.233 0 000 .334.246.246 0 00.171.069z" fill="#242424"/></svg>