<svg width="145" height="145" fill="none" xmlns="http://www.w3.org/2000/svg"><rect x="72.481" width="102.503" height="102.503" rx="5" transform="rotate(45 72.48 0)" fill="#001AA5"/><circle cx="73.229" cy="73.231" r="28.127" stroke="#fff"/><circle cx="73.226" cy="73.231" r="20.659" stroke="#0029FF"/><circle r="6.968" transform="matrix(-1 0 0 1 72.513 22.336)" stroke="#fff"/><circle r="6.968" transform="matrix(-1 0 0 1 72.513 120.835)" stroke="#fff"/><circle r="6.968" transform="matrix(-1 0 0 1 122.692 72.514)" stroke="#fff"/><circle r="6.968" transform="matrix(-1 0 0 1 20.477 72.514)" stroke="#fff"/><path d="M40.786 49.805l-3.5 3.5L41 57.018l-1.08 1.08-8.408-8.409 5.163-5.163.912.913-4.083 4.083 2.876 2.876 3.5-3.5.906.907zm4.25-4.632l.128 1.998 2.841 2.842-1.091 1.091-8.409-8.408 1.092-1.092 4.106 4.106-.202-1.83-.624-5.556 1.3-1.3.739 6.619 7.865 1.594-1.3 1.3-6.444-1.364zm9.293-3.297l4.112-4.112.906.907-5.18 5.18-8.408-8.409 1.068-1.068 7.502 7.502z" fill="#0029FF"/></svg>