<svg width="136" height="136" fill="none" xmlns="http://www.w3.org/2000/svg"><circle cx="67.834" cy="67.834" r="67.834" fill="#001AA5"/><path d="M36.724 34.956l-3.353 3.292 3.626 3.517-1.026 1.015-8.096-7.981 4.949-4.848.867.857-3.923 3.878 2.668 2.683 3.421-3.27.867.858zm5.06-3.99l-.228 1.849 1.961 3.224-1.231.766-6.044-9.491 1.232-.79 2.964 4.645.206-1.714.593-5.253 1.482-.924-.73 6.245 7.002 3.111-1.483.925-5.724-2.593zm9.35-.383l5.222-1.826.41 1.127-6.59 2.255-3.809-10.507 1.369-.473 3.398 9.424zm61.783 34.268l-.752-4.51-4.949.79-.251-1.443 11.22-1.781 1.095 6.764-1.209.203-.866-5.389-3.832.609.73 4.622-1.186.135zm.339 6.426l-1.346-1.33-3.831-.225v-1.443l11.403.631v1.466l-5.542-.316 1.3 1.15 3.854 3.517-.114 1.736-4.721-4.194-6.568 3.833v-1.736l5.565-3.089zm-5.101 7.733l-1.506 5.275-1.231-.338 1.916-6.764 10.901 3.067-.388 1.375-9.692-2.615zm-54.853 33.864l4.561 1.104 1.209-4.892 1.414.338-2.691 10.935-6.842-1.646.297-1.173 5.359 1.286.912-3.72-4.561-1.105.342-1.127zm-6.13-2.188l1.779-.721 1.733-3.405 1.323.654-5.017 10.055-1.323-.653 2.44-4.915-1.574.744-4.971 2.232-1.574-.767 5.839-2.57-.958-7.508 1.573.767.73 6.087zm-5.18-7.665l-4.333-3.45.776-.947 5.405 4.329-7.047 8.748-1.14-.879 6.34-7.801z" fill="#0029FF"/><circle cx="68.456" cy="68.456" r="28.127" stroke="#fff"/><circle cx="68.456" cy="68.456" r="20.659" stroke="#0029FF"/><circle r="6.968" transform="matrix(-1 0 0 1 93.352 28.628)" stroke="#fff"/><circle r="6.968" transform="matrix(-1 0 0 1 93.352 107.041)" stroke="#fff"/><circle r="6.968" transform="matrix(-1 0 0 1 21.16 73.435)" stroke="#fff"/></svg>