<svg width="114" height="119" fill="none" xmlns="http://www.w3.org/2000/svg"><rect x=".602" y="1.638" width="113.032" height="113.032" rx="5" fill="#001AA5"/><path d="M50.866 15.398h-4.362v4.63h-1.347V9.545h6.436v1.137h-5.09v3.585h4.363v1.13zm5.536-.237l-1.166 1.324v3.542h-1.36V9.546h1.36v5.118l1.015-1.267 3.074-3.851h1.62L57.28 14.13l3.91 5.896h-1.62l-3.168-4.866zm7.847 3.736h5.125v1.13h-6.457V9.546h1.332v9.351zM50.866 102.22h-4.362v4.629h-1.347V96.367h6.436v1.138h-5.09v3.585h4.363v1.13zm5.536-.238l-1.166 1.325v3.542h-1.36V96.367h1.36v5.119l1.015-1.267 3.074-3.852h1.62l-3.665 4.586 3.91 5.896h-1.62l-3.168-4.867zm7.847 3.737h5.125v1.13h-6.457V96.367h1.332v9.352z" fill="#0029FF"/><circle cx="56.96" cy="57.996" r="24.733" stroke="#fff"/><circle cx="56.959" cy="57.996" r="18.151" stroke="#0029FF"/><circle r="6.083" transform="matrix(-1 0 0 1 13.738 14.773)" stroke="#fff"/><circle r="6.083" transform="matrix(-1 0 0 1 100.562 14.773)" stroke="#fff"/><circle r="6.083" transform="matrix(-1 0 0 1 13.738 101.595)" stroke="#fff"/><circle r="6.083" transform="matrix(-1 0 0 1 100.562 101.595)" stroke="#fff"/></svg>