<svg width="83" height="83" fill="none" xmlns="http://www.w3.org/2000/svg"><g clip-path="url(#clip0)"><path d="M41.09 82.18c22.693 0 41.09-18.397 41.09-41.09C82.18 18.397 63.783 0 41.09 0 18.397 0 0 18.397 0 41.09c0 22.693 18.397 41.09 41.09 41.09z" fill="#0019A5"/><path d="M41.09 64.15c-12.72 0-23.06-10.35-23.06-23.06 0-12.72 10.35-23.06 23.06-23.06 12.71 0 23.06 10.35 23.06 23.06 0 12.71-10.35 23.06-23.06 23.06zm4.2 4.74h-8.4v8.4h8.4v-8.4zm17.782-45.34l4.2 7.274 7.274-4.2-4.2-7.274-7.275 4.2zm-48.169 7.269l4.2-7.275-7.274-4.2-4.2 7.275 7.274 4.2z" stroke="#fff" stroke-miterlimit="10" stroke-linecap="round" stroke-linejoin="round"/></g><defs><clipPath id="clip0"><path fill="#fff" d="M0 0h82.17v82.17H0z"/></clipPath></defs></svg>