<svg width="86" height="74" fill="none" xmlns="http://www.w3.org/2000/svg"><g clip-path="url(#clip0)"><path d="M33.43 0L0 57.91l9.23 15.98H76.1l9.23-15.98L51.88 0H33.43z" fill="#0019A5"/><path d="M42.66 68.45c-13.52 0-24.52-11-24.52-24.52s11-24.52 24.52-24.52 24.52 11 24.52 24.52-11 24.52-24.52 24.52zm4.2-63.64h-8.4v8.4h8.4v-8.4zM6.679 59.858l4.2 7.274 7.274-4.2-4.2-7.274-7.274 4.2zm67.76 7.273l4.2-7.274-7.275-4.2-4.2 7.274 7.275 4.2z" stroke="#fff" stroke-miterlimit="10" stroke-linecap="round" stroke-linejoin="round"/></g><defs><clipPath id="clip0"><path fill="#fff" d="M0 0h85.32v73.89H0z"/></clipPath></defs></svg>