<svg width="119" height="64" fill="none" xmlns="http://www.w3.org/2000/svg"><g clip-path="url(#clip0)"><path d="M118.28 63.13H85.33a48.233 48.233 0 00-26.19-7.69c-9.64 0-18.64 2.82-26.18 7.69H0c.84-2.99 1.67-6 3.67-13.12h19.26l10.08-31.06C37.39 6.31 48.26 0 59.14 0c10.88 0 21.75 6.31 26.12 18.94L95.34 50h19.26c2 7.13 2.84 10.14 3.68 13.13z" fill="#0019A5"/><path d="M59.14 47.69c11.184 0 20.25-9.066 20.25-20.25S70.325 7.19 59.14 7.19c-11.183 0-20.25 9.066-20.25 20.25s9.067 20.25 20.25 20.25z" stroke="#fff" stroke-miterlimit="10" stroke-linecap="round" stroke-linejoin="round"/><path d="M59.14 40.71c7.328 0 13.27-5.941 13.27-13.27s-5.942-13.27-13.27-13.27c-7.33 0-13.27 5.941-13.27 13.27s5.94 13.27 13.27 13.27z" stroke="#003CFF" stroke-miterlimit="10" stroke-linecap="round" stroke-linejoin="round"/></g><defs><clipPath id="clip0"><path fill="#fff" d="M0 0h118.28v63.13H0z"/></clipPath></defs></svg>