<svg width="85" height="85" fill="none" xmlns="http://www.w3.org/2000/svg"><g clip-path="url(#clip0)"><path d="M42.21 84.42c23.312 0 42.21-18.898 42.21-42.21S65.522 0 42.21 0 0 18.898 0 42.21s18.898 42.21 42.21 42.21z" fill="#0019A5"/><path d="M42.21 66.16c13.227 0 23.95-10.723 23.95-23.95 0-13.227-10.723-23.95-23.95-23.95-13.227 0-23.95 10.723-23.95 23.95 0 13.227 10.723 23.95 23.95 23.95z" stroke="#fff" stroke-miterlimit="10" stroke-linecap="round" stroke-linejoin="round"/><path d="M42.21 59.15c9.355 0 16.94-7.584 16.94-16.94 0-9.356-7.585-16.94-16.94-16.94-9.356 0-16.94 7.584-16.94 16.94 0 9.356 7.584 16.94 16.94 16.94z" stroke="#003CFF" stroke-miterlimit="10" stroke-linecap="round" stroke-linejoin="round"/><path d="M65.92 22.67a4.17 4.17 0 100-8.34 4.17 4.17 0 000 8.34zm-47.42 0a4.17 4.17 0 100-8.34 4.17 4.17 0 000 8.34zm0 47.42a4.17 4.17 0 100-8.34 4.17 4.17 0 000 8.34zm47.42 0a4.17 4.17 0 100-8.34 4.17 4.17 0 000 8.34z" stroke="#fff" stroke-miterlimit="10" stroke-linecap="round" stroke-linejoin="round"/></g><defs><clipPath id="clip0"><path fill="#fff" d="M0 0h84.42v84.42H0z"/></clipPath></defs></svg>