<svg width="118" height="61" fill="none" xmlns="http://www.w3.org/2000/svg"><g clip-path="url(#clip0)"><path d="M58.94 60.62c-4.63 0-9.02-1.04-12.95-2.9L5.11 38.38A8.93 8.93 0 010 30.31a8.93 8.93 0 015.11-8.07L45.99 2.9C49.92 1.04 54.31 0 58.94 0c4.63 0 9.02 1.04 12.95 2.9l40.88 19.34a8.93 8.93 0 015.11 8.07 8.93 8.93 0 01-5.11 8.07L71.89 57.72c-3.93 1.86-8.32 2.9-12.95 2.9z" fill="#0019A5"/><path d="M8.92 34.48a4.17 4.17 0 100-8.34 4.17 4.17 0 000 8.34zm100.039 0a4.17 4.17 0 100-8.34 4.17 4.17 0 000 8.34zM58.94 54.26c13.227 0 23.95-10.723 23.95-23.95 0-13.227-10.723-23.95-23.95-23.95-13.227 0-23.95 10.723-23.95 23.95 0 13.227 10.723 23.95 23.95 23.95z" stroke="#fff" stroke-miterlimit="10" stroke-linecap="round" stroke-linejoin="round"/><path d="M58.94 47.25c9.356 0 16.94-7.584 16.94-16.94 0-9.356-7.584-16.94-16.94-16.94-9.356 0-16.94 7.584-16.94 16.94 0 9.356 7.584 16.94 16.94 16.94z" stroke="#003CFF" stroke-miterlimit="10" stroke-linecap="round" stroke-linejoin="round"/></g><defs><clipPath id="clip0"><path fill="#fff" d="M0 0h117.88v60.62H0z"/></clipPath></defs></svg>