<svg width="101" height="73" fill="none" xmlns="http://www.w3.org/2000/svg"><g clip-path="url(#clip0)"><path d="M50.29 72.7c-9.06 0-17.36-3.33-23.73-8.84L3.47 43.92C1.35 42.08 0 39.37 0 36.35c0-3.02 1.35-5.74 3.47-7.57L26.56 8.84A36.162 36.162 0 0150.29 0c9.06 0 17.36 3.33 23.73 8.84l23.09 19.94a9.991 9.991 0 013.47 7.57c0 3.02-1.35 5.73-3.47 7.57L74.03 63.86a36.168 36.168 0 01-23.74 8.84s.01 0 0 0z" fill="#0019A5"/><path d="M50.29 66.82c-16.8 0-30.48-13.67-30.48-30.48 0-16.8 13.67-30.48 30.48-30.48 16.81 0 30.48 13.67 30.48 30.48 0 16.81-13.67 30.48-30.48 30.48zM14.21 32.15h-8.4v8.4h8.4v-8.4zm72.17 8.397h8.4v-8.4h-8.4v8.4z" stroke="#fff" stroke-miterlimit="10" stroke-linecap="round" stroke-linejoin="round"/></g><defs><clipPath id="clip0"><path fill="#fff" d="M0 0h100.59v72.7H0z"/></clipPath></defs></svg>