<svg width="111" height="144" fill="none" xmlns="http://www.w3.org/2000/svg"><path d="M.5 18.407V143.5h110V.5H17.951L.5 18.407z" stroke="#0029FF"/><path d="M7.629 19.428h12.587V6.858" stroke="#0029FF"/><path d="M44.447 77v-9.953h2.304c.693.009 1.31.127 1.852.355a3.802 3.802 0 011.381.944c.379.4.666.884.862 1.449.2.56.303 1.183.307 1.866v.732a5.682 5.682 0 01-.307 1.873 4.06 4.06 0 01-.862 1.449 3.917 3.917 0 01-1.38.943c-.543.224-1.16.337-1.853.342h-2.304zm1.285-8.914v7.882h1.019c.538-.005 1.003-.098 1.395-.28.391-.187.715-.44.97-.76a3.09 3.09 0 00.574-1.127 5.13 5.13 0 00.199-1.408v-.746a5.054 5.054 0 00-.199-1.4 3.185 3.185 0 00-.574-1.122 2.656 2.656 0 00-.97-.752c-.392-.182-.857-.278-1.395-.287h-1.019zm13.727 4.512a7.322 7.322 0 01-.096 1.08c-.054.36-.141.708-.26 1.046a4.516 4.516 0 01-.458.943 3.314 3.314 0 01-.656.766 3.026 3.026 0 01-.882.52 3.134 3.134 0 01-1.107.184 3.19 3.19 0 01-1.114-.185c-.328-.127-.62-.3-.875-.52a3.455 3.455 0 01-.663-.765 4.966 4.966 0 01-.465-.95 6.176 6.176 0 01-.267-1.046 7.18 7.18 0 01-.096-1.073v-1.135c.005-.356.035-.713.09-1.073a6.15 6.15 0 01.266-1.053 5.02 5.02 0 01.458-.943c.187-.297.408-.554.663-.773.255-.223.547-.396.875-.52a3.09 3.09 0 011.114-.19c.41 0 .782.063 1.115.19.332.124.626.294.881.513.256.219.474.477.657.773.186.291.34.606.458.943.123.337.212.688.266 1.053.06.364.091.724.096 1.08v1.135zm-1.251-1.149a8.457 8.457 0 00-.048-.738 4.828 4.828 0 00-.143-.766 3.798 3.798 0 00-.26-.724 2.301 2.301 0 00-.41-.609 1.769 1.769 0 00-.581-.417 1.816 1.816 0 00-.78-.157 1.81 1.81 0 00-.772.157 1.856 1.856 0 00-.581.424 2.284 2.284 0 00-.41.609c-.11.227-.199.469-.267.724a6.13 6.13 0 00-.191 1.497v1.149c.004.232.02.478.047.738.032.26.083.517.15.772.07.251.158.493.267.725.11.232.247.438.41.615.165.173.358.312.582.417.223.105.483.157.779.157.296 0 .556-.052.78-.157a1.82 1.82 0 00.58-.417 2.31 2.31 0 00.404-.608 4.04 4.04 0 00.26-.725c.068-.255.113-.512.136-.772.028-.26.044-.508.048-.745v-1.149zm9.632 2.557c-.06.46-.178.884-.356 1.271-.177.383-.41.714-.697.992-.282.273-.62.487-1.012.642-.387.15-.82.226-1.298.226-.41 0-.784-.057-1.122-.171a3.203 3.203 0 01-.895-.485 3.304 3.304 0 01-.677-.725 4.638 4.638 0 01-.471-.91 5.843 5.843 0 01-.28-1.032 7.293 7.293 0 01-.096-1.093v-1.388a7.29 7.29 0 01.095-1.094c.064-.36.157-.704.28-1.032.128-.328.285-.631.472-.91.192-.282.417-.525.677-.73a3.07 3.07 0 01.895-.48 3.325 3.325 0 011.122-.177c.496 0 .94.078 1.333.233.391.15.729.366 1.011.649.283.278.508.613.677 1.005.173.392.287.825.342 1.299h-1.265a3.726 3.726 0 00-.212-.841c-.1-.26-.234-.488-.403-.684a1.742 1.742 0 00-.622-.458 2.002 2.002 0 00-.861-.17c-.301 0-.568.05-.8.15a1.838 1.838 0 00-.595.396 2.403 2.403 0 00-.417.588c-.11.224-.198.46-.267.711a5.39 5.39 0 00-.15.773c-.027.26-.041.512-.041.758v1.402c0 .246.014.501.041.765.032.26.082.518.15.773.069.25.158.487.267.71.11.224.248.422.417.596.169.168.367.303.595.403.228.096.494.143.8.143.332 0 .62-.052.86-.157.247-.105.454-.25.623-.437.169-.192.303-.415.403-.67.1-.26.171-.54.212-.841h1.265z" fill="#0029FF"/></svg>