<svg width="28" height="24" fill="none" xmlns="http://www.w3.org/2000/svg"><path d="M27.066 0H.619A.622.622 0 000 .62v18.425c0 .34.279.62.62.62h10.25l-.124 3.685c0 .247.124.464.34.588a.678.678 0 00.682-.093l2.105-1.796 2.106 1.796a.652.652 0 00.403.155c.093 0 .186-.031.279-.062a.582.582 0 00.34-.588l-.124-3.686h10.25c.341 0 .62-.278.62-.619V.62c-.062-.34-.34-.62-.681-.62zm-12.82 20.748a.653.653 0 00-.403-.155.652.652 0 00-.403.155l-1.425 1.208.124-3.654c.527.217 1.084.31 1.704.31.619 0 1.176-.124 1.703-.31l.124 3.654-1.425-1.208zm-.403-3.375a3.463 3.463 0 01-3.469-3.469 3.463 3.463 0 013.469-3.468 3.463 3.463 0 013.468 3.469 3.463 3.463 0 01-3.468 3.468zm12.603 1.022h-9.662l-.03-.774a4.745 4.745 0 001.796-3.716 4.705 4.705 0 00-4.707-4.708 4.705 4.705 0 00-4.708 4.708c0 1.486.713 2.848 1.797 3.716l-.031.774H1.239V1.239h25.207v17.156z" fill="#0029FF"/><path d="M4.397 4.336h18.89c.34 0 .62-.28.62-.62 0-.34-.28-.62-.62-.62H4.397c-.341 0-.62.28-.62.62 0 .34.279.62.62.62zM20.87 6.194H6.81a.62.62 0 00-.619.619c0 .34.28.62.62.62h14.06c.34 0 .619-.28.619-.62 0-.34-.28-.62-.62-.62z" fill="#0029FF"/></svg>