<svg width="30" height="18" fill="none" xmlns="http://www.w3.org/2000/svg"><path d="M24.363 7.5a.625.625 0 00-.625.625v3.125c0 .345.28.625.625.625h3.125c.345 0 .625-.28.625-.625a3.754 3.754 0 00-3.75-3.75zm.625 3.125V8.829a2.51 2.51 0 011.796 1.796h-1.796z" fill="#0029FF"/><path d="M25.02 5.625h-3.145a.625.625 0 00-.625.625v8.125h-2.5V.625A.625.625 0 0018.125 0H.625A.625.625 0 000 .625V15c0 .345.28.625.625.625h1.954A2.505 2.505 0 005 17.5a2.505 2.505 0 002.42-1.875h15.784a2.504 2.504 0 002.42 1.875 2.505 2.505 0 002.422-1.875h1.329c.345 0 .625-.28.625-.625v-4.396a4.985 4.985 0 00-4.98-4.979zM5 16.25a1.25 1.25 0 110-2.5 1.25 1.25 0 010 2.5zm2.42-1.875a2.515 2.515 0 00-1.126-1.513c-1.424-.866-3.296-.11-3.715 1.513H1.25V1.25H17.5v13.125H7.42zm18.205 1.875a1.25 1.25 0 110-2.5 1.25 1.25 0 010 2.5zm3.125-1.875h-.704a2.511 2.511 0 00-.94-1.388c-1.435-1.06-3.465-.301-3.902 1.388H22.5v-7.5h2.52a3.733 3.733 0 013.73 3.73v3.77z" fill="#0029FF"/><path d="M13.125 4.375H6.25a.625.625 0 100 1.25h6.875a.625.625 0 100-1.25zm-1.25 3.75H5a.625.625 0 100 1.25h6.875a.625.625 0 100-1.25z" fill="#0029FF"/></svg>