<svg width="346" height="352" fill="none" xmlns="http://www.w3.org/2000/svg"><circle r="143.711" transform="matrix(-1 0 0 1 172.982 175.018)" stroke="#0029FF"/><circle r="172.5" transform="matrix(-1 0 0 1 173 175)" stroke="#0029FF"/><path d="M73.347 192.378l2.783 9.635 10.264-2.957.865 2.957-23.156 6.465-4.086-14.21 2.483-.689 3.305 11.301 7.73-2.076-2.67-9.736 2.482-.69zm-1.857-13.585l3.245 2.372 8.053-.205.192 3.075L59 185.134l-.235-3.099 11.742-.552-3.015-2.187-9.278-6.638-.235-3.703 11.005 7.937 12.952-9.599.235 3.704-10.681 7.796zm9.147-17.675L82.5 149.58l2.537.435-2.444 14.508-23.623-4.085.497-3.018 21.171 3.698zm191.374-2.917l-4.3-9.976-9.608 2.723-1.34-3.088 21.46-6.106 6.469 14.952-2.311.639-5.074-11.708-7.297 2.084 4.3 9.975-2.299.505zm2.454 13.136l-3.549-2.69-7.858.167-.7-3.229 23.072-.691.7 3.229-11.261.361 3.312 2.271 10.27 7.295.852 3.829-11.978-8.619-10.948 9.598-.852-3.83 8.94-7.691zm-7.474 17.638l.165 12.154-2.623-.531-.162-15.188 24.066 4.675.091 3.169-21.537-4.279z" fill="#0029FF"/><circle r="60.36" transform="matrix(-1 0 0 1 171.658 176.342)" stroke="#0029FF"/><circle r="44.483" transform="matrix(-1 0 0 1 171.659 176.341)" stroke="#0029FF"/><circle cx="103.701" cy="248.039" r="15.377" stroke="#0029FF"/><circle cx="242.253" cy="248.039" r="15.377" stroke="#0029FF"/><circle cx="103.701" cy="102.673" r="15.377" stroke="#0029FF"/><circle cx="242.253" cy="102.673" r="15.377" stroke="#0029FF"/></svg>