<svg width="346" height="346" fill="none" xmlns="http://www.w3.org/2000/svg"><circle r="157.5" transform="matrix(-1 0 0 1 173 173)" stroke="#0029FF"/><circle r="172.5" transform="matrix(-1 0 0 1 173 173)" stroke="#0029FF"/><circle r="78" transform="matrix(-1 0 0 1 171.5 174.5)" stroke="#0029FF"/><circle r="57.5" transform="matrix(-1 0 0 1 172 174)" stroke="#0029FF"/><circle cx="103.701" cy="282.876" r="15.377" stroke="#0029FF"/><circle cx="242.253" cy="282.876" r="15.377" stroke="#0029FF"/><circle cx="60.877" cy="112.876" r="15.377" stroke="#0029FF"/><circle cx="286.876" cy="112.876" r="15.377" stroke="#0029FF"/><circle cx="171.876" cy="44.877" r="15.377" stroke="#0029FF"/><path d="M289.462 189.736l.729-9.95-10.681-.832.217-3.084 23.869 1.838-1.07 14.922-2.562-.214.83-11.687-8.12-.618-.729 9.95-2.483-.325zm-2.452 13.627l-2.132-3.479-7.743-2.45.911-3.002 22.835 7.023-.911 3.001-11.157-3.407 2.108 3.042 6.411 9.65-1.06 3.567-7.422-11.35-15.412 4.622 1.06-3.567 12.512-3.65zm-14.274 13.527l-5.726 10.288-2.256-1.297 7.197-12.842 20.799 11.734-1.447 2.698-18.567-10.581zm-210.28-3.665l4.405 8.952 9.634-4.686 1.373 2.769-21.519 10.491-6.626-13.413 2.318-1.112 5.197 10.501 7.317-3.574-4.406-8.952 2.307-.976zm-4.779-12.995l3.6 1.922 7.918-1.804.733 3.05-23.25 5.495-.732-3.05 11.347-2.705-3.357-1.557-10.412-5.08-.89-3.613 12.144 6.035 10.955-11.784.89 3.613-8.946 9.478zm5.47-18.889l-.266-11.771 2.602-.023.289 14.718-23.877.401-.117-3.059 21.369-.266z" fill="#0029FF"/></svg>