<svg fill="none" height="297" width="494" xmlns="http://www.w3.org/2000/svg"><circle cx="41.133" cy="43.387" fill="#001aa5" r="41.133"/><path d="M22.27 23.45l-2.033 1.997 2.199 2.132-.622.616-4.91-4.84 3.001-2.94.526.52-2.379 2.352 1.618 1.627 2.074-1.983zm3.069-2.419l-.138 1.121 1.189 1.955-.747.465-3.665-5.756.747-.478 1.798 2.816.124-1.039.36-3.185.899-.56-.443 3.786 4.246 1.887-.899.56zm5.671-.232l3.166-1.108.25.684-3.997 1.367-2.31-6.37.83-.288zm37.463 20.779l-.457-2.734-3 .478-.153-.874 6.804-1.08.664 4.1-.733.124-.526-3.267-2.323.369.443 2.802zm.206 3.897l-.816-.807-2.323-.136v-.875l6.914.383v.888l-3.36-.191.788.697 2.337 2.133-.069 1.052-2.863-2.542-3.982 2.324v-1.053zm-3.096 4.689l-.912 3.199-.747-.205 1.161-4.102 6.61 1.86-.234.834zm-33.26 20.534l2.766.67.733-2.966.857.205-1.632 6.63-4.149-.998.18-.71 3.25.778.553-2.255-2.766-.67zm-3.719-1.326l1.079-.438 1.05-2.064.803.396-3.043 6.098-.802-.397 1.48-2.98-.954.451-3.015 1.354-.954-.465 3.54-1.559-.58-4.552.954.465zm-3.14-4.648l-2.628-2.092.47-.574 3.278 2.625-4.273 5.304-.692-.533z" fill="#0029ff"/><circle cx="41.511" cy="43.764" r="16.859" stroke="#fff"/><circle cx="41.51" cy="43.764" r="12.331" stroke="#0029ff"/><circle r="4.028" stroke="#fff" transform="matrix(-1 0 0 1 56.606 19.613)"/><circle r="4.028" stroke="#fff" transform="matrix(-1 0 0 1 56.606 67.161)"/><circle r="4.028" stroke="#fff" transform="matrix(-1 0 0 1 12.83 46.783)"/><rect fill="#001aa5" height="62.156" rx="5" transform="rotate(45 145.377 0)" width="62.156" x="145.377"/><circle cx="145.832" cy="44.406" r="16.859" stroke="#fff"/><circle cx="145.831" cy="44.406" r="12.331" stroke="#0029ff"/><circle r="4.028" stroke="#fff" transform="matrix(-1 0 0 1 145.397 13.544)"/><circle r="4.028" stroke="#fff" transform="matrix(-1 0 0 1 145.397 73.272)"/><circle r="4.028" stroke="#fff" transform="matrix(-1 0 0 1 175.825 43.971)"/><circle r="4.028" stroke="#fff" transform="matrix(-1 0 0 1 113.843 43.971)"/><path d="M126.159 30.2l-2.122 2.123 2.252 2.252-.655.654-5.099-5.098L123.666 27l.553.553-2.476 2.476 1.744 1.744 2.122-2.122zm2.578-2.808l.077 1.212 1.722 1.723-.661.662-5.099-5.1.662-.66 2.49 2.489-.123-1.11-.378-3.369.788-.788.448 4.013 4.77.967-.788.788zm5.634-2l2.493-2.493.55.55-3.141 3.141-5.099-5.098.648-.648z" fill="#0029ff"/><rect fill="#001aa5" height="77.759" rx="5" width="77.759" x="207.357" y="4.508"/><path d="M241.937 13.974h-3.002v3.184h-.926v-7.21h4.428v.782h-3.502v2.466h3.002zm3.808-.163l-.802.91v2.437h-.936v-7.21h.936v3.52l.698-.87 2.115-2.65h1.114l-2.521 3.154 2.689 4.056h-1.114zm5.398 2.57h3.526v.777h-4.442v-7.21h.916zm-9.206 57.321h-3.002v3.184h-.926v-7.21h4.428v.782h-3.502v2.466h3.002zm3.808-.163l-.802.91v2.437h-.936v-7.21h.936v3.52l.698-.87 2.115-2.65h1.114l-2.521 3.154 2.689 4.056h-1.114zm5.398 2.57h3.526v.777h-4.442v-7.21h.916z" fill="#0029ff"/><circle cx="246.129" cy="43.279" r="16.859" stroke="#fff"/><circle cx="246.127" cy="43.279" r="12.331" stroke="#0029ff"/><circle r="4.028" stroke="#fff" transform="matrix(-1 0 0 1 216.393 13.544)"/><circle r="4.028" stroke="#fff" transform="matrix(-1 0 0 1 276.122 13.544)"/><circle r="4.028" stroke="#fff" transform="matrix(-1 0 0 1 216.393 73.272)"/><circle r="4.028" stroke="#fff" transform="matrix(-1 0 0 1 276.122 73.272)"/><circle cx="345.409" cy="43.387" fill="#001aa5" r="41.133"/><path d="M326.545 23.45l-2.033 1.997 2.199 2.132-.622.615-4.909-4.84 3.001-2.938.525.519-2.379 2.352 1.618 1.626 2.075-1.982zm3.069-2.42l-.138 1.122 1.189 1.955-.746.465-3.665-5.756.747-.478 1.797 2.816.125-1.04.359-3.185.899-.56-.442 3.787 4.245 1.886-.899.561zm5.671-.232l3.167-1.107.249.684-3.997 1.367-2.309-6.371.829-.287zm37.463 20.78l-.456-2.734-3.001.478-.152-.875 6.804-1.08.663 4.102-.733.123-.525-3.268-2.323.37.442 2.802zm.206 3.897l-.816-.807-2.323-.137v-.875l6.915.383v.889l-3.361-.191.788.697 2.338 2.132-.07 1.053-2.862-2.543-3.983 2.324v-1.052zm-3.097 4.689l-.913 3.199-.747-.205 1.162-4.102 6.61 1.86-.235.834zm-33.259 20.534l2.766.67.733-2.967.857.205-1.631 6.63-4.149-.997.18-.711 3.249.78.554-2.257-2.766-.67zm-3.718-1.326l1.078-.438 1.051-2.064.802.396-3.042 6.098-.802-.397 1.48-2.98-.955.451-3.014 1.354-.955-.465 3.541-1.559-.581-4.552.954.465zm-3.141-4.648l-2.628-2.092.471-.574 3.277 2.625-4.273 5.304-.691-.533z" fill="#0029ff"/><circle cx="345.787" cy="43.764" r="16.859" stroke="#fff"/><circle cx="345.786" cy="43.764" r="12.331" stroke="#0029ff"/><circle r="4.028" stroke="#fff" transform="matrix(-1 0 0 1 360.882 19.613)"/><circle r="4.028" stroke="#fff" transform="matrix(-1 0 0 1 360.882 67.161)"/><circle r="4.028" stroke="#fff" transform="matrix(-1 0 0 1 317.106 46.783)"/><rect fill="#001aa5" height="62.156" rx="5" transform="rotate(45 449.65 0)" width="62.156" x="449.65"/><circle cx="450.105" cy="44.406" r="16.859" stroke="#fff"/><circle cx="450.104" cy="44.406" r="12.331" stroke="#0029ff"/><circle r="4.028" stroke="#fff" transform="matrix(-1 0 0 1 449.671 13.544)"/><circle r="4.028" stroke="#fff" transform="matrix(-1 0 0 1 449.671 73.272)"/><circle r="4.028" stroke="#fff" transform="matrix(-1 0 0 1 480.098 43.971)"/><circle r="4.028" stroke="#fff" transform="matrix(-1 0 0 1 418.116 43.971)"/><path d="M430.433 30.2l-2.123 2.123 2.252 2.252-.655.654-5.098-5.098 3.13-3.131.554.553-2.476 2.476 1.744 1.744 2.122-2.122zm2.577-2.808l.077 1.212 1.723 1.723-.662.662-5.099-5.1.662-.66 2.49 2.489-.123-1.11-.378-3.369.788-.788.448 4.013 4.77.967-.788.788zm5.635-2l2.493-2.493.55.55-3.142 3.141-5.098-5.098.648-.648z" fill="#0029ff"/><circle cx="41.133" cy="251.925" fill="#001aa5" r="41.133"/><path d="M22.27 231.988l-2.033 1.996 2.199 2.133-.622.615-4.91-4.839 3.001-2.94.526.52-2.379 2.351 1.618 1.627 2.074-1.982zm3.069-2.419l-.138 1.121 1.189 1.955-.747.465-3.665-5.756.747-.478 1.798 2.816.124-1.039.36-3.185.899-.561-.443 3.787 4.246 1.887-.899.56zm5.671-.232l3.166-1.108.25.684-3.997 1.367-2.31-6.371.83-.287zm37.463 20.779l-.457-2.734-3 .478-.153-.875 6.804-1.08.664 4.101-.733.123-.526-3.267-2.323.369.443 2.803zm.206 3.897l-.816-.807-2.323-.136v-.875l6.914.382v.889l-3.36-.191.788.697 2.337 2.133-.069 1.052-2.863-2.543-3.982 2.324v-1.052zm-3.096 4.688l-.912 3.199-.747-.205 1.161-4.101 6.61 1.859-.234.834zm-33.26 20.535l2.766.67.733-2.967.857.205-1.632 6.631-4.149-.998.18-.711 3.25.779.553-2.256-2.766-.67zm-3.719-1.326l1.079-.438 1.05-2.064.803.396-3.043 6.098-.802-.397 1.48-2.98-.954.451-3.015 1.353-.954-.464 3.54-1.559-.58-4.552.954.464zm-3.14-4.648l-2.628-2.092.47-.574 3.278 2.625-4.273 5.304-.692-.533z" fill="#0029ff"/><circle cx="41.511" cy="252.302" r="16.859" stroke="#fff"/><circle cx="41.51" cy="252.302" r="12.331" stroke="#0029ff"/><circle r="4.028" stroke="#fff" transform="matrix(-1 0 0 1 56.606 228.151)"/><circle r="4.028" stroke="#fff" transform="matrix(-1 0 0 1 56.606 275.699)"/><circle r="4.028" stroke="#fff" transform="matrix(-1 0 0 1 12.83 255.322)"/><rect fill="#001aa5" height="62.156" rx="5" transform="rotate(45 145.377 208.537)" width="62.156" x="145.377" y="208.537"/><circle cx="145.832" cy="252.943" r="16.859" stroke="#fff"/><circle cx="145.831" cy="252.943" r="12.331" stroke="#0029ff"/><circle r="4.028" stroke="#fff" transform="matrix(-1 0 0 1 145.397 222.081)"/><circle r="4.028" stroke="#fff" transform="matrix(-1 0 0 1 145.397 281.809)"/><circle r="4.028" stroke="#fff" transform="matrix(-1 0 0 1 175.825 252.509)"/><circle r="4.028" stroke="#fff" transform="matrix(-1 0 0 1 113.843 252.509)"/><path d="M126.159 238.738l-2.122 2.122 2.252 2.252-.655.654-5.099-5.098 3.131-3.131.553.553-2.476 2.476 1.744 1.744 2.122-2.122zm2.578-2.809l.077 1.212 1.722 1.723-.661.662-5.099-5.099.662-.662 2.49 2.49-.123-1.11-.378-3.369.788-.788.448 4.013 4.77.967-.788.788zm5.634-1.999l2.493-2.494.55.55-3.141 3.141-5.099-5.098.648-.648z" fill="#0029ff"/><rect fill="#001aa5" height="77.759" rx="5" width="77.759" x="207.357" y="213.045"/><path d="M241.937 222.511h-3.002v3.184h-.926v-7.211h4.428v.783h-3.502v2.466h3.002zm3.808-.164l-.802.911v2.437h-.936v-7.211h.936v3.521l.698-.871 2.115-2.65h1.114l-2.521 3.155 2.689 4.056h-1.114zm5.398 2.571l3.526-.001v.778h-4.442v-7.211h.916zm-9.206 57.32h-3.002v3.185h-.926v-7.211h4.428v.783h-3.502v2.466h3.002zm3.808-.163l-.802.911v2.437h-.936v-7.211h.936v3.521l.698-.871 2.115-2.65h1.114l-2.521 3.155 2.689 4.056h-1.114zm5.398 2.57h3.526v.778h-4.442v-7.211h.916z" fill="#0029ff"/><circle cx="246.129" cy="251.815" r="16.859" stroke="#fff"/><circle cx="246.127" cy="251.815" r="12.331" stroke="#0029ff"/><circle r="4.028" stroke="#fff" transform="matrix(-1 0 0 1 216.393 222.081)"/><circle r="4.028" stroke="#fff" transform="matrix(-1 0 0 1 276.122 222.081)"/><circle r="4.028" stroke="#fff" transform="matrix(-1 0 0 1 216.393 281.809)"/><circle r="4.028" stroke="#fff" transform="matrix(-1 0 0 1 276.122 281.809)"/><circle cx="345.409" cy="251.925" fill="#001aa5" r="41.133"/><path d="M326.545 231.988l-2.033 1.996 2.199 2.133-.622.615-4.909-4.839 3.001-2.94.525.52-2.379 2.351 1.618 1.627 2.075-1.982zm3.069-2.419l-.138 1.121 1.189 1.955-.746.465-3.665-5.756.747-.478 1.797 2.816.125-1.039.359-3.185.899-.561-.442 3.787 4.245 1.887-.899.56zm5.671-.232l3.167-1.108.249.684-3.997 1.367-2.309-6.371.829-.287zm37.463 20.779l-.456-2.734-3.001.478-.152-.874 6.804-1.08.663 4.101-.733.123-.525-3.268-2.323.37.442 2.802zm.206 3.897l-.816-.807-2.323-.136v-.875l6.915.382v.889l-3.361-.191.788.697 2.338 2.133-.07 1.052-2.862-2.543-3.983 2.324v-1.052zm-3.097 4.689l-.913 3.199-.747-.205 1.162-4.102 6.61 1.86-.235.834zm-33.259 20.534l2.766.67.733-2.967.857.205-1.631 6.631-4.149-.998.18-.711 3.249.779.554-2.256-2.766-.67zm-3.718-1.326l1.078-.438 1.051-2.064.802.396-3.042 6.098-.802-.397 1.48-2.98-.955.451-3.014 1.353-.955-.464 3.541-1.559-.581-4.552.954.464zm-3.141-4.648l-2.628-2.092.471-.574 3.277 2.625-4.273 5.304-.691-.533z" fill="#0029ff"/><circle cx="345.787" cy="252.302" r="16.859" stroke="#fff"/><circle cx="345.786" cy="252.302" r="12.331" stroke="#0029ff"/><circle r="4.028" stroke="#fff" transform="matrix(-1 0 0 1 360.882 228.151)"/><circle r="4.028" stroke="#fff" transform="matrix(-1 0 0 1 360.882 275.699)"/><circle r="4.028" stroke="#fff" transform="matrix(-1 0 0 1 317.106 255.322)"/><rect fill="#001aa5" height="62.156" rx="5" transform="rotate(45 449.65 208.537)" width="62.156" x="449.65" y="208.537"/><circle cx="450.105" cy="252.943" r="16.859" stroke="#fff"/><circle cx="450.104" cy="252.943" r="12.331" stroke="#0029ff"/><circle r="4.028" stroke="#fff" transform="matrix(-1 0 0 1 449.671 222.081)"/><circle r="4.028" stroke="#fff" transform="matrix(-1 0 0 1 449.671 281.809)"/><circle r="4.028" stroke="#fff" transform="matrix(-1 0 0 1 480.098 252.509)"/><circle r="4.028" stroke="#fff" transform="matrix(-1 0 0 1 418.116 252.509)"/><path d="M430.433 238.738l-2.123 2.122 2.252 2.252-.655.654-5.098-5.098 3.13-3.131.554.553-2.476 2.476 1.744 1.744 2.122-2.122zm2.577-2.809l.077 1.212 1.723 1.723-.662.662-5.099-5.099.662-.662 2.49 2.49-.123-1.11-.378-3.369.788-.788.448 4.013 4.77.967-.788.788zm5.635-1.999l2.493-2.494.55.55-3.142 3.141-5.098-5.098.648-.648z" fill="#0029ff"/><rect fill="#001aa5" height="62.156" rx="5" transform="scale(-1 1) rotate(45 -351.004 -491.075)" width="62.156"/><circle r="16.859" stroke="#fff" transform="matrix(-1 0 0 1 449.594 148.771)"/><circle r="12.331" stroke="#0029ff" transform="matrix(-1 0 0 1 449.595 148.77)"/><circle cx="450.028" cy="117.909" r="4.028" stroke="#fff"/><circle cx="450.028" cy="177.637" r="4.028" stroke="#fff"/><circle cx="419.601" cy="148.336" r="4.028" stroke="#fff"/><circle cx="481.583" cy="148.336" r="4.028" stroke="#fff"/><path d="M469.267 134.565l2.122 2.123-2.252 2.251.655.655 5.099-5.099-3.131-3.13-.553.553 2.475 2.476-1.743 1.744-2.123-2.122zm-2.578-2.808l-.077 1.212-1.723 1.723.662.661 5.099-5.098-.662-.662-2.49 2.49.123-1.11.378-3.369-.788-.788-.448 4.013-4.77.967.788.787zm-5.634-2l-2.494-2.493-.549.55 3.141 3.141 5.099-5.099-.648-.648z" fill="#0029ff"/><rect fill="#001aa5" height="77.759" rx="5" transform="matrix(-1 0 0 1 385.076 108.785)" width="77.759"/><path d="M350.497 118.251h3.001v3.184h.926v-7.211h-4.427v.783h3.501v2.466h-3.001zm-3.808-.164l.802.911v2.437h.936v-7.211h-.936v3.521l-.698-.871-2.115-2.65h-1.114l2.52 3.155-2.689 4.056h1.115zm-5.398 2.571l-3.527-.001v.778h4.443v-7.211h-.916zm9.206 57.321h3.001v3.184h.926v-7.211h-4.427v.783h3.501v2.466h-3.001zm-3.808-.164l.802.911v2.437h.936v-7.211h-.936v3.522l-.698-.872-2.115-2.65h-1.114l2.52 3.155-2.689 4.056h1.115zm-5.398 2.571l-3.527-.001v.778h4.443v-7.211h-.916z" fill="#0029ff"/><circle r="16.859" stroke="#fff" transform="matrix(-1 0 0 1 346.305 147.555)"/><circle r="12.331" stroke="#0029ff" transform="matrix(-1 0 0 1 346.306 147.555)"/><circle cx="376.04" cy="117.821" r="4.028" stroke="#fff"/><circle cx="316.312" cy="117.821" r="4.028" stroke="#fff"/><circle cx="376.04" cy="177.549" r="4.028" stroke="#fff"/><circle cx="316.312" cy="177.549" r="4.028" stroke="#fff"/><circle fill="#001aa5" r="41.133" transform="matrix(-1 0 0 1 246.378 147.693)"/><path d="M265.242 127.757l2.033 1.996-2.199 2.132.622.616 4.909-4.84-3-2.939-.526.519 2.379 2.352-1.618 1.626-2.075-1.982zm-3.069-2.42l.138 1.121-1.189 1.955.747.465 3.664-5.756-.747-.478-1.797 2.816-.125-1.039-.359-3.185-.899-.561.442 3.787-4.245 1.887.899.56zm-5.671-.232l-3.167-1.108-.248.684 3.996 1.367 2.31-6.371-.83-.287zm-37.463 20.779l.456-2.734 3.001.479.152-.875-6.803-1.08-.664 4.101.733.123.525-3.267 2.323.369-.442 2.802zm-.206 3.897l.816-.807 2.323-.136v-.875l-6.915.382v.889l3.361-.191-.788.697-2.337 2.133.069 1.052 2.862-2.543 3.983 2.325v-1.053zm3.097 4.689l.913 3.199.747-.205-1.162-4.101-6.61 1.859.235.834zm33.259 20.534l-2.766.67-.733-2.967-.857.205 1.632 6.631 4.148-.998-.179-.711-3.25.779-.553-2.256 2.765-.67zm3.719-1.326l-1.079-.438-1.051-2.064-.802.396 3.042 6.098.802-.397-1.479-2.98.954.451 3.014 1.353.955-.464-3.541-1.559.581-4.552-.954.464zm3.14-4.648l2.628-2.092-.471-.574-3.277 2.625 4.273 5.304.692-.533z" fill="#0029ff"/><circle r="16.859" stroke="#fff" transform="matrix(-1 0 0 1 246 148.071)"/><circle r="12.331" stroke="#0029ff" transform="matrix(-1 0 0 1 246.001 148.07)"/><circle cx="230.905" cy="123.919" r="4.028" stroke="#fff"/><circle cx="230.905" cy="171.468" r="4.028" stroke="#fff"/><circle cx="274.681" cy="151.09" r="4.028" stroke="#fff"/><rect fill="#001aa5" height="62.156" rx="5" transform="scale(-1 1) rotate(45 -198.443 -122.759)" width="62.156"/><circle r="16.859" stroke="#fff" transform="matrix(-1 0 0 1 144.471 148.771)"/><circle r="12.331" stroke="#0029ff" transform="matrix(-1 0 0 1 144.472 148.77)"/><circle cx="144.905" cy="117.909" r="4.028" stroke="#fff"/><circle cx="144.905" cy="177.637" r="4.028" stroke="#fff"/><circle cx="114.478" cy="148.336" r="4.028" stroke="#fff"/><circle cx="176.46" cy="148.336" r="4.028" stroke="#fff"/><path d="M164.144 134.565l2.122 2.123-2.252 2.251.655.655 5.099-5.099-3.131-3.13-.553.553 2.475 2.476-1.743 1.744-2.123-2.122zm-2.578-2.808l-.077 1.212-1.723 1.723.662.661 5.099-5.098-.662-.662-2.49 2.49.123-1.11.378-3.369-.788-.788-.448 4.013-4.77.967.788.787zm-5.634-2l-2.494-2.493-.549.55 3.141 3.141 5.098-5.099-.647-.648z" fill="#0029ff"/><rect fill="#001aa5" height="77.759" rx="5" transform="matrix(-1 0 0 1 79.955 108.785)" width="77.759"/><path d="M45.376 118.251h3.001v3.184h.926v-7.211h-4.427v.783h3.501v2.466h-3.001zm-3.808-.164l.802.911v2.437h.936v-7.211h-.936v3.521l-.698-.871-2.115-2.65h-1.114l2.52 3.155-2.689 4.056h1.114zm-5.399 2.571l-3.526-.001v.778h4.443v-7.211h-.916zm9.207 57.321h3.001v3.184h.926v-7.211h-4.427v.783h3.501v2.466h-3.001zm-3.808-.164l.802.911v2.437h.936v-7.211h-.936v3.522l-.698-.872-2.115-2.65h-1.114l2.52 3.155-2.689 4.056h1.114zm-5.399 2.571l-3.526-.001v.778h4.443v-7.211h-.916z" fill="#0029ff"/><circle r="16.859" stroke="#fff" transform="matrix(-1 0 0 1 41.184 147.555)"/><circle r="12.331" stroke="#0029ff" transform="matrix(-1 0 0 1 41.185 147.555)"/><circle cx="70.919" cy="117.821" r="4.028" stroke="#fff"/><circle cx="11.191" cy="117.821" r="4.028" stroke="#fff"/><circle cx="70.919" cy="177.549" r="4.028" stroke="#fff"/><circle cx="11.191" cy="177.549" r="4.028" stroke="#fff"/></svg>