<svg width="346" height="346" fill="none" xmlns="http://www.w3.org/2000/svg"><circle r="143.711" transform="matrix(-1 0 0 1 172.982 173.018)" stroke="#0029FF"/><circle r="133.5" transform="matrix(-1 0 0 1 173 173)" stroke="#0029FF"/><circle r="172.5" transform="matrix(-1 0 0 1 173 173)" stroke="#0029FF"/><circle r="60.36" transform="matrix(-1 0 0 1 171.658 174.342)" stroke="#0029FF"/><circle r="35" transform="matrix(-1 0 0 1 171.5 174.5)" stroke="#0029FF"/><g clip-path="url(#clip0)" fill="#0029FF"><path d="M108.449 102.155l-6.99 6.955 7.56 7.432-2.139 2.143L90 101.821l10.318-10.242 1.807 1.81-8.178 8.194 5.563 5.669 7.132-6.908 1.807 1.811zm10.554-8.432l-.475 3.906 4.089 6.812-2.568 1.62-12.6-20.056 2.568-1.667 6.181 9.813.428-3.62 1.236-11.1 3.091-1.953-1.522 13.196 14.598 6.574-3.091 1.953-11.935-5.478zm19.497-.81l10.888-3.859.856 2.382-13.741 4.764-7.941-22.2 2.853-1 7.085 19.913zm128.807 72.411l-1.57-9.528-10.317 1.668-.524-3.049 23.394-3.764 2.282 14.292-2.52.429-1.806-11.386-7.989 1.286 1.522 9.766-2.472.286zm.713 13.577l-2.806-2.811-7.988-.476v-3.049L281 173.899v3.096l-11.554-.667 2.71 2.43 8.036 7.432-.238 3.668-9.842-8.861-13.694 8.098v-3.668l11.602-6.526zm-10.652 16.341l-3.138 11.147-2.568-.715 3.994-14.291 22.728 6.479-.808 2.906-20.208-5.526zm-114.351 71.553l9.509 2.334 2.52-10.337 2.948.714-5.61 23.105-14.265-3.478.618-2.477 11.174 2.715 1.902-7.86-9.51-2.334.714-2.382zm-12.791-4.621l3.708-1.525 3.614-7.193 2.758 1.381-10.461 21.247-2.758-1.381 5.088-10.386-3.281 1.572-10.365 4.717-3.281-1.62 12.172-5.431-1.997-15.864 3.281 1.62 1.522 12.863zm-10.795-16.197l-9.034-7.289 1.617-2 11.269 9.146-14.693 18.484-2.377-1.858 13.218-16.483z"/></g><defs><clipPath id="clip0"><path fill="#fff" d="M90 73h191v209.706H90z"/></clipPath></defs></svg>