<svg width="1371" height="346" fill="none" xmlns="http://www.w3.org/2000/svg"><circle r="143.711" transform="matrix(-1 0 0 1 172.982 173.018)" stroke="#0029FF"/><circle r="172.5" transform="matrix(-1 0 0 1 173 173)" stroke="#0029FF"/><path d="M73.358 190.324l2.774 9.651 10.265-3.059.862 2.962-23.16 6.695-4.072-14.235 2.484-.714 3.294 11.32 7.731-2.152-2.661-9.754 2.483-.714zm-1.869-13.532l3.242 2.351 8.051-.276.19 3.083-23.976 1.311-.232-3.106 11.74-.656-3.012-2.167-9.27-6.576-.231-3.712 10.995 7.864 12.958-9.74.231 3.713-10.686 7.911zm9.144-17.72l1.873-11.588 2.535.414-2.458 14.572-23.613-3.891.5-3.031 21.163 3.524zm191.2-2.924l-4.052-9.752-9.741 3.054-1.263-3.018 21.758-6.845 6.096 14.615-2.343.719-4.782-11.444-7.398 2.335 4.051 9.751-2.326.585zm2.69 13.252l-3.499-2.546-7.915.452-.617-3.184 23.248-1.527.616 3.185-11.347.769 3.272 2.137 10.138 6.879.753 3.777-11.822-8.134-11.287 9.941-.752-3.777 9.212-7.972zm-7.483 17.842l-.167 11.992-2.613-.429.252-14.987 23.986 3.743.004 3.125-21.462-3.444z" fill="#0029FF"/><circle r="60.36" transform="matrix(-1 0 0 1 171.658 174.342)" stroke="#0029FF"/><circle r="44.483" transform="matrix(-1 0 0 1 171.659 174.341)" stroke="#0029FF"/><circle cx="103.701" cy="246.038" r="15.377" stroke="#0029FF"/><circle cx="242.253" cy="246.038" r="15.377" stroke="#0029FF"/><circle cx="103.701" cy="100.673" r="15.377" stroke="#0029FF"/><circle cx="242.253" cy="100.673" r="15.377" stroke="#0029FF"/><circle r="143.711" transform="matrix(-1 0 0 1 1300.98 173.018)" stroke="#0029FF"/><circle r="172.5" transform="matrix(-1 0 0 1 1301 173)" stroke="#0029FF"/><path d="M1201.36 190.324l2.77 9.651 10.27-3.059.86 2.962-23.16 6.695-4.07-14.235 2.48-.714 3.29 11.32 7.74-2.152-2.67-9.754 2.49-.714zm-1.87-13.532l3.24 2.351 8.05-.276.19 3.083-23.97 1.311-.24-3.106 11.74-.656-3.01-2.167-9.27-6.576-.23-3.712 11 7.864 12.95-9.74.24 3.713-10.69 7.911zm9.14-17.72l1.88-11.588 2.53.414-2.46 14.572-23.61-3.891.5-3.031 21.16 3.524z" fill="#0029FF"/><circle r="60.36" transform="matrix(-1 0 0 1 1299.66 174.342)" stroke="#0029FF"/><circle r="44.483" transform="matrix(-1 0 0 1 1299.66 174.341)" stroke="#0029FF"/><circle cx="1231.7" cy="246.038" r="15.377" stroke="#0029FF"/><circle cx="1370.25" cy="246.038" r="15.377" stroke="#0029FF"/><circle cx="1231.7" cy="100.673" r="15.377" stroke="#0029FF"/><circle cx="1370.25" cy="100.673" r="15.377" stroke="#0029FF"/><circle r="157.5" transform="matrix(-1 0 0 1 925 173)" stroke="#0029FF"/><circle r="172.5" transform="matrix(-1 0 0 1 925 173)" stroke="#0029FF"/><circle r="78" transform="matrix(-1 0 0 1 923.5 174.5)" stroke="#0029FF"/><circle r="57.5" transform="matrix(-1 0 0 1 924 174)" stroke="#0029FF"/><circle cx="855.701" cy="282.876" r="15.377" stroke="#0029FF"/><circle cx="994.253" cy="282.876" r="15.377" stroke="#0029FF"/><circle cx="812.876" cy="112.876" r="15.377" stroke="#0029FF"/><circle cx="1038.88" cy="112.876" r="15.377" stroke="#0029FF"/><circle cx="923.876" cy="44.877" r="15.377" stroke="#0029FF"/><path d="M1041.46 189.736l.73-9.95-10.68-.832.22-3.084 23.87 1.838-1.07 14.922-2.57-.214.83-11.687-8.12-.618-.72 9.95-2.49-.325zm-2.45 13.627l-2.13-3.479-7.74-2.45.91-3.002 22.83 7.023-.91 3.001-11.16-3.407 2.11 3.042 6.41 9.65-1.06 3.567-7.42-11.35-15.41 4.622 1.06-3.567 12.51-3.65zm-14.27 13.527l-5.73 10.288-2.26-1.297 7.2-12.842 20.8 11.734-1.45 2.698-18.56-10.581zm-210.284-3.665l4.405 8.952 9.634-4.686 1.373 2.769-21.519 10.491-6.626-13.413 2.318-1.112 5.197 10.501 7.317-3.574-4.405-8.952 2.306-.976zm-4.779-12.995l3.6 1.922 7.918-1.804.733 3.05-23.249 5.495-.733-3.05 11.347-2.705-3.357-1.557-10.412-5.08-.891-3.613 12.145 6.035 10.955-11.784.891 3.613-8.947 9.478zm5.47-18.889l-.266-11.771 2.602-.023.289 14.718-23.877.401-.117-3.059 21.369-.266z" fill="#0029FF"/><circle r="143.711" transform="matrix(-1 0 0 1 548.982 173.018)" stroke="#0029FF"/><circle r="133.5" transform="matrix(-1 0 0 1 549 173)" stroke="#0029FF"/><circle r="172.5" transform="matrix(-1 0 0 1 549 173)" stroke="#0029FF"/><circle r="60.36" transform="matrix(-1 0 0 1 547.658 174.342)" stroke="#0029FF"/><circle r="35" transform="matrix(-1 0 0 1 547.5 174.5)" stroke="#0029FF"/><g clip-path="url(#clip0)" fill="#0029FF"><path d="M484.449 102.155l-6.99 6.955 7.56 7.432-2.139 2.143L466 101.821l10.318-10.242 1.807 1.81-8.179 8.194 5.564 5.669 7.132-6.908 1.807 1.811zm10.554-8.432l-.475 3.906 4.089 6.812-2.568 1.62-12.6-20.056 2.568-1.667 6.181 9.813.428-3.62 1.236-11.1 3.091-1.953-1.522 13.196 14.598 6.574-3.091 1.953-11.935-5.478zm19.497-.81l10.888-3.859.856 2.382-13.741 4.764-7.941-22.2 2.853-1 7.085 19.913zm128.807 72.411l-1.57-9.528-10.317 1.668-.524-3.049 23.394-3.764 2.282 14.292-2.52.429-1.806-11.386-7.989 1.286 1.522 9.766-2.472.286zm.713 13.577l-2.806-2.811-7.988-.476v-3.049L657 173.899v3.096l-11.554-.667 2.71 2.43 8.036 7.432-.238 3.668-9.842-8.861-13.694 8.098v-3.668l11.602-6.526zm-10.652 16.341l-3.138 11.147-2.568-.715 3.994-14.291 22.728 6.479-.808 2.906-20.208-5.526zm-114.351 71.553l9.509 2.334 2.52-10.337 2.948.714-5.61 23.105-14.265-3.478.618-2.477 11.174 2.715 1.902-7.86-9.51-2.334.714-2.382zm-12.791-4.621l3.708-1.525 3.614-7.193 2.758 1.381-10.461 21.247-2.758-1.381 5.088-10.386-3.281 1.572-10.365 4.717-3.281-1.62 12.172-5.431-1.997-15.864 3.281 1.62 1.522 12.863zm-10.795-16.197l-9.034-7.289 1.617-2 11.269 9.146-14.693 18.484-2.377-1.858 13.218-16.483z"/></g><defs><clipPath id="clip0"/></defs></svg>