<svg width="346" height="352" fill="none" xmlns="http://www.w3.org/2000/svg"><circle r="143.711" transform="matrix(-1 0 0 1 172.982 174.51)" stroke="#0029FF"/><circle r="172.5" transform="matrix(-1 0 0 1 173 174.492)" stroke="#0029FF"/><path d="M73.347 191.87l2.783 9.635 10.264-2.957.865 2.957-23.156 6.465-4.086-14.21 2.483-.689 3.305 11.3 7.73-2.075-2.67-9.736 2.482-.69zm-1.857-13.585l3.245 2.371 8.053-.204.192 3.075L59 184.626l-.235-3.1 11.742-.551-3.015-2.187-9.278-6.638-.235-3.704 11.005 7.937 12.952-9.598.235 3.704-10.681 7.796zm9.147-17.675l1.862-11.539 2.537.435-2.444 14.509-23.623-4.085.497-3.018 21.171 3.698zm191.374-2.918l-4.3-9.975-9.608 2.723-1.34-3.088 21.46-6.107 6.469 14.952-2.311.64-5.074-11.708-7.297 2.083 4.3 9.976-2.299.504zm2.454 13.136l-3.549-2.69-7.858.168-.7-3.229 23.072-.691.7 3.229-11.261.361 3.312 2.27 10.27 7.296.852 3.829-11.978-8.62-10.948 9.598-.852-3.829 8.94-7.692zm-7.474 17.639l.165 12.153-2.623-.531-.162-15.187 24.066 4.675.091 3.168-21.537-4.278z" fill="#0029FF"/><circle r="60.36" transform="matrix(-1 0 0 1 171.658 175.833)" stroke="#0029FF"/><circle r="44.483" transform="matrix(-1 0 0 1 171.659 175.833)" stroke="#0029FF"/><circle cx="103.701" cy="247.53" r="15.377" stroke="#0029FF"/><circle cx="242.253" cy="247.53" r="15.377" stroke="#0029FF"/><circle cx="103.701" cy="102.165" r="15.377" stroke="#0029FF"/><circle cx="242.253" cy="102.165" r="15.377" stroke="#0029FF"/></svg>