<svg width="34" height="35" fill="none" xmlns="http://www.w3.org/2000/svg"><path d="M33.5 11.826h-2.515c-.165-4.182-2.647-7.942-6.725-10.12a.557.557 0 00-.505-.007.434.434 0 00-.255.383v4.472h-2V.894c0-.192-.142-.362-.352-.419a15.682 15.682 0 00-2.593-.472.547.547 0 00-.389.11A.418.418 0 0018 .44v4.796h-2V.44a.418.418 0 00-.166-.328.543.543 0 00-.389-.11c-.886.087-1.758.246-2.593.473-.21.057-.352.227-.352.42v5.659h-2V2.083a.435.435 0 00-.255-.384.56.56 0 00-.504.008C5.662 3.884 3.18 7.644 3.016 11.827H.5c-.276 0-.5.196-.5.439v2.636c0 .243.224.44.5.44h33c.276 0 .5-.197.5-.44v-2.636c0-.243-.224-.44-.5-.44zm-24-8.93v4.097c0 .243.224.44.5.44h3c.276 0 .5-.197.5-.44v-5.77c.49-.119.991-.213 1.5-.282v4.734c0 .242.224.44.5.44h3c.276 0 .5-.198.5-.44V.94c.509.069 1.01.163 1.5.283v5.769c0 .243.224.44.5.44h3c.276 0 .5-.197.5-.44V2.895c3.325 2.06 5.34 5.325 5.49 8.931H4.01c.151-3.606 2.165-6.87 5.49-8.93zM33 14.462H1v-1.758h32v1.758zM17 29.84c-6.925 0-12.5-7.21-12.5-13.18 0-.243.224-.44.5-.44s.5.197.5.44c0 5.537 5.306 12.302 11.5 12.302s11.5-6.765 11.5-12.302c0-.243.224-.44.5-.44s.5.197.5.44c0 5.97-5.575 13.18-12.5 13.18z" fill="#0029FF"/><path d="M17 34.811a.544.544 0 01-.31-.094l-7.156-4.971c-.217-.15-.254-.427-.083-.617a.547.547 0 01.703-.072L17 33.812l6.846-4.755a.546.546 0 01.702.072c.171.191.135.467-.082.617l-7.156 4.971a.547.547 0 01-.31.094z" fill="#0029FF"/></svg>