<svg width="39" height="38" fill="none" xmlns="http://www.w3.org/2000/svg"><path d="M23.974 18.48c-.42-.362-1.18-.865-2.32-1.536-1.61-.954-2.158-1.364-2.336-1.542-.233-.227-.351-.653-.351-1.265 0-.36.056-.627.167-.793.094-.141.228-.207.423-.207.321 0 .413.127.455.222.061.142.135.501.135 1.405v.923h4.822l.015-.194c.03-.373.044-.643.044-.824 0-1.317-.36-2.368-1.071-3.124-.676-.72-1.684-1.181-2.995-1.375V8.771h-2.46v1.397c-1.44.192-2.546.658-3.29 1.387-.783.767-1.18 1.833-1.18 3.168 0 .914.185 1.746.55 2.473.366.726.807 1.298 1.311 1.702.488.39 1.418 1.006 2.765 1.828.758.46 1.204.877 1.325 1.241.13.392.197 1.065.197 2.002 0 .336-.06.585-.177.742-.104.14-.26.205-.49.205-.32 0-.409-.137-.452-.272-.058-.177-.127-.683-.127-2.088v-1.264h-4.836v1.051c0 1.967.467 3.373 1.39 4.18a5.576 5.576 0 003.014 1.354v1.692h2.46v-1.644c1.468-.232 2.595-.79 3.35-1.661.787-.907 1.186-2.165 1.186-3.74 0-.982-.147-1.815-.437-2.48-.292-.668-.658-1.194-1.087-1.563zm.007 7.51c-.716.827-1.815 1.346-3.265 1.543l-.187.026v1.588h-1.595v-1.65l-.195-.018a5.158 5.158 0 01-2.96-1.27c-.829-.724-1.248-2.024-1.248-3.866v-.628h3.97v.841c0 1.188.048 1.913.147 2.216.084.259.302.568.866.568.37 0 .652-.128.84-.38.174-.233.26-.558.26-.99 0-.996-.072-1.693-.218-2.133-.157-.469-.65-.949-1.509-1.47-1.33-.812-2.245-1.416-2.72-1.796-.456-.364-.859-.89-1.195-1.56-.337-.67-.507-1.44-.507-2.288 0-1.22.354-2.185 1.054-2.87.706-.692 1.79-1.125 3.224-1.288l.19-.023V9.194h1.595v1.346l.189.025c1.3.162 2.284.588 2.92 1.267.635.675.957 1.63.957 2.838 0 .136-.01.336-.028.596H20.58v-.5c0-.794-.056-1.308-.17-1.57-.095-.22-.32-.48-.854-.48-.34 0-.612.138-.786.399-.16.239-.237.574-.237 1.023 0 .739.156 1.25.476 1.562.285.285 1.076.81 2.42 1.607 1.102.649 1.862 1.151 2.257 1.49.38.329.708.804.975 1.414.266.61.402 1.39.402 2.313 0 1.471-.363 2.638-1.082 3.466z" fill="#0029FF" stroke="#0029FF" stroke-width=".3"/><path d="M19.765 1C9.49 1 1.13 9.151 1.13 19.17c0 10.02 8.36 18.17 18.636 18.17s18.636-8.15 18.636-18.17C38.4 9.152 30.04 1 19.765 1zm0 35.918c-10.037 0-18.203-7.96-18.203-17.747 0-9.787 8.166-17.748 18.203-17.748 10.037 0 18.202 7.961 18.202 17.748 0 9.786-8.165 17.747-18.202 17.747z" fill="#0029FF" stroke="#0029FF" stroke-width=".3"/></svg>